{"glyphs":{"0":{"ha":917,"x_min":0,"x_max":0,"o":"m 458 -22 b 44 499 214 -22 44 172 b 458 1019 44 825 214 1019 b 872 499 703 1019 872 825 b 458 -22 872 172 703 -22 m 458 121 b 581 499 531 121 581 221 b 458 876 581 776 531 876 b 336 499 386 876 336 776 b 458 121 336 221 386 121 "},"1":{"ha":639,"x_min":0,"x_max":0,"o":"m 140 -4 b 79 44 97 -4 79 19 b 201 197 79 118 201 82 l 201 703 b 151 768 201 743 183 768 b 56 760 118 768 88 760 b 0 811 22 760 0 779 b 51 869 0 836 18 860 b 322 950 118 889 190 906 b 518 1017 444 992 479 1017 b 569 965 551 1017 569 990 b 499 811 569 893 499 889 l 499 197 b 621 44 499 82 621 118 b 560 -4 621 19 603 -4 b 350 0 510 -4 464 0 b 140 -4 236 0 190 -4 "},"2":{"ha":896,"x_min":0,"x_max":0,"o":"m 819 363 b 868 306 846 363 868 340 b 832 190 868 275 857 244 l 763 39 b 679 -36 738 -15 715 -36 b 561 0 638 -36 629 0 l 238 0 b 81 -4 199 0 140 -4 b 10 58 28 -4 10 32 b 46 138 10 83 17 100 b 333 464 129 243 271 390 b 446 699 396 538 446 619 b 338 819 446 764 408 819 b 179 713 268 819 219 768 b 110 664 164 692 143 664 b 57 726 75 664 57 696 b 76 800 57 746 64 774 b 444 1019 131 918 257 1019 b 783 738 628 1019 783 911 b 632 458 783 626 721 536 b 319 226 535 372 422 317 l 567 226 b 754 321 644 226 692 251 b 819 363 778 347 794 363 "},"3":{"ha":876,"x_min":0,"x_max":0,"o":"m 546 629 b 831 324 725 601 831 457 b 431 -22 831 138 668 -22 b 46 183 211 -22 85 93 b 26 260 33 213 26 240 b 85 325 26 300 51 325 b 153 278 114 325 132 304 b 351 176 197 224 264 176 b 497 313 440 176 497 233 b 367 454 497 404 432 454 b 299 446 340 454 321 446 b 232 513 251 446 232 481 b 339 614 232 563 294 575 b 531 793 404 671 471 732 l 328 793 b 165 693 261 793 240 775 b 101 653 143 668 128 653 b 51 711 76 653 51 674 b 83 818 51 751 64 768 l 139 957 b 210 1031 154 994 168 1031 b 336 994 251 1031 268 994 l 593 994 b 738 999 625 994 711 999 b 822 925 810 999 822 953 b 760 818 822 894 810 868 b 546 629 708 767 628 697 "},"4":{"ha":872,"x_min":0,"x_max":0,"o":"m 769 426 b 835 351 818 426 835 417 l 835 286 b 769 211 835 219 818 211 l 713 211 l 713 182 b 793 44 713 82 793 107 b 732 -4 793 19 775 -4 b 564 0 694 -4 660 0 b 382 -4 468 0 419 -4 b 321 44 339 -4 321 19 b 415 182 321 113 415 82 l 415 211 l 93 211 b 0 299 29 211 0 238 b 83 486 0 356 25 392 l 329 882 b 503 999 383 969 419 999 l 596 999 b 713 907 685 999 713 972 l 713 426 l 769 426 m 214 426 l 429 426 l 429 779 "},"5":{"ha":869,"x_min":0,"x_max":0,"o":"m 439 660 b 822 333 678 660 822 521 b 410 -25 822 131 654 -25 b 64 118 235 -25 113 53 b 26 206 40 150 26 182 b 86 267 26 243 56 267 b 154 229 111 267 128 250 b 335 163 197 194 260 163 b 492 292 431 163 492 214 b 325 428 492 372 429 428 b 144 388 236 428 188 388 b 90 464 119 388 81 410 l 171 942 b 247 997 178 985 203 997 l 649 997 b 722 1029 679 997 697 1007 b 775 1056 740 1046 756 1056 b 821 1007 800 1056 821 1038 b 782 888 821 983 797 922 l 751 819 b 660 757 732 776 704 757 l 275 757 l 253 633 b 439 660 310 650 374 660 "},"6":{"ha":897,"x_min":0,"x_max":0,"o":"m 551 686 b 864 354 724 686 864 567 b 458 -22 864 122 693 -22 b 44 471 182 -22 44 176 b 482 1019 44 775 194 1019 b 706 967 572 1019 654 996 b 775 876 744 944 775 918 b 715 813 775 839 751 813 b 657 829 693 813 672 822 b 542 856 628 842 590 856 b 351 617 432 856 367 782 b 551 686 400 657 465 686 m 461 118 b 571 326 532 118 571 197 b 456 521 571 465 525 521 b 339 342 399 521 339 482 b 461 118 339 228 378 118 "},"7":{"ha":765,"x_min":0,"x_max":0,"o":"m 667 999 b 754 926 744 999 754 953 b 721 803 754 897 743 864 b 438 72 628 550 543 319 b 329 0 417 25 381 0 l 218 1 b 128 64 157 3 128 26 b 213 225 128 115 174 169 b 549 763 318 376 446 561 l 279 763 b 119 663 213 763 193 744 b 56 622 97 638 81 622 b 6 681 29 622 6 643 b 38 788 6 711 18 738 l 103 957 b 181 1031 124 1010 146 1031 b 300 994 222 1031 232 994 l 526 994 b 667 999 557 994 643 999 "},"8":{"ha":906,"x_min":0,"x_max":0,"o":"m 664 590 b 868 288 803 514 868 428 b 451 -22 868 94 699 -22 b 39 263 218 -22 39 93 b 208 489 39 364 93 442 b 79 718 125 546 79 618 b 449 1019 79 883 214 1019 b 804 782 667 1019 804 917 b 664 590 804 690 744 622 m 451 888 b 350 799 389 888 350 849 b 536 650 350 722 439 690 b 579 758 567 681 579 721 b 451 888 579 833 526 888 m 451 118 b 594 232 532 118 594 163 b 333 425 594 338 456 376 b 282 290 300 392 282 344 b 451 118 282 186 351 118 "},"9":{"ha":910,"x_min":0,"x_max":0,"o":"m 444 1019 b 865 508 711 1019 865 835 b 394 -24 865 246 750 -24 b 142 38 294 -24 204 0 b 71 131 103 61 71 89 b 133 200 71 168 94 200 b 193 181 151 200 172 190 b 347 142 233 161 283 142 b 574 393 489 142 560 224 b 360 308 526 347 453 308 b 43 654 193 308 43 417 b 444 1019 43 860 200 1019 m 453 476 b 568 646 514 476 568 519 b 447 879 568 774 526 879 b 335 685 371 879 335 796 b 453 476 335 528 388 476 "}," ":{"ha":333,"x_min":0,"x_max":0,"o":""},"A":{"ha":1090,"x_min":0,"x_max":0,"o":"m 990 178 b 1101 38 1025 86 1101 101 b 1053 -4 1101 14 1083 -4 b 861 0 1006 -4 957 0 b 657 -4 765 0 706 -4 b 585 43 613 -4 585 13 b 682 153 585 108 682 82 b 667 218 682 168 676 192 l 653 258 b 593 307 642 290 632 307 l 346 307 b 286 258 307 307 297 290 l 272 221 b 253 153 260 188 253 165 b 354 43 253 82 354 108 b 282 -4 354 13 328 -4 b 150 0 235 -4 190 0 b 31 -4 108 0 78 -4 b -18 38 0 -4 -18 14 b 101 178 -18 104 65 82 l 304 714 b 374 911 329 778 357 857 b 549 1006 400 992 431 1006 b 717 910 667 1006 690 989 b 788 714 735 857 763 778 l 990 178 m 549 439 b 572 478 583 439 579 460 l 471 751 l 368 478 b 393 439 361 460 360 439 l 549 439 "},"Á":{"ha":1090,"x_min":0,"x_max":0,"o":"m 490 1051 b 443 1081 460 1051 443 1065 b 457 1118 443 1092 450 1107 b 563 1274 497 1181 532 1231 b 678 1317 583 1304 606 1317 b 783 1275 768 1317 783 1301 b 724 1196 783 1247 765 1231 b 571 1078 675 1156 631 1122 b 490 1051 544 1058 515 1051 m 990 178 b 1101 38 1025 86 1101 101 b 1053 -4 1101 14 1083 -4 b 861 0 1006 -4 957 0 b 657 -4 765 0 706 -4 b 585 43 613 -4 585 13 b 682 153 585 108 682 82 b 667 218 682 168 676 192 l 653 258 b 593 307 642 290 632 307 l 346 307 b 286 258 307 307 297 290 l 272 221 b 253 153 260 188 253 165 b 354 43 253 82 354 108 b 282 -4 354 13 328 -4 b 150 0 235 -4 190 0 b 31 -4 108 0 78 -4 b -18 38 0 -4 -18 14 b 101 178 -18 104 65 82 l 304 714 b 374 911 329 778 357 857 b 549 1006 400 992 431 1006 b 717 910 667 1006 690 989 b 788 714 735 857 763 778 l 990 178 m 549 439 b 572 478 583 439 579 460 l 471 751 l 368 478 b 393 439 361 460 360 439 l 549 439 "},"Ă":{"ha":1090,"x_min":0,"x_max":0,"o":"m 550 1061 b 338 1199 449 1061 376 1115 b 318 1272 324 1228 318 1250 b 369 1318 318 1301 342 1318 b 446 1264 401 1318 421 1296 b 550 1197 476 1225 510 1197 b 654 1264 590 1197 624 1225 b 731 1318 679 1296 699 1318 b 782 1272 758 1318 782 1301 b 763 1199 782 1250 776 1228 b 550 1061 724 1115 651 1061 m 990 178 b 1101 38 1025 86 1101 101 b 1053 -4 1101 14 1083 -4 b 861 0 1006 -4 957 0 b 657 -4 765 0 706 -4 b 585 43 613 -4 585 13 b 682 153 585 108 682 82 b 667 218 682 168 676 192 l 653 258 b 593 307 642 290 632 307 l 346 307 b 286 258 307 307 297 290 l 272 221 b 253 153 260 188 253 165 b 354 43 253 82 354 108 b 282 -4 354 13 328 -4 b 150 0 235 -4 190 0 b 31 -4 108 0 78 -4 b -18 38 0 -4 -18 14 b 101 178 -18 104 65 82 l 304 714 b 374 911 329 778 357 857 b 549 1006 400 992 431 1006 b 717 910 667 1006 690 989 b 788 714 735 857 763 778 l 990 178 m 549 439 b 572 478 583 439 579 460 l 471 751 l 368 478 b 393 439 361 460 360 439 l 549 439 "},"Â":{"ha":1090,"x_min":0,"x_max":0,"o":"m 374 1061 b 319 1103 339 1061 319 1083 b 339 1149 319 1117 325 1129 b 442 1275 371 1193 403 1233 b 556 1319 474 1308 493 1319 b 669 1275 618 1319 638 1308 b 772 1149 708 1233 740 1193 b 792 1103 786 1129 792 1117 b 738 1061 792 1083 772 1061 b 671 1090 721 1061 700 1065 l 556 1188 l 440 1090 b 374 1061 411 1065 390 1061 m 990 178 b 1101 38 1025 86 1101 101 b 1053 -4 1101 14 1083 -4 b 861 0 1006 -4 957 0 b 657 -4 765 0 706 -4 b 585 43 613 -4 585 13 b 682 153 585 108 682 82 b 667 218 682 168 676 192 l 653 258 b 593 307 642 290 632 307 l 346 307 b 286 258 307 307 297 290 l 272 221 b 253 153 260 188 253 165 b 354 43 253 82 354 108 b 282 -4 354 13 328 -4 b 150 0 235 -4 190 0 b 31 -4 108 0 78 -4 b -18 38 0 -4 -18 14 b 101 178 -18 104 65 82 l 304 714 b 374 911 329 778 357 857 b 549 1006 400 992 431 1006 b 717 910 667 1006 690 989 b 788 714 735 857 763 778 l 990 178 m 549 439 b 572 478 583 439 579 460 l 471 751 l 368 478 b 393 439 361 460 360 439 l 549 439 "},"Ä":{"ha":1090,"x_min":0,"x_max":0,"o":"m 388 1061 b 261 1175 315 1061 261 1111 b 390 1293 261 1244 315 1293 b 514 1178 463 1293 514 1244 b 388 1061 514 1111 463 1061 m 710 1063 b 586 1175 639 1063 586 1111 b 714 1292 586 1244 639 1292 b 836 1178 785 1292 836 1244 b 710 1063 836 1111 785 1063 m 990 178 b 1101 38 1025 86 1101 101 b 1053 -4 1101 14 1083 -4 b 861 0 1006 -4 957 0 b 657 -4 765 0 706 -4 b 585 43 613 -4 585 13 b 682 153 585 108 682 82 b 667 218 682 168 676 192 l 653 258 b 593 307 642 290 632 307 l 346 307 b 286 258 307 307 297 290 l 272 221 b 253 153 260 188 253 165 b 354 43 253 82 354 108 b 282 -4 354 13 328 -4 b 150 0 235 -4 190 0 b 31 -4 108 0 78 -4 b -18 38 0 -4 -18 14 b 101 178 -18 104 65 82 l 304 714 b 374 911 329 778 357 857 b 549 1006 400 992 431 1006 b 717 910 667 1006 690 989 b 788 714 735 857 763 778 l 990 178 m 549 439 b 572 478 583 439 579 460 l 471 751 l 368 478 b 393 439 361 460 360 439 l 549 439 "},"À":{"ha":1090,"x_min":0,"x_max":0,"o":"m 365 1196 b 306 1275 324 1231 306 1247 b 411 1317 306 1301 321 1317 b 526 1274 483 1317 506 1304 b 632 1118 556 1231 593 1181 b 646 1081 639 1107 646 1092 b 599 1051 646 1065 629 1051 b 518 1078 574 1051 544 1058 b 365 1196 458 1122 414 1156 m 990 178 b 1101 38 1025 86 1101 101 b 1053 -4 1101 14 1083 -4 b 861 0 1006 -4 957 0 b 657 -4 765 0 706 -4 b 585 43 613 -4 585 13 b 682 153 585 108 682 82 b 667 218 682 168 676 192 l 653 258 b 593 307 642 290 632 307 l 346 307 b 286 258 307 307 297 290 l 272 221 b 253 153 260 188 253 165 b 354 43 253 82 354 108 b 282 -4 354 13 328 -4 b 150 0 235 -4 190 0 b 31 -4 108 0 78 -4 b -18 38 0 -4 -18 14 b 101 178 -18 104 65 82 l 304 714 b 374 911 329 778 357 857 b 549 1006 400 992 431 1006 b 717 910 667 1006 690 989 b 788 714 735 857 763 778 l 990 178 m 549 439 b 572 478 583 439 579 460 l 471 751 l 368 478 b 393 439 361 460 360 439 l 549 439 "},"Ā":{"ha":1090,"x_min":0,"x_max":0,"o":"m 365 1113 b 315 1179 329 1113 315 1136 b 365 1246 315 1222 329 1246 b 549 1243 421 1246 490 1243 b 732 1246 607 1243 676 1246 b 782 1179 768 1246 782 1222 b 732 1113 782 1136 768 1113 b 549 1115 676 1113 607 1115 b 365 1113 490 1115 421 1113 m 990 178 b 1101 38 1025 86 1101 101 b 1053 -4 1101 14 1083 -4 b 861 0 1006 -4 957 0 b 657 -4 765 0 706 -4 b 585 43 613 -4 585 13 b 682 153 585 108 682 82 b 667 218 682 168 676 192 l 653 258 b 593 307 642 290 632 307 l 346 307 b 286 258 307 307 297 290 l 272 221 b 253 153 260 188 253 165 b 354 43 253 82 354 108 b 282 -4 354 13 328 -4 b 150 0 235 -4 190 0 b 31 -4 108 0 78 -4 b -18 38 0 -4 -18 14 b 101 178 -18 104 65 82 l 304 714 b 374 911 329 778 357 857 b 549 1006 400 992 431 1006 b 717 910 667 1006 690 989 b 788 714 735 857 763 778 l 990 178 m 549 439 b 572 478 583 439 579 460 l 471 751 l 368 478 b 393 439 361 460 360 439 l 549 439 "},"Ą":{"ha":1090,"x_min":0,"x_max":0,"o":"m 990 178 b 1101 38 1025 86 1101 101 b 1053 -4 1101 14 1083 -4 b 900 0 1013 -4 971 -1 b 836 -137 858 -44 836 -90 b 865 -179 836 -169 850 -179 b 894 -171 878 -179 888 -175 b 918 -162 903 -167 908 -162 b 950 -197 933 -162 950 -178 b 928 -240 950 -214 943 -228 b 814 -279 903 -261 864 -279 b 692 -161 744 -279 692 -235 b 792 -1 692 -104 728 -50 b 657 -4 735 -1 693 -4 b 585 43 613 -4 585 13 b 682 153 585 108 682 82 b 667 218 682 168 676 192 l 653 258 b 593 307 642 290 632 307 l 346 307 b 286 258 307 307 297 290 l 272 221 b 253 153 260 188 253 165 b 354 43 253 82 354 108 b 282 -4 354 13 328 -4 b 150 0 235 -4 190 0 b 31 -4 108 0 78 -4 b -18 38 0 -4 -18 14 b 101 178 -18 104 65 82 l 304 714 b 374 911 329 778 357 857 b 549 1006 400 992 431 1006 b 717 910 667 1006 690 989 b 788 714 735 857 763 778 l 990 178 m 549 439 b 572 478 583 439 579 460 l 471 751 l 368 478 b 393 439 361 460 360 439 l 549 439 "},"Å":{"ha":1090,"x_min":0,"x_max":0,"o":"m 551 1039 b 365 1189 428 1039 365 1090 b 557 1336 365 1288 435 1336 b 742 1194 676 1336 742 1289 b 551 1039 742 1093 676 1039 m 556 1263 b 494 1183 515 1263 494 1240 b 553 1114 494 1138 517 1114 b 613 1193 594 1114 613 1136 b 556 1263 613 1240 590 1263 m 990 178 b 1101 38 1025 86 1101 101 b 1053 -4 1101 14 1083 -4 b 861 0 1006 -4 957 0 b 657 -4 765 0 706 -4 b 585 43 613 -4 585 13 b 682 153 585 108 682 82 b 667 218 682 168 676 192 l 653 258 b 593 307 642 290 632 307 l 346 307 b 286 258 307 307 297 290 l 272 221 b 253 153 260 188 253 165 b 354 43 253 82 354 108 b 282 -4 354 13 328 -4 b 150 0 235 -4 190 0 b 31 -4 108 0 78 -4 b -18 38 0 -4 -18 14 b 101 178 -18 104 65 82 l 304 714 b 374 911 329 778 357 857 b 549 1006 400 992 431 1006 b 717 910 667 1006 690 989 b 788 714 735 857 763 778 l 990 178 m 549 439 b 572 478 583 439 579 460 l 471 751 l 368 478 b 393 439 361 460 360 439 l 549 439 "},"Ã":{"ha":1090,"x_min":0,"x_max":0,"o":"m 364 1083 b 319 1132 335 1083 319 1101 b 331 1190 319 1144 322 1165 b 463 1301 354 1263 400 1301 b 640 1204 561 1301 600 1204 b 681 1243 654 1204 664 1217 b 738 1289 697 1271 710 1289 b 782 1240 767 1289 782 1271 b 771 1182 782 1228 779 1207 b 639 1071 747 1110 701 1071 b 463 1168 538 1071 499 1168 b 421 1129 446 1168 432 1147 b 364 1083 404 1101 392 1083 m 990 178 b 1101 38 1025 86 1101 101 b 1053 -4 1101 14 1083 -4 b 861 0 1006 -4 957 0 b 657 -4 765 0 706 -4 b 585 43 613 -4 585 13 b 682 153 585 108 682 82 b 667 218 682 168 676 192 l 653 258 b 593 307 642 290 632 307 l 346 307 b 286 258 307 307 297 290 l 272 221 b 253 153 260 188 253 165 b 354 43 253 82 354 108 b 282 -4 354 13 328 -4 b 150 0 235 -4 190 0 b 31 -4 108 0 78 -4 b -18 38 0 -4 -18 14 b 101 178 -18 104 65 82 l 304 714 b 374 911 329 778 357 857 b 549 1006 400 992 431 1006 b 717 910 667 1006 690 989 b 788 714 735 857 763 778 l 990 178 m 549 439 b 572 478 583 439 579 460 l 471 751 l 368 478 b 393 439 361 460 360 439 l 549 439 "},"Æ":{"ha":1567,"x_min":0,"x_max":0,"o":"m 1503 354 b 1553 299 1528 354 1553 333 b 1515 186 1553 264 1540 239 l 1447 38 b 1365 -36 1422 -15 1400 -36 b 1247 0 1324 -36 1315 0 l 839 0 b 671 -4 743 0 708 -4 b 610 44 628 -4 610 19 b 690 182 610 107 690 81 l 690 272 b 660 307 690 289 685 307 l 422 307 b 349 258 383 307 369 290 l 324 221 b 282 132 301 188 282 158 b 371 43 282 86 371 103 b 299 -4 371 13 344 -4 b 158 0 244 -4 201 0 b 17 -4 114 0 56 -4 b -32 38 -12 -4 -32 14 b 129 178 -32 111 57 69 l 503 739 b 550 832 519 764 550 800 b 463 949 550 899 463 883 b 531 999 463 975 488 999 b 699 994 568 999 603 994 l 1201 994 b 1319 1031 1269 994 1278 1031 b 1401 957 1354 1031 1378 1010 l 1463 818 b 1500 706 1486 765 1500 740 b 1450 650 1500 671 1475 650 b 1386 690 1425 650 1410 665 b 1114 864 1289 793 1229 864 l 1057 864 b 988 799 1006 864 988 843 l 988 608 b 1032 569 988 581 997 569 l 1067 569 b 1217 668 1146 569 1157 668 b 1261 604 1239 668 1261 649 b 1257 504 1261 571 1257 538 b 1261 404 1257 471 1261 438 b 1217 340 1261 360 1239 340 b 1067 439 1157 340 1146 439 l 1032 439 b 988 400 997 439 988 428 l 988 196 b 1057 131 988 151 1006 131 l 1147 131 b 1439 314 1267 131 1340 196 b 1503 354 1461 340 1478 354 m 660 439 b 690 474 685 439 690 457 l 690 778 l 493 478 b 506 439 479 457 475 439 l 660 439 "},"B":{"ha":1083,"x_min":0,"x_max":0,"o":"m 844 536 b 1051 285 972 494 1051 406 b 631 -7 1051 97 918 -7 b 274 0 522 -7 365 0 b 106 -4 178 0 143 -4 b 44 44 63 -4 44 19 b 125 182 44 107 125 82 l 125 813 b 44 950 125 913 44 888 b 106 999 44 975 63 999 b 274 994 143 999 178 994 b 583 1006 369 994 465 1006 b 979 738 822 1006 979 908 b 844 536 979 661 943 585 m 422 625 b 474 586 422 597 432 586 l 519 586 b 663 719 593 586 663 624 b 511 871 663 813 597 871 l 503 871 b 422 808 460 871 422 860 m 551 125 b 726 283 654 125 726 189 b 515 461 726 399 646 461 l 469 461 b 422 411 435 461 422 447 l 422 222 b 538 125 422 135 450 125 l 551 125 "},"":{"ha":1083,"x_min":0,"x_max":0,"o":"m 844 536 b 979 738 943 585 979 661 b 583 1006 979 908 822 1006 b 274 994 465 1006 369 994 b 106 999 178 994 143 999 b 44 950 63 999 44 975 b 125 813 44 888 125 913 l 125 182 b 44 44 125 82 44 107 b 106 -4 44 19 63 -4 b 274 0 143 -4 178 0 b 631 -7 365 0 522 -7 b 1051 285 918 -7 1051 97 b 844 536 1051 406 972 494 m 422 808 b 503 871 422 860 460 871 l 511 871 b 663 719 597 871 663 813 b 519 586 663 624 593 586 l 474 586 b 422 625 432 586 422 597 m 551 125 l 538 125 b 422 222 450 125 422 135 l 422 411 b 469 461 422 447 435 461 l 515 461 b 726 283 646 461 726 399 b 551 125 726 189 654 125 "},"C":{"ha":1007,"x_min":0,"x_max":0,"o":"m 525 -31 b 38 471 265 -31 38 160 b 517 1025 38 815 279 1025 b 736 990 613 1025 696 990 b 818 1031 771 990 785 1031 b 890 953 850 1031 869 1008 l 946 801 b 979 683 968 742 979 707 b 925 625 979 643 953 625 b 864 664 899 625 883 638 b 589 890 760 810 682 890 b 356 536 456 890 356 747 b 639 163 356 285 486 163 b 864 281 743 163 817 219 b 929 324 882 304 901 324 b 982 269 961 324 982 299 b 957 194 982 249 972 224 b 525 -31 908 100 767 -31 "},"Ć":{"ha":1007,"x_min":0,"x_max":0,"o":"m 469 1051 b 422 1081 439 1051 422 1065 b 436 1118 422 1092 429 1107 b 542 1274 476 1181 511 1231 b 657 1317 563 1304 585 1317 b 763 1275 747 1317 763 1301 b 703 1196 763 1247 744 1231 b 550 1078 654 1156 610 1122 b 469 1051 524 1058 494 1051 m 525 -31 b 38 471 265 -31 38 160 b 517 1025 38 815 279 1025 b 736 990 613 1025 696 990 b 818 1031 771 990 785 1031 b 890 953 850 1031 869 1008 l 946 801 b 979 683 968 742 979 707 b 925 625 979 643 953 625 b 864 664 899 625 883 638 b 589 890 760 810 682 890 b 356 536 456 890 356 747 b 639 163 356 285 486 163 b 864 281 743 163 817 219 b 929 324 882 304 901 324 b 982 269 961 324 982 299 b 957 194 982 249 972 224 b 525 -31 908 100 767 -31 "},"Č":{"ha":1007,"x_min":0,"x_max":0,"o":"m 421 1114 b 318 1240 382 1156 350 1196 b 299 1286 304 1260 299 1272 b 353 1328 299 1306 318 1328 b 419 1299 369 1328 390 1324 l 535 1201 l 650 1299 b 717 1328 679 1324 700 1328 b 771 1286 751 1328 771 1306 b 751 1240 771 1272 765 1260 b 649 1114 719 1196 688 1156 b 535 1069 617 1081 597 1069 b 421 1114 472 1069 453 1081 m 929 324 b 982 269 961 324 982 299 b 957 194 982 249 972 224 b 525 -31 908 100 767 -31 b 38 471 265 -31 38 160 b 517 1025 38 815 279 1025 b 736 990 613 1025 696 990 b 818 1031 771 990 785 1031 b 890 953 850 1031 869 1008 l 946 801 b 979 683 968 742 979 707 b 925 625 979 643 953 625 b 864 664 899 625 883 638 b 589 890 760 810 682 890 b 356 536 456 890 356 747 b 639 163 356 285 486 163 b 864 281 743 163 817 219 b 929 324 882 304 901 324 "},"Ç":{"ha":1007,"x_min":0,"x_max":0,"o":"m 929 324 b 982 269 961 324 982 299 b 957 194 982 249 972 224 b 525 -31 908 100 767 -31 l 508 -31 l 501 -56 b 547 -51 517 -53 532 -51 b 696 -161 635 -51 696 -97 b 524 -279 696 -232 626 -279 b 379 -247 464 -279 417 -268 b 354 -208 360 -236 354 -224 b 385 -175 354 -190 367 -175 b 418 -183 393 -175 404 -179 b 511 -203 449 -193 478 -203 b 568 -172 546 -203 568 -190 b 517 -143 568 -154 551 -143 b 453 -158 497 -143 474 -150 b 396 -111 435 -154 404 -128 l 422 -21 b 38 471 208 22 38 201 b 517 1025 38 815 279 1025 b 736 990 613 1025 696 990 b 818 1031 771 990 785 1031 b 890 953 850 1031 869 1008 l 946 801 b 979 683 968 742 979 707 b 925 625 979 643 953 625 b 864 664 899 625 883 638 b 589 890 760 810 682 890 b 356 536 456 890 356 747 b 639 163 356 285 486 163 b 864 281 743 163 817 219 b 929 324 882 304 901 324 "},"Ĉ":{"ha":1007,"x_min":0,"x_max":0,"o":"m 353 1061 b 299 1103 318 1061 299 1083 b 318 1149 299 1117 304 1129 b 421 1275 350 1193 382 1233 b 535 1319 453 1308 472 1319 b 649 1275 597 1319 617 1308 b 751 1149 688 1233 719 1193 b 771 1103 765 1129 771 1117 b 717 1061 771 1083 751 1061 b 650 1090 700 1061 679 1065 l 535 1188 l 419 1090 b 353 1061 390 1065 369 1061 m 929 324 b 982 269 961 324 982 299 b 957 194 982 249 972 224 b 525 -31 908 100 767 -31 b 38 471 265 -31 38 160 b 517 1025 38 815 279 1025 b 736 990 613 1025 696 990 b 818 1031 771 990 785 1031 b 890 953 850 1031 869 1008 l 946 801 b 979 683 968 742 979 707 b 925 625 979 643 953 625 b 864 664 899 625 883 638 b 589 890 760 810 682 890 b 356 536 456 890 356 747 b 639 163 356 285 486 163 b 864 281 743 163 817 219 b 929 324 882 304 901 324 "},"Ċ":{"ha":1007,"x_min":0,"x_max":0,"o":"m 531 1061 b 404 1175 458 1061 404 1111 b 532 1293 404 1244 457 1293 b 657 1178 604 1293 657 1244 b 531 1061 657 1111 606 1061 m 525 -31 b 38 471 265 -31 38 160 b 517 1025 38 815 279 1025 b 736 990 613 1025 696 990 b 818 1031 771 990 785 1031 b 890 953 850 1031 869 1008 l 946 801 b 979 683 968 742 979 707 b 925 625 979 643 953 625 b 864 664 899 625 883 638 b 589 890 760 810 682 890 b 356 536 456 890 356 747 b 639 163 356 285 486 163 b 864 281 743 163 817 219 b 929 324 882 304 901 324 b 982 269 961 324 982 299 b 957 194 982 249 972 224 b 525 -31 908 100 767 -31 "},"D":{"ha":1154,"x_min":0,"x_max":0,"o":"m 586 -7 b 274 0 482 -7 378 0 b 106 -4 178 0 143 -4 b 44 44 63 -4 44 19 b 125 182 44 107 125 82 l 125 813 b 44 950 125 913 44 888 b 106 999 44 975 63 999 b 274 994 143 999 178 994 b 529 1006 358 994 444 1006 b 1118 490 838 1006 1118 826 b 586 -7 1118 210 922 -7 m 529 126 b 790 490 700 126 790 239 b 521 868 790 750 672 868 l 492 868 b 422 803 440 868 422 847 l 422 192 b 492 126 422 147 440 126 "},"Ð":{"ha":1157,"x_min":0,"x_max":0,"o":"m 532 1006 b 1121 490 840 1006 1121 826 b 589 -7 1121 210 925 -7 b 276 0 485 -7 381 0 b 108 -4 181 0 146 -4 b 47 44 65 -4 47 19 b 128 182 47 107 128 82 l 128 446 l 89 446 b 26 511 40 446 26 467 b 89 576 26 554 40 576 l 128 576 l 128 813 b 47 950 128 913 47 888 b 108 999 47 975 65 999 b 276 994 146 999 181 994 b 532 1006 361 994 447 1006 m 532 126 b 793 490 703 126 793 239 b 524 868 793 750 675 868 l 494 868 b 425 803 443 868 425 847 l 425 576 l 589 576 b 651 511 638 576 651 554 b 589 446 651 467 638 446 l 425 446 l 425 192 b 494 126 425 147 443 126 l 532 126 "},"Ď":{"ha":1154,"x_min":0,"x_max":0,"o":"m 403 1114 b 300 1240 364 1156 332 1196 b 281 1286 286 1260 281 1272 b 335 1328 281 1306 300 1328 b 401 1299 351 1328 372 1324 l 517 1201 l 632 1299 b 699 1328 661 1324 682 1328 b 753 1286 733 1328 753 1306 b 733 1240 753 1272 747 1260 b 631 1114 701 1196 669 1156 b 517 1069 599 1081 579 1069 b 403 1114 454 1069 435 1081 m 529 1006 b 1118 490 838 1006 1118 826 b 586 -7 1118 210 922 -7 b 274 0 482 -7 378 0 b 106 -4 178 0 143 -4 b 44 44 63 -4 44 19 b 125 182 44 107 125 82 l 125 813 b 44 950 125 913 44 888 b 106 999 44 975 63 999 b 274 994 143 999 178 994 b 529 1006 358 994 444 1006 m 529 126 b 790 490 700 126 790 239 b 521 868 790 750 672 868 l 492 868 b 422 803 440 868 422 847 l 422 192 b 492 126 422 147 440 126 l 529 126 "},"Đ":{"ha":1157,"x_min":0,"x_max":0,"o":"m 532 1006 b 1121 490 840 1006 1121 826 b 589 -7 1121 210 925 -7 b 276 0 485 -7 381 0 b 108 -4 181 0 146 -4 b 47 44 65 -4 47 19 b 128 182 47 107 128 82 l 128 446 l 89 446 b 26 511 40 446 26 467 b 89 576 26 554 40 576 l 128 576 l 128 813 b 47 950 128 913 47 888 b 108 999 47 975 65 999 b 276 994 146 999 181 994 b 532 1006 361 994 447 1006 m 532 126 b 793 490 703 126 793 239 b 524 868 793 750 675 868 l 494 868 b 425 803 443 868 425 847 l 425 576 l 589 576 b 651 511 638 576 651 554 b 589 446 651 467 638 446 l 425 446 l 425 192 b 494 126 425 147 443 126 l 532 126 "},"E":{"ha":1014,"x_min":0,"x_max":0,"o":"m 954 354 b 1004 299 979 354 1004 333 b 967 186 1004 264 992 239 l 899 38 b 817 -36 874 -15 851 -36 b 699 0 775 -36 767 0 l 274 0 b 106 -4 178 0 143 -4 b 44 44 63 -4 44 19 b 125 182 44 107 125 82 l 125 813 b 44 950 125 913 44 888 b 106 999 44 975 63 999 b 274 994 142 999 176 994 l 644 994 b 763 1031 713 994 721 1031 b 844 957 797 1031 821 1010 l 906 818 b 943 706 929 765 943 740 b 893 650 943 671 918 650 b 829 690 868 650 853 665 b 557 864 732 793 672 864 l 492 864 b 422 799 440 864 422 843 l 422 608 b 467 569 422 581 432 569 l 501 569 b 644 668 581 569 585 668 b 696 604 676 668 696 649 b 692 504 696 571 692 538 b 696 404 692 471 696 438 b 644 340 696 360 676 340 b 501 439 585 340 581 439 l 467 439 b 422 400 432 439 422 428 l 422 196 b 492 131 422 151 440 131 l 599 131 b 890 314 718 131 789 199 b 954 354 913 340 929 354 "},"":{"ha":1014,"x_min":0,"x_max":0,"o":"m 954 354 b 890 314 929 354 913 340 b 599 131 789 199 718 131 l 492 131 b 422 196 440 131 422 151 l 422 400 b 467 439 422 428 432 439 l 501 439 b 644 340 581 439 585 340 b 696 404 676 340 696 360 b 692 504 696 438 692 471 b 696 604 692 538 696 571 b 644 668 696 649 676 668 b 501 569 585 668 581 569 l 467 569 b 422 608 432 569 422 581 l 422 799 b 492 864 422 843 440 864 l 557 864 b 829 690 672 864 732 793 b 893 650 853 665 868 650 b 943 706 918 650 943 671 b 906 818 943 740 929 765 l 844 957 b 763 1031 821 1010 797 1031 b 644 994 721 1031 713 994 l 274 994 b 106 999 176 994 142 999 b 44 950 63 999 44 975 b 125 813 44 888 125 913 l 125 182 b 44 44 125 82 44 107 b 106 -4 44 19 63 -4 b 274 0 143 -4 178 0 l 699 0 b 817 -36 767 0 775 -36 b 899 38 851 -36 874 -15 l 967 186 b 1004 299 992 239 1004 264 b 954 354 1004 333 979 354 "},"É":{"ha":1014,"x_min":0,"x_max":0,"o":"m 438 1051 b 390 1081 407 1051 390 1065 b 404 1118 390 1092 397 1107 b 510 1274 444 1181 479 1231 b 625 1317 531 1304 553 1317 b 731 1275 715 1317 731 1301 b 671 1196 731 1247 713 1231 b 518 1078 622 1156 578 1122 b 438 1051 492 1058 463 1051 m 954 354 b 1004 299 979 354 1004 333 b 967 186 1004 264 992 239 l 899 38 b 817 -36 874 -15 851 -36 b 699 0 775 -36 767 0 l 274 0 b 106 -4 178 0 143 -4 b 44 44 63 -4 44 19 b 125 182 44 107 125 82 l 125 813 b 44 950 125 913 44 888 b 106 999 44 975 63 999 b 274 994 142 999 176 994 l 644 994 b 763 1031 713 994 721 1031 b 844 957 797 1031 821 1010 l 906 818 b 943 706 929 765 943 740 b 893 650 943 671 918 650 b 829 690 868 650 853 665 b 557 864 732 793 672 864 l 492 864 b 422 799 440 864 422 843 l 422 608 b 467 569 422 581 432 569 l 501 569 b 644 668 581 569 585 668 b 696 604 676 668 696 649 b 692 504 696 571 692 538 b 696 404 692 471 696 438 b 644 340 696 360 676 340 b 501 439 585 340 581 439 l 467 439 b 422 400 432 439 422 428 l 422 196 b 492 131 422 151 440 131 l 599 131 b 890 314 718 131 789 199 b 954 354 913 340 929 354 "},"Ĕ":{"ha":1014,"x_min":0,"x_max":0,"o":"m 497 1061 b 285 1199 396 1061 324 1115 b 265 1272 271 1228 265 1250 b 317 1318 265 1301 289 1318 b 393 1264 349 1318 368 1296 b 497 1197 424 1225 457 1197 b 601 1264 538 1197 571 1225 b 678 1318 626 1296 646 1318 b 729 1272 706 1318 729 1301 b 710 1199 729 1250 724 1228 b 497 1061 671 1115 599 1061 m 954 354 b 1004 299 979 354 1004 333 b 967 186 1004 264 992 239 l 899 38 b 817 -36 874 -15 851 -36 b 699 0 775 -36 767 0 l 274 0 b 106 -4 178 0 143 -4 b 44 44 63 -4 44 19 b 125 182 44 107 125 82 l 125 813 b 44 950 125 913 44 888 b 106 999 44 975 63 999 b 274 994 142 999 176 994 l 644 994 b 763 1031 713 994 721 1031 b 844 957 797 1031 821 1010 l 906 818 b 943 706 929 765 943 740 b 893 650 943 671 918 650 b 829 690 868 650 853 665 b 557 864 732 793 672 864 l 492 864 b 422 799 440 864 422 843 l 422 608 b 467 569 422 581 432 569 l 501 569 b 644 668 581 569 585 668 b 696 604 676 668 696 649 b 692 504 696 571 692 538 b 696 404 692 471 696 438 b 644 340 696 360 676 340 b 501 439 585 340 581 439 l 467 439 b 422 400 432 439 422 428 l 422 196 b 492 131 422 151 440 131 l 599 131 b 890 314 718 131 789 199 b 954 354 913 340 929 354 "},"Ě":{"ha":1014,"x_min":0,"x_max":0,"o":"m 389 1114 b 286 1240 350 1156 318 1196 b 267 1286 272 1260 267 1272 b 321 1328 267 1306 286 1328 b 388 1299 338 1328 358 1324 l 503 1201 l 618 1299 b 685 1328 647 1324 668 1328 b 739 1286 719 1328 739 1306 b 719 1240 739 1272 733 1260 b 617 1114 688 1196 656 1156 b 503 1069 585 1081 565 1069 b 389 1114 440 1069 421 1081 m 954 354 b 1004 299 979 354 1004 333 b 967 186 1004 264 992 239 l 899 38 b 817 -36 874 -15 851 -36 b 699 0 775 -36 767 0 l 274 0 b 106 -4 178 0 143 -4 b 44 44 63 -4 44 19 b 125 182 44 107 125 82 l 125 813 b 44 950 125 913 44 888 b 106 999 44 975 63 999 b 274 994 142 999 176 994 l 644 994 b 763 1031 713 994 721 1031 b 844 957 797 1031 821 1010 l 906 818 b 943 706 929 765 943 740 b 893 650 943 671 918 650 b 829 690 868 650 853 665 b 557 864 732 793 672 864 l 492 864 b 422 799 440 864 422 843 l 422 608 b 467 569 422 581 432 569 l 501 569 b 644 668 581 569 585 668 b 696 604 676 668 696 649 b 692 504 696 571 692 538 b 696 404 692 471 696 438 b 644 340 696 360 676 340 b 501 439 585 340 581 439 l 467 439 b 422 400 432 439 422 428 l 422 196 b 492 131 422 151 440 131 l 599 131 b 890 314 718 131 789 199 b 954 354 913 340 929 354 "},"Ê":{"ha":1014,"x_min":0,"x_max":0,"o":"m 321 1061 b 267 1103 286 1061 267 1083 b 286 1149 267 1117 272 1129 b 389 1275 318 1193 350 1233 b 503 1319 421 1308 440 1319 b 617 1275 565 1319 585 1308 b 719 1149 656 1233 688 1193 b 739 1103 733 1129 739 1117 b 685 1061 739 1083 719 1061 b 618 1090 668 1061 647 1065 l 503 1188 l 388 1090 b 321 1061 358 1065 338 1061 m 954 354 b 1004 299 979 354 1004 333 b 967 186 1004 264 992 239 l 899 38 b 817 -36 874 -15 851 -36 b 699 0 775 -36 767 0 l 274 0 b 106 -4 178 0 143 -4 b 44 44 63 -4 44 19 b 125 182 44 107 125 82 l 125 813 b 44 950 125 913 44 888 b 106 999 44 975 63 999 b 274 994 142 999 176 994 l 644 994 b 763 1031 713 994 721 1031 b 844 957 797 1031 821 1010 l 906 818 b 943 706 929 765 943 740 b 893 650 943 671 918 650 b 829 690 868 650 853 665 b 557 864 732 793 672 864 l 492 864 b 422 799 440 864 422 843 l 422 608 b 467 569 422 581 432 569 l 501 569 b 644 668 581 569 585 668 b 696 604 676 668 696 649 b 692 504 696 571 692 538 b 696 404 692 471 696 438 b 644 340 696 360 676 340 b 501 439 585 340 581 439 l 467 439 b 422 400 432 439 422 428 l 422 196 b 492 131 422 151 440 131 l 599 131 b 890 314 718 131 789 199 b 954 354 913 340 929 354 "},"Ë":{"ha":1014,"x_min":0,"x_max":0,"o":"m 335 1061 b 208 1175 263 1061 208 1111 b 338 1293 208 1244 263 1293 b 461 1178 410 1293 461 1244 b 335 1061 461 1111 410 1061 m 657 1063 b 533 1175 586 1063 533 1111 b 661 1292 533 1244 586 1292 b 783 1178 732 1292 783 1244 b 657 1063 783 1111 732 1063 m 954 354 b 1004 299 979 354 1004 333 b 967 186 1004 264 992 239 l 899 38 b 817 -36 874 -15 851 -36 b 699 0 775 -36 767 0 l 274 0 b 106 -4 178 0 143 -4 b 44 44 63 -4 44 19 b 125 182 44 107 125 82 l 125 813 b 44 950 125 913 44 888 b 106 999 44 975 63 999 b 274 994 142 999 176 994 l 644 994 b 763 1031 713 994 721 1031 b 844 957 797 1031 821 1010 l 906 818 b 943 706 929 765 943 740 b 893 650 943 671 918 650 b 829 690 868 650 853 665 b 557 864 732 793 672 864 l 492 864 b 422 799 440 864 422 843 l 422 608 b 467 569 422 581 432 569 l 501 569 b 644 668 581 569 585 668 b 696 604 676 668 696 649 b 692 504 696 571 692 538 b 696 404 692 471 696 438 b 644 340 696 360 676 340 b 501 439 585 340 581 439 l 467 439 b 422 400 432 439 422 428 l 422 196 b 492 131 422 151 440 131 l 599 131 b 890 314 718 131 789 199 b 954 354 913 340 929 354 "},"Ė":{"ha":1014,"x_min":0,"x_max":0,"o":"m 499 1061 b 372 1175 426 1061 372 1111 b 500 1293 372 1244 425 1293 b 625 1178 572 1293 625 1244 b 499 1061 625 1111 574 1061 m 954 354 b 1004 299 979 354 1004 333 b 967 186 1004 264 992 239 l 899 38 b 817 -36 874 -15 851 -36 b 699 0 775 -36 767 0 l 274 0 b 106 -4 178 0 143 -4 b 44 44 63 -4 44 19 b 125 182 44 107 125 82 l 125 813 b 44 950 125 913 44 888 b 106 999 44 975 63 999 b 274 994 142 999 176 994 l 644 994 b 763 1031 713 994 721 1031 b 844 957 797 1031 821 1010 l 906 818 b 943 706 929 765 943 740 b 893 650 943 671 918 650 b 829 690 868 650 853 665 b 557 864 732 793 672 864 l 492 864 b 422 799 440 864 422 843 l 422 608 b 467 569 422 581 432 569 l 501 569 b 644 668 581 569 585 668 b 696 604 676 668 696 649 b 692 504 696 571 692 538 b 696 404 692 471 696 438 b 644 340 696 360 676 340 b 501 439 585 340 581 439 l 467 439 b 422 400 432 439 422 428 l 422 196 b 492 131 422 151 440 131 l 599 131 b 890 314 718 131 789 199 b 954 354 913 340 929 354 "},"È":{"ha":1014,"x_min":0,"x_max":0,"o":"m 313 1196 b 253 1275 271 1231 253 1247 b 358 1317 253 1301 268 1317 b 474 1274 431 1317 453 1304 b 579 1118 503 1231 540 1181 b 593 1081 586 1107 593 1092 b 546 1051 593 1065 576 1051 b 465 1078 521 1051 492 1058 b 313 1196 406 1122 361 1156 m 954 354 b 1004 299 979 354 1004 333 b 967 186 1004 264 992 239 l 899 38 b 817 -36 874 -15 851 -36 b 699 0 775 -36 767 0 l 274 0 b 106 -4 178 0 143 -4 b 44 44 63 -4 44 19 b 125 182 44 107 125 82 l 125 813 b 44 950 125 913 44 888 b 106 999 44 975 63 999 b 274 994 142 999 176 994 l 644 994 b 763 1031 713 994 721 1031 b 844 957 797 1031 821 1010 l 906 818 b 943 706 929 765 943 740 b 893 650 943 671 918 650 b 829 690 868 650 853 665 b 557 864 732 793 672 864 l 492 864 b 422 799 440 864 422 843 l 422 608 b 467 569 422 581 432 569 l 501 569 b 644 668 581 569 585 668 b 696 604 676 668 696 649 b 692 504 696 571 692 538 b 696 404 692 471 696 438 b 644 340 696 360 676 340 b 501 439 585 340 581 439 l 467 439 b 422 400 432 439 422 428 l 422 196 b 492 131 422 151 440 131 l 599 131 b 890 314 718 131 789 199 b 954 354 913 340 929 354 "},"Ē":{"ha":1014,"x_min":0,"x_max":0,"o":"m 313 1113 b 263 1179 276 1113 263 1136 b 313 1246 263 1222 276 1246 b 496 1243 368 1246 438 1243 b 679 1246 554 1243 624 1246 b 729 1179 715 1246 729 1222 b 679 1113 729 1136 715 1113 b 496 1115 624 1113 554 1115 b 313 1113 438 1115 368 1113 m 954 354 b 1004 299 979 354 1004 333 b 967 186 1004 264 992 239 l 899 38 b 817 -36 874 -15 851 -36 b 699 0 775 -36 767 0 l 274 0 b 106 -4 178 0 143 -4 b 44 44 63 -4 44 19 b 125 182 44 107 125 82 l 125 813 b 44 950 125 913 44 888 b 106 999 44 975 63 999 b 274 994 142 999 176 994 l 644 994 b 763 1031 713 994 721 1031 b 844 957 797 1031 821 1010 l 906 818 b 943 706 929 765 943 740 b 893 650 943 671 918 650 b 829 690 868 650 853 665 b 557 864 732 793 672 864 l 492 864 b 422 799 440 864 422 843 l 422 608 b 467 569 422 581 432 569 l 501 569 b 644 668 581 569 585 668 b 696 604 676 668 696 649 b 692 504 696 571 692 538 b 696 404 692 471 696 438 b 644 340 696 360 676 340 b 501 439 585 340 581 439 l 467 439 b 422 400 432 439 422 428 l 422 196 b 492 131 422 151 440 131 l 599 131 b 890 314 718 131 789 199 b 954 354 913 340 929 354 "},"Ę":{"ha":1014,"x_min":0,"x_max":0,"o":"m 954 354 b 1004 299 979 354 1004 333 b 967 186 1004 264 992 239 l 899 38 b 817 -36 874 -15 851 -36 b 742 -7 786 -36 774 -17 b 683 -137 704 -49 683 -92 b 713 -179 683 -169 697 -179 b 742 -171 725 -179 735 -175 b 765 -162 750 -167 756 -162 b 797 -197 781 -162 797 -178 b 775 -240 797 -214 790 -228 b 661 -279 750 -261 711 -279 b 539 -161 592 -279 539 -235 b 640 0 539 -104 576 -50 l 274 0 b 106 -4 178 0 143 -4 b 44 44 63 -4 44 19 b 125 182 44 107 125 82 l 125 813 b 44 950 125 913 44 888 b 106 999 44 975 63 999 b 274 994 142 999 176 994 l 644 994 b 763 1031 713 994 721 1031 b 844 957 797 1031 821 1010 l 906 818 b 943 706 929 765 943 740 b 893 650 943 671 918 650 b 829 690 868 650 853 665 b 557 864 732 793 672 864 l 492 864 b 422 799 440 864 422 843 l 422 608 b 467 569 422 581 432 569 l 501 569 b 644 668 581 569 585 668 b 696 604 676 668 696 649 b 692 504 696 571 692 538 b 696 404 692 471 696 438 b 644 340 696 360 676 340 b 501 439 585 340 581 439 l 467 439 b 422 400 432 439 422 428 l 422 196 b 492 131 422 151 440 131 l 599 131 b 890 314 718 131 789 199 b 954 354 913 340 929 354 "},"F":{"ha":936,"x_min":0,"x_max":0,"o":"m 903 818 b 940 706 926 765 940 740 b 890 650 940 671 915 650 b 826 690 865 650 850 665 b 564 864 729 793 665 864 l 492 864 b 422 799 440 864 422 843 l 422 588 b 467 549 422 560 432 549 l 539 549 b 682 654 618 549 622 654 b 733 590 714 654 733 635 b 729 483 733 557 729 517 b 733 374 729 450 733 407 b 682 310 733 329 714 310 b 539 418 622 310 618 418 l 467 418 b 422 379 432 418 422 407 l 422 182 b 519 44 422 82 519 107 b 458 -4 519 19 501 -4 b 279 0 418 -4 381 0 b 106 -4 181 0 143 -4 b 44 44 63 -4 44 19 b 125 182 44 107 125 82 l 125 813 b 44 950 125 913 44 888 b 106 999 44 975 63 999 b 274 994 143 999 178 994 l 642 994 b 760 1031 710 994 718 1031 b 842 957 794 1031 818 1010 l 903 818 "},"G":{"ha":1092,"x_min":0,"x_max":0,"o":"m 593 -31 b 36 472 278 -31 36 142 b 514 1025 36 810 288 1025 b 753 990 629 1025 713 990 b 835 1031 788 990 801 1031 b 907 953 867 1031 889 1008 l 957 801 b 990 683 976 742 990 713 b 936 625 990 643 964 625 b 875 664 910 625 894 638 b 599 890 768 808 699 890 b 364 489 429 890 364 683 b 636 111 364 297 433 111 b 700 158 675 111 700 131 l 700 313 b 619 450 700 413 619 388 b 681 499 619 475 638 499 l 1010 499 b 1071 450 1053 499 1071 475 b 990 313 1071 388 990 413 l 990 192 b 1031 81 990 119 1031 122 b 978 26 1031 56 1017 40 b 593 -31 917 4 769 -31 "},"Ğ":{"ha":1092,"x_min":0,"x_max":0,"o":"m 554 1061 b 342 1199 453 1061 381 1115 b 322 1272 328 1228 322 1250 b 374 1318 322 1301 346 1318 b 450 1264 406 1318 425 1296 b 554 1197 481 1225 514 1197 b 658 1264 594 1197 628 1225 b 735 1318 683 1296 703 1318 b 786 1272 763 1318 786 1301 b 767 1199 786 1250 781 1228 b 554 1061 728 1115 656 1061 m 593 -31 b 36 472 278 -31 36 142 b 514 1025 36 810 288 1025 b 753 990 629 1025 713 990 b 835 1031 788 990 801 1031 b 907 953 867 1031 889 1008 l 957 801 b 990 683 976 742 990 713 b 936 625 990 643 964 625 b 875 664 910 625 894 638 b 599 890 768 808 699 890 b 364 489 429 890 364 683 b 636 111 364 297 433 111 b 700 158 675 111 700 131 l 700 313 b 619 450 700 413 619 388 b 681 499 619 475 638 499 l 1010 499 b 1071 450 1053 499 1071 475 b 990 313 1071 388 990 413 l 990 192 b 1031 81 990 119 1031 122 b 978 26 1031 56 1017 40 b 593 -31 917 4 769 -31 "},"Ĝ":{"ha":1092,"x_min":0,"x_max":0,"o":"m 378 1061 b 324 1103 343 1061 324 1083 b 343 1149 324 1117 329 1129 b 446 1275 375 1193 407 1233 b 560 1319 478 1308 497 1319 b 674 1275 622 1319 642 1308 b 776 1149 713 1233 744 1193 b 796 1103 790 1129 796 1117 b 742 1061 796 1083 776 1061 b 675 1090 725 1061 704 1065 l 560 1188 l 444 1090 b 378 1061 415 1065 394 1061 m 1071 450 b 990 313 1071 388 990 413 l 990 192 b 1031 81 990 119 1031 122 b 978 26 1031 56 1017 40 b 593 -31 917 4 769 -31 b 36 472 278 -31 36 142 b 514 1025 36 810 288 1025 b 753 990 629 1025 713 990 b 835 1031 788 990 801 1031 b 907 953 867 1031 889 1008 l 957 801 b 990 683 976 742 990 713 b 936 625 990 643 964 625 b 875 664 910 625 894 638 b 599 890 768 808 699 890 b 364 489 429 890 364 683 b 636 111 364 297 433 111 b 700 158 675 111 700 131 l 700 313 b 619 450 700 413 619 388 b 681 499 619 475 638 499 l 1010 499 b 1071 450 1053 499 1071 475 "},"Ģ":{"ha":1092,"x_min":0,"x_max":0,"o":"m 593 -31 b 36 472 278 -31 36 142 b 514 1025 36 810 288 1025 b 753 990 629 1025 713 990 b 835 1031 788 990 801 1031 b 907 953 867 1031 889 1008 l 957 801 b 990 683 976 742 990 713 b 936 625 990 643 964 625 b 875 664 910 625 894 638 b 599 890 768 808 699 890 b 364 489 429 890 364 683 b 636 111 364 297 433 111 b 700 158 675 111 700 131 l 700 313 b 619 450 700 413 619 388 b 681 499 619 475 638 499 l 1010 499 b 1071 450 1053 499 1071 475 b 990 313 1071 388 990 413 l 990 192 b 1031 81 990 119 1031 122 b 978 26 1031 56 1017 40 b 593 -31 917 4 769 -31 m 546 -385 b 513 -356 525 -385 513 -372 b 542 -317 513 -337 526 -329 b 579 -261 561 -301 579 -281 b 535 -224 579 -240 554 -233 b 482 -150 508 -211 482 -196 b 601 -51 482 -96 533 -51 b 711 -164 675 -51 711 -89 b 546 -385 711 -271 607 -385 "},"Ġ":{"ha":1092,"x_min":0,"x_max":0,"o":"m 556 1061 b 429 1175 483 1061 429 1111 b 557 1293 429 1244 482 1293 b 682 1178 629 1293 682 1244 b 556 1061 682 1111 631 1061 m 593 -31 b 36 472 278 -31 36 142 b 514 1025 36 810 288 1025 b 753 990 629 1025 713 990 b 835 1031 788 990 801 1031 b 907 953 867 1031 889 1008 l 957 801 b 990 683 976 742 990 713 b 936 625 990 643 964 625 b 875 664 910 625 894 638 b 599 890 768 808 699 890 b 364 489 429 890 364 683 b 636 111 364 297 433 111 b 700 158 675 111 700 131 l 700 313 b 619 450 700 413 619 388 b 681 499 619 475 638 499 l 1010 499 b 1071 450 1053 499 1071 475 b 990 313 1071 388 990 413 l 990 192 b 1031 81 990 119 1031 122 b 978 26 1031 56 1017 40 b 593 -31 917 4 769 -31 "},"H":{"ha":1181,"x_min":0,"x_max":0,"o":"m 1056 182 b 1136 44 1056 82 1136 107 b 1075 -4 1136 19 1118 -4 b 907 0 1038 -4 1003 0 b 739 -4 811 0 776 -4 b 678 44 696 -4 678 19 b 758 182 678 107 758 82 l 758 400 b 714 439 758 428 749 439 l 467 439 b 422 400 432 439 422 428 l 422 182 b 503 44 422 82 503 107 b 442 -4 503 19 485 -4 b 274 0 404 -4 369 0 b 106 -4 178 0 143 -4 b 44 44 63 -4 44 19 b 125 182 44 107 125 82 l 125 813 b 44 950 125 913 44 888 b 113 999 44 975 69 999 b 274 994 150 999 178 994 b 442 999 369 994 404 999 b 503 950 485 999 503 975 b 422 813 503 888 422 913 l 422 608 b 467 569 422 581 432 569 l 714 569 b 758 608 749 569 758 581 l 758 813 b 678 950 758 913 678 888 b 739 999 678 975 696 999 b 907 994 776 999 811 994 b 1075 999 1003 994 1038 999 b 1136 950 1118 999 1136 975 b 1056 813 1136 888 1056 913 l 1056 182 "},"Ħ":{"ha":1189,"x_min":0,"x_max":0,"o":"m 1058 663 l 1058 182 b 1139 44 1058 82 1139 107 b 1078 -4 1139 19 1121 -4 b 910 0 1040 -4 1006 0 b 742 -4 814 0 779 -4 b 681 44 699 -4 681 19 b 761 182 681 107 761 82 l 761 400 b 717 439 761 428 751 439 l 469 439 b 425 400 435 439 425 428 l 425 182 b 506 44 425 82 506 107 b 444 -4 506 19 488 -4 b 276 0 407 -4 372 0 b 108 -4 181 0 146 -4 b 47 44 65 -4 47 19 b 128 182 47 107 128 82 l 128 663 l 79 663 b 17 728 31 663 17 683 b 79 793 17 771 31 793 l 128 793 l 128 813 b 47 950 128 913 47 888 b 115 999 47 975 72 999 b 276 994 153 999 181 994 b 444 999 372 994 407 999 b 506 950 488 999 506 975 b 425 813 506 888 425 913 l 425 788 l 761 788 l 761 813 b 681 950 761 913 681 888 b 742 999 681 975 699 999 b 910 994 779 999 814 994 b 1078 999 1006 994 1040 999 b 1139 950 1121 999 1139 975 b 1058 813 1139 888 1058 913 l 1058 793 l 1122 793 b 1185 728 1171 793 1185 771 b 1122 663 1185 683 1171 663 m 717 569 b 761 608 751 569 761 581 l 761 668 l 425 668 l 425 608 b 469 569 425 581 435 569 l 717 569 "},"Ĥ":{"ha":1181,"x_min":0,"x_max":0,"o":"m 413 1061 b 358 1103 378 1061 358 1083 b 378 1149 358 1117 364 1129 b 481 1275 410 1193 442 1233 b 594 1319 513 1308 532 1319 b 708 1275 657 1319 676 1308 b 811 1149 747 1233 779 1193 b 831 1103 825 1129 831 1117 b 776 1061 831 1083 811 1061 b 710 1090 760 1061 739 1065 l 594 1188 l 479 1090 b 413 1061 450 1065 429 1061 m 1056 182 b 1136 44 1056 82 1136 107 b 1075 -4 1136 19 1118 -4 b 907 0 1038 -4 1003 0 b 739 -4 811 0 776 -4 b 678 44 696 -4 678 19 b 758 182 678 107 758 82 l 758 400 b 714 439 758 428 749 439 l 467 439 b 422 400 432 439 422 428 l 422 182 b 503 44 422 82 503 107 b 442 -4 503 19 485 -4 b 274 0 404 -4 369 0 b 106 -4 178 0 143 -4 b 44 44 63 -4 44 19 b 125 182 44 107 125 82 l 125 813 b 44 950 125 913 44 888 b 113 999 44 975 69 999 b 274 994 150 999 178 994 b 442 999 369 994 404 999 b 503 950 485 999 503 975 b 422 813 503 888 422 913 l 422 608 b 467 569 422 581 432 569 l 714 569 b 758 608 749 569 758 581 l 758 813 b 678 950 758 913 678 888 b 739 999 678 975 696 999 b 907 994 776 999 811 994 b 1075 999 1003 994 1038 999 b 1136 950 1118 999 1136 975 b 1056 813 1136 888 1056 913 l 1056 182 "},"I":{"ha":547,"x_min":0,"x_max":0,"o":"m 106 -4 b 44 44 63 -4 44 19 b 125 182 44 107 125 82 l 125 813 b 44 950 125 913 44 888 b 113 999 44 975 69 999 b 274 994 150 999 178 994 b 442 999 369 994 404 999 b 503 950 485 999 503 975 b 422 813 503 888 422 913 l 422 182 b 503 44 422 82 503 107 b 442 -4 503 19 485 -4 b 274 0 404 -4 369 0 b 106 -4 178 0 143 -4 "},"Ĳ":{"ha":1358,"x_min":0,"x_max":0,"o":"m 106 -4 b 44 44 63 -4 44 19 b 125 182 44 107 125 82 l 125 813 b 44 950 125 913 44 888 b 113 999 44 975 69 999 b 274 994 150 999 178 994 b 442 999 369 994 404 999 b 503 950 485 999 503 975 b 422 813 503 888 422 913 l 422 182 b 503 44 422 82 503 107 b 442 -4 503 19 485 -4 b 274 0 404 -4 369 0 b 106 -4 178 0 143 -4 m 904 -22 b 549 143 719 -22 549 60 b 607 336 549 178 565 221 b 676 408 625 388 650 410 b 732 354 708 407 724 388 b 867 117 767 200 785 117 b 953 256 931 117 953 179 l 951 813 b 860 950 953 913 860 888 b 924 999 860 975 881 999 b 1100 994 964 999 999 994 b 1268 999 1196 994 1231 999 b 1329 950 1311 999 1329 975 b 1249 813 1329 888 1250 913 l 1250 246 b 904 -22 1250 89 1149 -22 "},"Í":{"ha":547,"x_min":0,"x_max":0,"o":"m 211 1051 b 164 1081 181 1051 164 1065 b 178 1118 164 1092 171 1107 b 283 1274 218 1181 253 1231 b 399 1317 304 1304 326 1317 b 504 1275 489 1317 504 1301 b 444 1196 504 1247 486 1231 b 292 1078 396 1156 351 1122 b 211 1051 265 1058 236 1051 m 106 -4 b 44 44 63 -4 44 19 b 125 182 44 107 125 82 l 125 813 b 44 950 125 913 44 888 b 113 999 44 975 69 999 b 274 994 150 999 178 994 b 442 999 369 994 404 999 b 503 950 485 999 503 975 b 422 813 503 888 422 913 l 422 182 b 503 44 422 82 503 107 b 442 -4 503 19 485 -4 b 274 0 404 -4 369 0 b 106 -4 178 0 143 -4 "},"Ĭ":{"ha":547,"x_min":0,"x_max":0,"o":"m 271 1061 b 58 1199 169 1061 97 1115 b 39 1272 44 1228 39 1250 b 90 1318 39 1301 63 1318 b 167 1264 122 1318 142 1296 b 271 1197 197 1225 231 1197 b 375 1264 311 1197 344 1225 b 451 1318 400 1296 419 1318 b 503 1272 479 1318 503 1301 b 483 1199 503 1250 497 1228 b 271 1061 444 1115 372 1061 m 106 -4 b 44 44 63 -4 44 19 b 125 182 44 107 125 82 l 125 813 b 44 950 125 913 44 888 b 113 999 44 975 69 999 b 274 994 150 999 178 994 b 442 999 369 994 404 999 b 503 950 485 999 503 975 b 422 813 503 888 422 913 l 422 182 b 503 44 422 82 503 107 b 442 -4 503 19 485 -4 b 274 0 404 -4 369 0 b 106 -4 178 0 143 -4 "},"Î":{"ha":547,"x_min":0,"x_max":0,"o":"m 94 1061 b 40 1103 60 1061 40 1083 b 60 1149 40 1117 46 1129 b 163 1275 92 1193 124 1233 b 276 1319 194 1308 214 1319 b 390 1275 339 1319 358 1308 b 493 1149 429 1233 461 1193 b 513 1103 507 1129 513 1117 b 458 1061 513 1083 493 1061 b 392 1090 442 1061 421 1065 l 276 1188 l 161 1090 b 94 1061 132 1065 111 1061 m 503 950 b 422 813 503 888 422 913 l 422 182 b 503 44 422 82 503 107 b 442 -4 503 19 485 -4 b 274 0 404 -4 369 0 b 106 -4 178 0 143 -4 b 44 44 63 -4 44 19 b 125 182 44 107 125 82 l 125 813 b 44 950 125 913 44 888 b 113 999 44 975 69 999 b 274 994 150 999 178 994 b 442 999 369 994 404 999 b 503 950 485 999 503 975 "},"Ï":{"ha":547,"x_min":0,"x_max":0,"o":"m 108 1061 b -18 1175 36 1061 -18 1111 b 111 1293 -18 1244 36 1293 b 235 1178 183 1293 235 1244 b 108 1061 235 1111 183 1061 m 431 1063 b 307 1175 360 1063 307 1111 b 435 1292 307 1244 360 1292 b 557 1178 506 1292 557 1244 b 431 1063 557 1111 506 1063 m 106 -4 b 44 44 63 -4 44 19 b 125 182 44 107 125 82 l 125 813 b 44 950 125 913 44 888 b 113 999 44 975 69 999 b 274 994 150 999 178 994 b 442 999 369 994 404 999 b 503 950 485 999 503 975 b 422 813 503 888 422 913 l 422 182 b 503 44 422 82 503 107 b 442 -4 503 19 485 -4 b 274 0 404 -4 369 0 b 106 -4 178 0 143 -4 "},"İ":{"ha":547,"x_min":0,"x_max":0,"o":"m 272 1061 b 146 1175 200 1061 146 1111 b 274 1293 146 1244 199 1293 b 399 1178 346 1293 399 1244 b 272 1061 399 1111 347 1061 m 106 -4 b 44 44 63 -4 44 19 b 125 182 44 107 125 82 l 125 813 b 44 950 125 913 44 888 b 113 999 44 975 69 999 b 274 994 150 999 178 994 b 442 999 369 994 404 999 b 503 950 485 999 503 975 b 422 813 503 888 422 913 l 422 182 b 503 44 422 82 503 107 b 442 -4 503 19 485 -4 b 274 0 404 -4 369 0 b 106 -4 178 0 143 -4 "},"Ì":{"ha":547,"x_min":0,"x_max":0,"o":"m 319 1051 b 239 1078 294 1051 265 1058 b 86 1196 179 1122 135 1156 b 26 1275 44 1231 26 1247 b 132 1317 26 1301 42 1317 b 247 1274 204 1317 226 1304 b 353 1118 276 1231 314 1181 b 367 1081 360 1107 367 1092 b 319 1051 367 1065 350 1051 m 106 -4 b 44 44 63 -4 44 19 b 125 182 44 107 125 82 l 125 813 b 44 950 125 913 44 888 b 113 999 44 975 69 999 b 274 994 150 999 178 994 b 442 999 369 994 404 999 b 503 950 485 999 503 975 b 422 813 503 888 422 913 l 422 182 b 503 44 422 82 503 107 b 442 -4 503 19 485 -4 b 274 0 404 -4 369 0 b 106 -4 178 0 143 -4 "},"Ī":{"ha":547,"x_min":0,"x_max":0,"o":"m 86 1113 b 36 1179 50 1113 36 1136 b 86 1246 36 1222 50 1246 b 269 1243 142 1246 211 1243 b 453 1246 328 1243 397 1246 b 503 1179 489 1246 503 1222 b 453 1113 503 1136 489 1113 b 269 1115 397 1113 328 1115 b 86 1113 211 1115 142 1113 m 106 -4 b 44 44 63 -4 44 19 b 125 182 44 107 125 82 l 125 813 b 44 950 125 913 44 888 b 113 999 44 975 69 999 b 274 994 150 999 178 994 b 442 999 369 994 404 999 b 503 950 485 999 503 975 b 422 813 503 888 422 913 l 422 182 b 503 44 422 82 503 107 b 442 -4 503 19 485 -4 b 274 0 404 -4 369 0 b 106 -4 178 0 143 -4 "},"Į":{"ha":547,"x_min":0,"x_max":0,"o":"m 422 182 b 503 44 422 82 503 107 b 442 -4 503 19 485 -4 b 342 -1 415 -4 389 -1 b 278 -137 300 -44 278 -90 b 307 -179 278 -169 292 -179 b 336 -171 319 -179 329 -175 b 360 -162 344 -167 350 -162 b 392 -197 375 -162 392 -178 b 369 -240 392 -214 385 -228 b 256 -279 344 -261 306 -279 b 133 -161 186 -279 133 -235 b 233 0 133 -104 171 -50 b 106 -4 167 -1 138 -4 b 44 44 63 -4 44 19 b 125 182 44 107 125 82 l 125 813 b 44 950 125 913 44 888 b 113 999 44 975 69 999 b 274 994 150 999 178 994 b 442 999 369 994 404 999 b 503 950 485 999 503 975 b 422 813 503 888 422 913 l 422 182 "},"Ĩ":{"ha":547,"x_min":0,"x_max":0,"o":"m 360 1071 b 183 1168 258 1071 219 1168 b 142 1129 167 1168 153 1147 b 85 1083 125 1101 113 1083 b 40 1132 56 1083 40 1101 b 51 1190 40 1144 43 1165 b 183 1301 75 1263 121 1301 b 361 1204 282 1301 321 1204 b 401 1243 375 1204 385 1217 b 458 1289 418 1271 431 1289 b 503 1240 488 1289 503 1271 b 492 1182 503 1228 500 1207 b 360 1071 468 1110 422 1071 m 106 -4 b 44 44 63 -4 44 19 b 125 182 44 107 125 82 l 125 813 b 44 950 125 913 44 888 b 113 999 44 975 69 999 b 274 994 150 999 178 994 b 442 999 369 994 404 999 b 503 950 485 999 503 975 b 422 813 503 888 422 913 l 422 182 b 503 44 422 82 503 107 b 442 -4 503 19 485 -4 b 274 0 404 -4 369 0 b 106 -4 178 0 143 -4 "},"J":{"ha":811,"x_min":0,"x_max":0,"o":"m 357 -22 b 1 143 172 -22 1 60 b 60 336 1 178 18 221 b 129 408 78 388 103 410 b 185 354 161 407 176 388 b 319 117 219 200 238 117 b 406 256 383 117 406 179 l 404 813 b 313 950 406 913 313 888 b 376 999 313 975 333 999 b 553 994 417 999 451 994 b 721 999 649 994 683 999 b 782 950 764 999 782 975 b 701 813 782 888 703 913 l 703 246 b 357 -22 703 89 601 -22 "},"Ĵ":{"ha":811,"x_min":0,"x_max":0,"o":"m 360 1061 b 306 1103 325 1061 306 1083 b 325 1149 306 1117 311 1129 b 428 1275 357 1193 389 1233 b 542 1319 460 1308 479 1319 b 656 1275 604 1319 624 1308 b 758 1149 694 1233 726 1193 b 778 1103 772 1129 778 1117 b 724 1061 778 1083 758 1061 b 657 1090 707 1061 686 1065 l 542 1188 l 426 1090 b 360 1061 397 1065 376 1061 m 721 999 b 782 950 764 999 782 975 b 701 813 782 888 703 913 l 703 246 b 357 -22 703 89 601 -22 b 1 143 172 -22 1 60 b 60 336 1 178 18 221 b 129 408 78 388 103 410 b 185 354 161 407 176 388 b 319 117 219 200 238 117 b 406 256 383 117 406 179 l 404 813 b 313 950 406 913 313 888 b 376 999 313 975 333 999 b 553 994 417 999 451 994 b 721 999 649 994 683 999 "},"K":{"ha":1124,"x_min":0,"x_max":0,"o":"m 1036 167 b 1142 42 1082 90 1142 101 b 1083 -4 1142 18 1124 -4 b 893 0 1046 -4 989 0 b 721 -4 799 0 769 -4 b 650 43 668 -4 650 19 b 708 142 650 101 708 83 b 686 207 708 156 703 181 l 531 461 l 422 358 l 422 182 b 503 44 422 82 503 107 b 442 -4 503 19 485 -4 b 274 0 404 -4 369 0 b 106 -4 178 0 143 -4 b 44 44 63 -4 44 19 b 125 182 44 107 125 82 l 125 813 b 44 950 125 913 44 888 b 113 999 44 975 69 999 b 274 994 150 999 178 994 b 442 999 369 994 404 999 b 503 950 485 999 503 975 b 422 813 503 888 422 913 l 422 540 l 706 824 b 739 878 729 847 739 858 b 669 950 739 911 669 899 b 742 997 669 981 697 997 b 893 993 789 997 854 993 b 1056 997 933 993 1008 997 b 1104 956 1086 997 1104 979 b 936 849 1104 892 1011 919 l 740 663 l 1036 167 "},"Ķ":{"ha":1124,"x_min":0,"x_max":0,"o":"m 1036 167 b 1142 42 1082 90 1142 101 b 1083 -4 1142 18 1124 -4 b 893 0 1046 -4 989 0 b 721 -4 799 0 769 -4 b 650 43 668 -4 650 19 b 708 142 650 101 708 83 b 686 207 708 156 703 181 l 531 461 l 422 358 l 422 182 b 503 44 422 82 503 107 b 442 -4 503 19 485 -4 b 274 0 404 -4 369 0 b 106 -4 178 0 143 -4 b 44 44 63 -4 44 19 b 125 182 44 107 125 82 l 125 813 b 44 950 125 913 44 888 b 113 999 44 975 69 999 b 274 994 150 999 178 994 b 442 999 369 994 404 999 b 503 950 485 999 503 975 b 422 813 503 888 422 913 l 422 540 l 706 824 b 739 878 729 847 739 858 b 669 950 739 911 669 899 b 742 997 669 981 697 997 b 893 993 789 997 854 993 b 1056 997 933 993 1008 997 b 1104 956 1086 997 1104 979 b 936 849 1104 892 1011 919 l 740 663 l 1036 167 m 550 -51 b 660 -164 624 -51 660 -89 b 494 -385 660 -271 556 -385 b 461 -356 474 -385 461 -372 b 490 -317 461 -337 475 -329 b 528 -261 510 -301 528 -281 b 483 -224 528 -240 503 -233 b 431 -150 457 -211 431 -196 b 550 -51 431 -96 482 -51 "},"L":{"ha":932,"x_min":0,"x_max":0,"o":"m 747 -36 b 629 0 706 -36 697 0 l 274 0 b 106 -4 178 0 143 -4 b 44 44 63 -4 44 19 b 125 182 44 107 125 82 l 125 813 b 44 950 125 913 44 888 b 113 999 44 975 69 999 b 274 994 150 999 178 994 b 442 999 369 994 404 999 b 503 950 485 999 503 975 b 422 813 503 888 422 913 l 422 196 b 492 131 422 151 440 131 l 543 131 b 822 321 636 131 718 204 b 888 363 846 347 863 363 b 939 306 914 363 939 340 b 900 190 939 269 925 244 l 831 39 b 747 -36 806 -15 783 -36 "},"Ĺ":{"ha":932,"x_min":0,"x_max":0,"o":"m 285 1051 b 238 1081 254 1051 238 1065 b 251 1118 238 1092 244 1107 b 357 1274 292 1181 326 1231 b 472 1317 378 1304 400 1317 b 578 1275 563 1317 578 1301 b 518 1196 578 1247 560 1231 b 365 1078 469 1156 425 1122 b 285 1051 339 1058 310 1051 m 747 -36 b 629 0 706 -36 697 0 l 274 0 b 106 -4 178 0 143 -4 b 44 44 63 -4 44 19 b 125 182 44 107 125 82 l 125 813 b 44 950 125 913 44 888 b 113 999 44 975 69 999 b 274 994 150 999 178 994 b 442 999 369 994 404 999 b 503 950 485 999 503 975 b 422 813 503 888 422 913 l 422 196 b 492 131 422 151 440 131 l 543 131 b 822 321 636 131 718 204 b 888 363 846 347 863 363 b 939 306 914 363 939 340 b 900 190 939 269 925 244 l 831 39 b 747 -36 806 -15 783 -36 "},"Ľ":{"ha":932,"x_min":0,"x_max":0,"o":"m 593 657 b 549 703 565 657 549 668 l 550 993 b 610 1049 550 1035 561 1049 b 704 994 678 1049 704 1035 b 649 700 704 910 674 776 b 593 657 638 668 618 657 m 747 -36 b 629 0 706 -36 697 0 l 274 0 b 106 -4 178 0 143 -4 b 44 44 63 -4 44 19 b 125 182 44 107 125 82 l 125 813 b 44 950 125 913 44 888 b 113 999 44 975 69 999 b 274 994 150 999 178 994 b 442 999 369 994 404 999 b 503 950 485 999 503 975 b 422 813 503 888 422 913 l 422 196 b 492 131 422 151 440 131 l 543 131 b 822 321 636 131 718 204 b 888 363 846 347 863 363 b 939 306 914 363 939 340 b 900 190 939 269 925 244 l 831 39 b 747 -36 806 -15 783 -36 "},"Ļ":{"ha":932,"x_min":0,"x_max":0,"o":"m 747 -36 b 629 0 706 -36 697 0 l 274 0 b 106 -4 178 0 143 -4 b 44 44 63 -4 44 19 b 125 182 44 107 125 82 l 125 813 b 44 950 125 913 44 888 b 113 999 44 975 69 999 b 274 994 150 999 178 994 b 442 999 369 994 404 999 b 503 950 485 999 503 975 b 422 813 503 888 422 913 l 422 196 b 492 131 422 151 440 131 l 543 131 b 822 321 636 131 718 204 b 888 363 846 347 863 363 b 939 306 914 363 939 340 b 900 190 939 269 925 244 l 831 39 b 747 -36 806 -15 783 -36 m 429 -385 b 396 -356 408 -385 396 -372 b 425 -317 396 -337 410 -329 b 463 -261 444 -301 463 -281 b 418 -224 463 -240 438 -233 b 365 -150 392 -211 365 -196 b 485 -51 365 -96 417 -51 b 594 -164 558 -51 594 -89 b 429 -385 594 -271 490 -385 "},"Ŀ":{"ha":932,"x_min":0,"x_max":0,"o":"m 747 -36 b 629 0 706 -36 697 0 l 274 0 b 106 -4 178 0 143 -4 b 44 44 63 -4 44 19 b 125 182 44 107 125 82 l 125 813 b 44 950 125 913 44 888 b 113 999 44 975 69 999 b 274 994 150 999 178 994 b 442 999 369 994 404 999 b 503 950 485 999 503 975 b 422 813 503 888 422 913 l 422 196 b 492 131 422 151 440 131 l 543 131 b 822 321 636 131 718 204 b 888 363 846 347 863 363 b 939 306 914 363 939 340 b 900 190 939 269 925 244 l 831 39 b 747 -36 806 -15 783 -36 m 704 642 b 571 528 625 642 571 589 b 686 429 571 468 615 429 b 819 543 765 429 819 482 b 704 642 819 603 775 642 "},"Ł":{"ha":971,"x_min":0,"x_max":0,"o":"m 926 363 b 978 306 953 363 978 340 b 939 190 978 269 964 244 l 869 39 b 786 -36 844 -15 822 -36 b 668 0 744 -36 736 0 l 313 0 b 144 -4 217 0 182 -4 b 83 44 101 -4 83 19 b 164 182 83 107 164 82 l 164 356 l 121 333 b 83 322 107 326 94 322 b 25 399 56 322 25 357 b 63 449 25 419 36 435 l 164 500 l 164 813 b 83 950 164 913 83 888 b 151 999 83 975 108 999 b 313 994 189 999 217 994 b 481 999 408 994 443 999 b 542 950 524 999 542 975 b 461 813 542 888 461 913 l 461 651 l 596 721 b 635 732 610 728 622 732 b 693 656 660 732 693 696 b 654 606 693 633 681 619 l 461 507 l 461 196 b 531 131 461 151 479 131 l 582 131 b 861 321 675 131 757 204 b 926 363 885 347 901 363 "},"M":{"ha":1453,"x_min":0,"x_max":0,"o":"m 1349 179 b 1456 43 1368 86 1456 107 b 1394 -4 1456 17 1436 -4 b 1219 0 1356 -4 1301 0 b 1025 -4 1135 0 1074 -4 b 953 43 981 -4 953 13 b 1047 153 953 108 1047 83 b 1040 211 1047 169 1044 190 l 971 556 l 760 121 b 679 65 740 82 711 65 b 597 119 640 65 617 83 l 353 564 l 288 211 b 281 153 283 189 281 169 b 375 43 281 85 375 108 b 306 -4 375 13 347 -4 b 175 0 261 -4 214 0 b 63 -4 135 0 94 -4 b -1 43 18 -4 -1 14 b 115 183 -1 104 97 86 l 207 667 b 221 789 218 725 221 767 b 136 950 221 899 136 886 b 211 999 136 975 149 999 b 385 994 238 999 314 994 b 544 999 463 994 501 999 b 606 947 585 999 606 976 b 542 840 606 896 542 893 b 590 714 542 810 563 767 l 738 433 l 874 714 b 911 832 896 760 911 801 b 843 946 911 896 843 893 b 904 999 843 978 867 999 b 1083 994 947 999 994 994 b 1231 999 1151 994 1194 999 b 1292 950 1274 999 1292 975 b 1221 824 1292 889 1221 899 b 1246 667 1221 789 1228 753 l 1349 179 "},"N":{"ha":1094,"x_min":0,"x_max":0,"o":"m 1006 999 b 1067 950 1049 999 1067 975 b 979 813 1067 888 979 913 l 979 57 b 908 -15 979 6 943 -15 b 804 46 857 -15 835 10 l 286 649 l 286 182 b 399 44 286 85 399 118 b 331 -4 399 13 374 -4 b 214 0 288 -4 251 0 b 101 -4 179 0 140 -4 b 40 44 58 -4 40 19 b 128 182 40 107 128 82 l 128 813 b 40 950 128 913 40 888 b 108 999 40 978 65 999 b 217 994 146 999 183 994 b 325 999 258 994 290 999 b 413 953 360 999 383 986 l 821 476 l 821 813 b 708 950 821 910 708 876 b 776 999 708 975 733 999 b 893 994 819 999 856 994 b 1006 999 928 994 967 999 "},"Ń":{"ha":1094,"x_min":0,"x_max":0,"o":"m 501 1051 b 454 1081 471 1051 454 1065 b 468 1118 454 1092 461 1107 b 574 1274 508 1181 543 1231 b 689 1317 594 1304 617 1317 b 794 1275 779 1317 794 1301 b 735 1196 794 1247 776 1231 b 582 1078 686 1156 642 1122 b 501 1051 556 1058 526 1051 m 1006 999 b 1067 950 1049 999 1067 975 b 979 813 1067 888 979 913 l 979 57 b 908 -15 979 6 943 -15 b 804 46 857 -15 835 10 l 286 649 l 286 182 b 399 44 286 85 399 118 b 331 -4 399 13 374 -4 b 214 0 288 -4 251 0 b 101 -4 179 0 140 -4 b 40 44 58 -4 40 19 b 128 182 40 107 128 82 l 128 813 b 40 950 128 913 40 888 b 108 999 40 978 65 999 b 217 994 146 999 183 994 b 325 999 258 994 290 999 b 413 953 360 999 383 986 l 821 476 l 821 813 b 708 950 821 910 708 876 b 776 999 708 975 733 999 b 893 994 819 999 856 994 b 1006 999 928 994 967 999 "},"Ň":{"ha":1094,"x_min":0,"x_max":0,"o":"m 453 1114 b 350 1240 414 1156 382 1196 b 331 1286 336 1260 331 1272 b 385 1328 331 1306 350 1328 b 451 1299 401 1328 422 1324 l 567 1201 l 682 1299 b 749 1328 711 1324 732 1328 b 803 1286 783 1328 803 1306 b 783 1240 803 1272 797 1260 b 681 1114 751 1196 719 1156 b 567 1069 649 1081 629 1069 b 453 1114 504 1069 485 1081 m 1006 999 b 1067 950 1049 999 1067 975 b 979 813 1067 888 979 913 l 979 57 b 908 -15 979 6 943 -15 b 804 46 857 -15 835 10 l 286 649 l 286 182 b 399 44 286 85 399 118 b 331 -4 399 13 374 -4 b 214 0 288 -4 251 0 b 101 -4 179 0 140 -4 b 40 44 58 -4 40 19 b 128 182 40 107 128 82 l 128 813 b 40 950 128 913 40 888 b 108 999 40 978 65 999 b 217 994 146 999 183 994 b 325 999 258 994 290 999 b 413 953 360 999 383 986 l 821 476 l 821 813 b 708 950 821 910 708 876 b 776 999 708 975 733 999 b 893 994 819 999 856 994 b 1006 999 928 994 967 999 "},"Ņ":{"ha":1094,"x_min":0,"x_max":0,"o":"m 1006 999 b 1067 950 1049 999 1067 975 b 979 813 1067 888 979 913 l 979 57 b 908 -15 979 6 943 -15 b 804 46 857 -15 835 10 l 286 649 l 286 182 b 399 44 286 85 399 118 b 331 -4 399 13 374 -4 b 214 0 288 -4 251 0 b 101 -4 179 0 140 -4 b 40 44 58 -4 40 19 b 128 182 40 107 128 82 l 128 813 b 40 950 128 913 40 888 b 108 999 40 978 65 999 b 217 994 146 999 183 994 b 325 999 258 994 290 999 b 413 953 360 999 383 986 l 821 476 l 821 813 b 708 950 821 910 708 876 b 776 999 708 975 733 999 b 893 994 819 999 856 994 b 1006 999 928 994 967 999 m 554 -51 b 664 -164 628 -51 664 -89 b 499 -385 664 -271 560 -385 b 465 -356 478 -385 465 -372 b 494 -317 465 -337 479 -329 b 532 -261 514 -301 532 -281 b 488 -224 532 -240 507 -233 b 435 -150 461 -211 435 -196 b 554 -51 435 -96 486 -51 "},"Ŋ":{"ha":1094,"x_min":0,"x_max":0,"o":"m 1006 999 b 1067 950 1049 999 1067 975 b 979 813 1067 888 979 913 l 979 44 b 644 -287 979 -143 804 -287 b 533 -194 564 -287 533 -258 b 597 -39 533 -125 544 -39 b 639 -65 614 -39 628 -47 b 736 -164 672 -119 692 -164 b 804 -50 786 -164 804 -117 l 806 44 l 286 657 l 286 182 b 399 44 286 85 399 118 b 331 -4 399 19 374 -4 b 214 0 288 -4 251 0 b 101 -4 179 0 140 -4 b 40 44 58 -4 40 19 b 128 182 40 107 128 82 l 128 813 b 40 950 128 913 40 888 b 108 999 40 975 65 999 b 207 994 146 999 174 994 b 338 999 249 994 290 999 b 389 981 360 999 381 990 l 821 472 l 821 813 b 708 950 821 910 708 876 b 776 999 708 975 733 999 b 893 994 819 999 856 994 b 1006 999 928 994 967 999 "},"Ñ":{"ha":1094,"x_min":0,"x_max":0,"o":"m 375 1083 b 331 1132 346 1083 331 1101 b 342 1190 331 1144 333 1165 b 474 1301 365 1263 411 1301 b 651 1204 572 1301 611 1204 b 692 1243 665 1204 675 1217 b 749 1289 708 1271 721 1289 b 793 1240 778 1289 793 1271 b 782 1182 793 1228 790 1207 b 650 1071 758 1110 713 1071 b 474 1168 549 1071 510 1168 b 432 1129 457 1168 443 1147 b 375 1083 415 1101 403 1083 m 1006 999 b 1067 950 1049 999 1067 975 b 979 813 1067 888 979 913 l 979 57 b 908 -15 979 6 943 -15 b 804 46 857 -15 835 10 l 286 649 l 286 182 b 399 44 286 85 399 118 b 331 -4 399 13 374 -4 b 214 0 288 -4 251 0 b 101 -4 179 0 140 -4 b 40 44 58 -4 40 19 b 128 182 40 107 128 82 l 128 813 b 40 950 128 913 40 888 b 108 999 40 978 65 999 b 217 994 146 999 183 994 b 325 999 258 994 290 999 b 413 953 360 999 383 986 l 821 476 l 821 813 b 708 950 821 910 708 876 b 776 999 708 975 733 999 b 893 994 819 999 856 994 b 1006 999 928 994 967 999 "},"O":{"ha":1186,"x_min":0,"x_max":0,"o":"m 590 -31 b 36 472 278 -31 36 142 b 593 1025 36 808 288 1025 b 1150 478 907 1025 1150 806 b 590 -31 1150 157 932 -31 m 593 111 b 822 494 761 111 822 297 b 594 890 822 681 758 890 b 364 486 429 890 364 685 b 593 111 364 297 433 111 "},"Ó":{"ha":1186,"x_min":0,"x_max":0,"o":"m 533 1051 b 486 1081 503 1051 486 1065 b 500 1118 486 1092 493 1107 b 606 1274 540 1181 575 1231 b 721 1317 626 1304 649 1317 b 826 1275 811 1317 826 1301 b 767 1196 826 1247 808 1231 b 614 1078 718 1156 674 1122 b 533 1051 588 1058 558 1051 m 590 -31 b 36 472 278 -31 36 142 b 593 1025 36 808 288 1025 b 1150 478 907 1025 1150 806 b 590 -31 1150 157 932 -31 m 593 111 b 822 494 761 111 822 297 b 594 890 822 681 758 890 b 364 486 429 890 364 685 b 593 111 364 297 433 111 "},"Ŏ":{"ha":1186,"x_min":0,"x_max":0,"o":"m 593 1061 b 381 1199 492 1061 419 1115 b 361 1272 367 1228 361 1250 b 413 1318 361 1301 385 1318 b 489 1264 444 1318 464 1296 b 593 1197 519 1225 553 1197 b 697 1264 633 1197 667 1225 b 774 1318 722 1296 742 1318 b 825 1272 801 1318 825 1301 b 806 1199 825 1250 819 1228 b 593 1061 767 1115 694 1061 m 590 -31 b 36 472 278 -31 36 142 b 593 1025 36 808 288 1025 b 1150 478 907 1025 1150 806 b 590 -31 1150 157 932 -31 m 593 111 b 822 494 761 111 822 297 b 594 890 822 681 758 890 b 364 486 429 890 364 685 b 593 111 364 297 433 111 "},"Ô":{"ha":1186,"x_min":0,"x_max":0,"o":"m 417 1061 b 363 1103 382 1061 363 1083 b 382 1149 363 1117 368 1129 b 485 1275 414 1193 446 1233 b 599 1319 517 1308 536 1319 b 713 1275 661 1319 681 1308 b 815 1149 751 1233 783 1193 b 835 1103 829 1129 835 1117 b 781 1061 835 1083 815 1061 b 714 1090 764 1061 743 1065 l 599 1188 l 483 1090 b 417 1061 454 1065 433 1061 m 593 1025 b 1150 478 907 1025 1150 806 b 590 -31 1150 157 932 -31 b 36 472 278 -31 36 142 b 593 1025 36 808 288 1025 m 593 111 b 822 494 761 111 822 297 b 594 890 822 681 758 890 b 364 486 429 890 364 685 b 593 111 364 297 433 111 "},"Ö":{"ha":1186,"x_min":0,"x_max":0,"o":"m 431 1061 b 304 1175 358 1061 304 1111 b 433 1293 304 1244 358 1293 b 557 1178 506 1293 557 1244 b 431 1061 557 1111 506 1061 m 753 1063 b 629 1175 682 1063 629 1111 b 757 1292 629 1244 682 1292 b 879 1178 828 1292 879 1244 b 753 1063 879 1111 828 1063 m 590 -31 b 36 472 278 -31 36 142 b 593 1025 36 808 288 1025 b 1150 478 907 1025 1150 806 b 590 -31 1150 157 932 -31 m 593 111 b 822 494 761 111 822 297 b 594 890 822 681 758 890 b 364 486 429 890 364 685 b 593 111 364 297 433 111 "},"Ò":{"ha":1186,"x_min":0,"x_max":0,"o":"m 642 1051 b 561 1078 617 1051 588 1058 b 408 1196 501 1122 457 1156 b 349 1275 367 1231 349 1247 b 454 1317 349 1301 364 1317 b 569 1274 526 1317 549 1304 b 675 1118 599 1231 636 1181 b 689 1081 682 1107 689 1092 b 642 1051 689 1065 672 1051 m 590 -31 b 36 472 278 -31 36 142 b 593 1025 36 808 288 1025 b 1150 478 907 1025 1150 806 b 590 -31 1150 157 932 -31 m 593 111 b 822 494 761 111 822 297 b 594 890 822 681 758 890 b 364 486 429 890 364 685 b 593 111 364 297 433 111 "},"Ő":{"ha":1186,"x_min":0,"x_max":0,"o":"m 449 1046 b 414 1078 428 1046 414 1060 b 426 1118 414 1092 421 1106 b 504 1274 456 1183 479 1226 b 594 1317 521 1304 538 1317 b 681 1275 650 1317 681 1307 b 631 1193 681 1246 661 1229 b 519 1078 596 1151 558 1117 b 449 1046 499 1057 475 1046 m 681 1046 b 646 1078 660 1046 646 1060 b 658 1118 646 1092 653 1106 b 736 1274 688 1183 711 1226 b 826 1317 753 1304 769 1317 b 913 1275 882 1317 913 1307 b 863 1193 913 1246 893 1229 b 751 1078 828 1151 790 1117 b 681 1046 731 1057 707 1046 m 590 -31 b 36 472 278 -31 36 142 b 593 1025 36 808 288 1025 b 1150 478 907 1025 1150 806 b 590 -31 1150 157 932 -31 m 593 111 b 822 494 761 111 822 297 b 594 890 822 681 758 890 b 364 486 429 890 364 685 b 593 111 364 297 433 111 "},"Ō":{"ha":1186,"x_min":0,"x_max":0,"o":"m 408 1113 b 358 1179 372 1113 358 1136 b 408 1246 358 1222 372 1246 b 592 1243 464 1246 533 1243 b 775 1246 650 1243 719 1246 b 825 1179 811 1246 825 1222 b 775 1113 825 1136 811 1113 b 592 1115 719 1113 650 1115 b 408 1113 533 1115 464 1113 m 590 -31 b 36 472 278 -31 36 142 b 593 1025 36 808 288 1025 b 1150 478 907 1025 1150 806 b 590 -31 1150 157 932 -31 m 593 111 b 822 494 761 111 822 297 b 594 890 822 681 758 890 b 364 486 429 890 364 685 b 593 111 364 297 433 111 "},"Ø":{"ha":1194,"x_min":0,"x_max":0,"o":"m 1033 833 b 1156 478 1110 740 1156 619 b 596 -31 1156 157 938 -31 b 233 72 456 -31 329 4 l 161 4 b 118 -19 144 -12 132 -19 b 47 53 94 -19 47 14 b 71 97 47 67 54 82 l 139 161 b 42 472 78 242 42 344 b 599 1025 42 808 293 1025 b 938 921 728 1025 844 988 l 1013 992 b 1057 1014 1029 1007 1042 1014 b 1128 943 1076 1014 1128 983 b 1103 899 1128 929 1119 915 l 1033 833 m 600 890 b 369 486 435 890 369 685 b 378 381 369 450 372 414 l 776 760 b 600 890 740 838 683 890 m 599 111 b 828 494 767 111 828 297 b 815 633 828 540 824 588 l 413 251 b 599 111 449 168 510 111 "},"Õ":{"ha":1186,"x_min":0,"x_max":0,"o":"m 682 1071 b 506 1168 581 1071 542 1168 b 464 1129 489 1168 475 1147 b 407 1083 447 1101 435 1083 b 363 1132 378 1083 363 1101 b 374 1190 363 1144 365 1165 b 506 1301 397 1263 443 1301 b 683 1204 604 1301 643 1204 b 724 1243 697 1204 707 1217 b 781 1289 740 1271 753 1289 b 825 1240 810 1289 825 1271 b 814 1182 825 1228 822 1207 b 682 1071 790 1110 744 1071 m 590 -31 b 36 472 278 -31 36 142 b 593 1025 36 808 288 1025 b 1150 478 907 1025 1150 806 b 590 -31 1150 157 932 -31 m 593 111 b 822 494 761 111 822 297 b 594 890 822 681 758 890 b 364 486 429 890 364 685 b 593 111 364 297 433 111 "},"Œ":{"ha":1647,"x_min":0,"x_max":0,"o":"m 1583 354 b 1633 299 1608 354 1633 333 b 1596 186 1633 264 1621 239 l 1528 38 b 1446 -36 1503 -15 1481 -36 b 1328 0 1404 -36 1396 0 l 789 0 b 590 -31 719 -19 649 -31 b 36 472 278 -31 36 142 b 593 1025 36 808 288 1025 b 806 994 668 1025 739 1015 l 1282 994 b 1400 1031 1350 994 1358 1031 b 1482 957 1435 1031 1458 1010 l 1543 818 b 1581 706 1567 765 1581 740 b 1531 650 1581 671 1556 650 b 1467 690 1506 650 1490 665 b 1194 864 1369 793 1310 864 l 1138 864 b 1068 799 1086 864 1068 843 l 1068 608 b 1113 569 1068 581 1078 569 l 1147 569 b 1297 668 1226 569 1238 668 b 1342 604 1319 668 1342 649 b 1338 504 1342 571 1338 538 b 1342 404 1338 471 1342 438 b 1297 340 1342 360 1319 340 b 1147 439 1238 340 1226 439 l 1113 439 b 1068 400 1078 439 1068 428 l 1068 196 b 1138 131 1068 151 1086 131 l 1228 131 b 1519 314 1347 131 1421 196 b 1583 354 1542 340 1558 354 m 589 104 b 771 386 719 104 771 207 l 771 601 b 589 890 771 744 731 890 b 364 486 428 890 364 681 b 589 104 364 293 431 104 "},"P":{"ha":1026,"x_min":0,"x_max":0,"o":"m 507 1006 b 1014 640 850 1006 1014 861 b 525 306 1014 463 908 306 b 422 275 436 306 422 314 l 422 182 b 525 44 422 83 525 115 b 464 -4 525 19 507 -4 b 274 0 424 -4 378 0 b 106 -4 178 0 143 -4 b 44 44 63 -4 44 19 b 125 182 44 107 125 82 l 125 813 b 44 950 125 913 44 888 b 113 999 44 975 69 999 b 271 994 150 999 178 994 b 507 1006 336 994 413 1006 m 501 439 b 690 647 624 439 690 511 b 501 871 690 793 614 871 b 422 808 422 871 422 832 l 422 494 b 501 439 422 451 451 439 "},"Þ":{"ha":1042,"x_min":0,"x_max":0,"o":"m 1011 504 b 515 161 1011 314 907 161 b 424 164 481 161 450 163 b 525 44 432 82 525 111 b 464 -4 525 19 507 -4 b 274 0 424 -4 378 0 b 106 -4 178 0 143 -4 b 44 44 63 -4 44 19 b 125 182 44 107 125 82 l 125 813 b 44 950 125 913 44 888 b 106 999 44 975 63 999 b 274 994 143 999 178 994 b 464 999 378 994 424 999 b 525 950 507 999 525 975 b 425 846 525 886 442 913 b 547 850 460 849 500 850 b 1011 504 847 850 1011 707 m 422 349 b 511 294 422 304 451 294 b 688 501 618 294 688 364 b 521 719 688 644 608 719 b 422 658 457 719 422 710 l 422 349 "},"Q":{"ha":1188,"x_min":0,"x_max":0,"o":"m 1065 53 b 1110 7 1092 53 1110 33 b 1028 -140 1110 -24 1083 -61 b 903 -208 994 -187 958 -208 b 672 -26 789 -208 706 -121 b 590 -31 646 -29 618 -31 b 36 472 278 -31 36 142 b 593 1025 36 808 288 1025 b 1150 478 907 1025 1150 806 b 875 24 1150 258 1049 101 b 940 -8 892 4 911 -8 b 1065 53 985 -8 1028 53 m 364 486 b 593 111 364 297 433 111 b 647 118 613 111 631 114 b 542 276 626 217 593 276 b 483 261 518 276 501 261 b 450 297 464 261 450 276 b 586 389 450 338 508 389 b 772 231 681 389 740 315 b 822 494 807 301 822 397 b 594 890 822 681 758 890 b 364 486 429 890 364 685 "},"R":{"ha":1113,"x_min":0,"x_max":0,"o":"m 944 222 b 1117 38 1046 93 1117 106 b 1068 -4 1117 14 1099 -4 b 857 0 1021 -4 947 0 b 675 -4 775 0 714 -4 b 606 43 631 -4 606 13 b 667 132 606 100 667 76 b 621 217 667 160 640 190 l 558 300 b 482 347 532 335 514 347 l 449 347 b 422 314 431 347 422 338 l 422 182 b 506 44 422 82 506 107 b 444 -4 506 19 488 -4 b 274 0 407 -4 369 0 b 106 -4 178 0 143 -4 b 44 44 63 -4 44 19 b 125 182 44 107 125 82 l 125 813 b 44 950 125 913 44 888 b 117 999 44 974 61 999 b 256 994 138 999 196 994 b 515 1006 311 994 425 1006 b 1018 665 854 1006 1018 869 b 818 383 1018 528 944 428 l 944 222 m 500 461 b 694 661 632 461 694 519 b 494 871 694 813 608 871 b 422 808 456 871 422 860 l 422 510 b 500 461 422 469 451 461 "},"Ŕ":{"ha":1113,"x_min":0,"x_max":0,"o":"m 454 1051 b 407 1081 424 1051 407 1065 b 421 1118 407 1092 414 1107 b 526 1274 461 1181 496 1231 b 642 1317 547 1304 569 1317 b 747 1275 732 1317 747 1301 b 688 1196 747 1247 729 1231 b 535 1078 639 1156 594 1122 b 454 1051 508 1058 479 1051 m 944 222 b 1117 38 1046 93 1117 106 b 1068 -4 1117 14 1099 -4 b 857 0 1021 -4 947 0 b 675 -4 775 0 714 -4 b 606 43 631 -4 606 13 b 667 132 606 100 667 76 b 621 217 667 160 640 190 l 558 300 b 482 347 532 335 514 347 l 449 347 b 422 314 431 347 422 338 l 422 182 b 506 44 422 82 506 107 b 444 -4 506 19 488 -4 b 274 0 407 -4 369 0 b 106 -4 178 0 143 -4 b 44 44 63 -4 44 19 b 125 182 44 107 125 82 l 125 813 b 44 950 125 913 44 888 b 117 999 44 974 61 999 b 256 994 138 999 196 994 b 515 1006 311 994 425 1006 b 1018 665 854 1006 1018 869 b 818 383 1018 528 944 428 l 944 222 m 500 461 b 694 661 632 461 694 519 b 494 871 694 813 608 871 b 422 808 456 871 422 860 l 422 510 b 500 461 422 469 451 461 "},"Ř":{"ha":1113,"x_min":0,"x_max":0,"o":"m 406 1114 b 303 1240 367 1156 335 1196 b 283 1286 289 1260 283 1272 b 338 1328 283 1306 303 1328 b 404 1299 354 1328 375 1324 l 519 1201 l 635 1299 b 701 1328 664 1324 685 1328 b 756 1286 736 1328 756 1306 b 736 1240 756 1272 750 1260 b 633 1114 704 1196 672 1156 b 519 1069 601 1081 582 1069 b 406 1114 457 1069 438 1081 m 944 222 b 1117 38 1046 93 1117 106 b 1068 -4 1117 14 1099 -4 b 857 0 1021 -4 947 0 b 675 -4 775 0 714 -4 b 606 43 631 -4 606 13 b 667 132 606 100 667 76 b 621 217 667 160 640 190 l 558 300 b 482 347 532 335 514 347 l 449 347 b 422 314 431 347 422 338 l 422 182 b 506 44 422 82 506 107 b 444 -4 506 19 488 -4 b 274 0 407 -4 369 0 b 106 -4 178 0 143 -4 b 44 44 63 -4 44 19 b 125 182 44 107 125 82 l 125 813 b 44 950 125 913 44 888 b 117 999 44 974 61 999 b 256 994 138 999 196 994 b 515 1006 311 994 425 1006 b 1018 665 854 1006 1018 869 b 818 383 1018 528 944 428 l 944 222 m 500 461 b 694 661 632 461 694 519 b 494 871 694 813 608 871 b 422 808 456 871 422 860 l 422 510 b 500 461 422 469 451 461 "},"Ŗ":{"ha":1113,"x_min":0,"x_max":0,"o":"m 944 222 b 1117 38 1046 93 1117 106 b 1068 -4 1117 14 1099 -4 b 857 0 1021 -4 947 0 b 675 -4 775 0 714 -4 b 606 43 631 -4 606 13 b 667 132 606 100 667 76 b 621 217 667 160 640 190 l 558 300 b 482 347 532 335 514 347 l 449 347 b 422 314 431 347 422 338 l 422 182 b 506 44 422 82 506 107 b 444 -4 506 19 488 -4 b 274 0 407 -4 369 0 b 106 -4 178 0 143 -4 b 44 44 63 -4 44 19 b 125 182 44 107 125 82 l 125 813 b 44 950 125 913 44 888 b 117 999 44 974 61 999 b 256 994 138 999 196 994 b 515 1006 311 994 425 1006 b 1018 665 854 1006 1018 869 b 818 383 1018 528 944 428 l 944 222 m 500 461 b 694 661 632 461 694 519 b 494 871 694 813 608 871 b 422 808 456 871 422 860 l 422 510 b 500 461 422 469 451 461 m 554 -51 b 664 -164 628 -51 664 -89 b 499 -385 664 -271 560 -385 b 465 -356 478 -385 465 -372 b 494 -317 465 -337 479 -329 b 532 -261 514 -301 532 -281 b 488 -224 532 -240 507 -233 b 435 -150 461 -211 435 -196 b 554 -51 435 -96 486 -51 "},"S":{"ha":989,"x_min":0,"x_max":0,"o":"m 213 -35 b 139 39 176 -35 158 -3 l 75 178 b 31 310 49 235 31 279 b 81 369 31 350 56 369 b 146 329 110 369 126 350 b 526 119 231 240 351 119 b 690 233 638 119 690 169 b 453 386 690 322 592 347 b 63 725 282 433 63 513 b 396 1018 63 897 211 1018 b 597 985 508 1018 564 985 b 675 1031 631 985 633 1031 b 774 929 724 1031 735 993 l 811 867 b 875 721 857 790 875 749 b 833 676 875 693 853 676 b 764 718 806 676 790 692 b 447 879 697 786 581 879 b 331 797 372 879 331 849 b 531 676 331 731 401 713 b 958 311 744 618 958 546 b 546 -24 958 101 788 -24 b 303 13 424 -24 342 13 b 213 -35 260 13 253 -35 "},"":{"ha":989,"x_min":0,"x_max":0,"o":"m 213 -35 b 303 13 253 -35 260 13 b 546 -24 342 13 424 -24 b 958 311 788 -24 958 101 b 531 676 958 546 744 618 b 331 797 401 713 331 731 b 447 879 331 849 372 879 b 764 718 581 879 697 786 b 833 676 790 692 806 676 b 875 721 853 676 875 693 b 811 867 875 749 857 790 l 774 929 b 675 1031 735 993 724 1031 b 597 985 633 1031 631 985 b 396 1018 564 985 508 1018 b 63 725 211 1018 63 897 b 453 386 63 513 282 433 b 690 233 592 347 690 322 b 526 119 690 169 638 119 b 146 329 351 119 231 240 b 81 369 126 350 110 369 b 31 310 56 369 31 350 b 75 178 31 279 49 235 l 139 39 b 213 -35 158 -3 176 -35 "},"Ś":{"ha":989,"x_min":0,"x_max":0,"o":"m 394 1051 b 347 1081 364 1051 347 1065 b 361 1118 347 1092 354 1107 b 467 1274 401 1181 436 1231 b 582 1317 488 1304 510 1317 b 688 1275 672 1317 688 1301 b 628 1196 688 1247 669 1231 b 475 1078 579 1156 535 1122 b 394 1051 449 1058 419 1051 m 213 -35 b 139 39 176 -35 158 -3 l 75 178 b 31 310 49 235 31 279 b 81 369 31 350 56 369 b 146 329 110 369 126 350 b 526 119 231 240 351 119 b 690 233 638 119 690 169 b 453 386 690 322 592 347 b 63 725 282 433 63 513 b 396 1018 63 897 211 1018 b 597 985 508 1018 564 985 b 675 1031 631 985 633 1031 b 774 929 724 1031 735 993 l 811 867 b 875 721 857 790 875 749 b 833 676 875 693 853 676 b 764 718 806 676 790 692 b 447 879 697 786 581 879 b 331 797 372 879 331 849 b 531 676 331 731 401 713 b 958 311 744 618 958 546 b 546 -24 958 101 788 -24 b 303 13 424 -24 342 13 b 213 -35 260 13 253 -35 "},"Š":{"ha":989,"x_min":0,"x_max":0,"o":"m 346 1114 b 243 1240 307 1156 275 1196 b 224 1286 229 1260 224 1272 b 278 1328 224 1306 243 1328 b 344 1299 294 1328 315 1324 l 460 1201 l 575 1299 b 642 1328 604 1324 625 1328 b 696 1286 676 1328 696 1306 b 676 1240 696 1272 690 1260 b 574 1114 644 1196 613 1156 b 460 1069 542 1081 522 1069 b 346 1114 397 1069 378 1081 m 531 676 b 958 311 744 618 958 546 b 546 -24 958 101 788 -24 b 303 13 424 -24 342 13 b 213 -35 260 13 253 -35 b 139 39 176 -35 158 -3 l 75 178 b 31 310 49 235 31 279 b 81 369 31 350 56 369 b 146 329 110 369 126 350 b 526 119 231 240 351 119 b 690 233 638 119 690 169 b 453 386 690 322 592 347 b 63 725 282 433 63 513 b 396 1018 63 897 211 1018 b 597 985 508 1018 564 985 b 675 1031 631 985 633 1031 b 774 929 724 1031 735 993 l 811 867 b 875 721 857 790 875 749 b 833 676 875 693 853 676 b 764 718 806 676 790 692 b 447 879 697 786 581 879 b 331 797 372 879 331 849 b 531 676 331 731 401 713 "},"Ş":{"ha":989,"x_min":0,"x_max":0,"o":"m 532 -24 l 524 -56 b 569 -51 539 -53 554 -51 b 718 -161 657 -51 718 -97 b 546 -279 718 -232 649 -279 b 401 -247 486 -279 439 -268 b 376 -208 382 -236 376 -224 b 407 -175 376 -190 389 -175 b 440 -183 415 -175 426 -179 b 533 -203 471 -193 500 -203 b 590 -172 568 -203 590 -190 b 539 -143 590 -154 574 -143 b 475 -158 519 -143 496 -150 b 418 -111 457 -154 426 -128 l 446 -15 b 303 13 378 -6 331 13 b 213 -35 260 13 253 -35 b 139 39 176 -35 158 -3 l 75 178 b 31 310 49 235 31 279 b 81 369 31 350 56 369 b 146 329 110 369 126 350 b 526 119 231 240 351 119 b 690 233 638 119 690 169 b 453 386 690 322 592 347 b 63 725 282 433 63 513 b 396 1018 63 897 211 1018 b 597 985 508 1018 564 985 b 675 1031 631 985 633 1031 b 774 929 724 1031 735 993 l 811 867 b 875 721 857 790 875 749 b 833 676 875 693 853 676 b 764 718 806 676 790 692 b 447 879 697 786 581 879 b 331 797 372 879 331 849 b 531 676 331 731 401 713 b 958 311 744 618 958 546 b 546 -24 958 101 788 -24 "},"Ŝ":{"ha":989,"x_min":0,"x_max":0,"o":"m 278 1061 b 224 1103 243 1061 224 1083 b 243 1149 224 1117 229 1129 b 346 1275 275 1193 307 1233 b 460 1319 378 1308 397 1319 b 574 1275 522 1319 542 1308 b 676 1149 613 1233 644 1193 b 696 1103 690 1129 696 1117 b 642 1061 696 1083 676 1061 b 575 1090 625 1061 604 1065 l 460 1188 l 344 1090 b 278 1061 315 1065 294 1061 m 531 676 b 958 311 744 618 958 546 b 546 -24 958 101 788 -24 b 303 13 424 -24 342 13 b 213 -35 260 13 253 -35 b 139 39 176 -35 158 -3 l 75 178 b 31 310 49 235 31 279 b 81 369 31 350 56 369 b 146 329 110 369 126 350 b 526 119 231 240 351 119 b 690 233 638 119 690 169 b 453 386 690 322 592 347 b 63 725 282 433 63 513 b 396 1018 63 897 211 1018 b 597 985 508 1018 564 985 b 675 1031 631 985 633 1031 b 774 929 724 1031 735 993 l 811 867 b 875 721 857 790 875 749 b 833 676 875 693 853 676 b 764 718 806 676 790 692 b 447 879 697 786 581 879 b 331 797 372 879 331 849 b 531 676 331 731 401 713 "},"Ș":{"ha":989,"x_min":0,"x_max":0,"o":"m 213 -35 b 139 39 176 -35 158 -3 l 75 178 b 31 310 49 235 31 279 b 81 369 31 350 56 369 b 146 329 110 369 126 350 b 526 119 231 240 351 119 b 690 233 638 119 690 169 b 453 386 690 322 592 347 b 63 725 282 433 63 513 b 396 1018 63 897 211 1018 b 597 985 508 1018 564 985 b 675 1031 631 985 633 1031 b 774 929 724 1031 735 993 l 811 867 b 875 721 857 790 875 749 b 833 676 875 693 853 676 b 764 718 806 676 790 692 b 447 879 697 786 581 879 b 331 797 372 879 331 849 b 531 676 331 731 401 713 b 958 311 744 618 958 546 b 546 -24 958 101 788 -24 b 303 13 424 -24 342 13 b 213 -35 260 13 253 -35 m 493 -385 b 460 -356 472 -385 460 -372 b 489 -317 460 -337 474 -329 b 526 -261 508 -301 526 -281 b 482 -224 526 -240 501 -233 b 429 -150 456 -211 429 -196 b 549 -51 429 -96 481 -51 b 658 -164 622 -51 658 -89 b 493 -385 658 -271 554 -385 "},"ẞ":{"ha":1207,"x_min":0,"x_max":0,"o":"m 769 700 b 1188 306 1000 656 1188 531 b 864 -24 1188 100 1054 -24 b 694 14 782 -24 725 14 b 619 -33 656 14 656 -33 b 554 42 589 -33 565 7 l 504 188 b 469 324 483 247 469 289 b 518 382 469 364 493 382 b 574 342 544 382 563 358 b 832 108 638 246 714 108 b 933 231 901 108 933 161 b 583 463 933 363 778 406 b 526 525 543 474 526 492 b 557 606 526 550 532 578 l 633 690 b 643 728 640 701 643 713 b 506 907 643 856 575 907 b 406 783 442 907 406 860 l 406 182 b 486 44 406 82 486 107 b 425 -4 486 19 468 -4 b 257 0 388 -4 353 0 b 89 -4 161 0 126 -4 b 28 44 46 -4 28 19 b 108 182 28 107 108 82 l 108 714 b 507 1025 108 913 260 1025 b 897 944 665 1025 801 1003 b 942 881 925 926 942 903 b 911 821 942 861 933 840 l 769 700 "},"T":{"ha":1106,"x_min":0,"x_max":0,"o":"m 363 -4 b 301 44 319 -4 301 19 b 404 182 301 115 404 82 l 404 794 b 342 864 404 842 386 864 l 328 864 b 108 693 256 864 200 796 b 44 653 86 668 69 653 b -6 711 18 653 -6 674 b 26 818 -6 743 7 768 l 81 957 b 158 1031 101 1010 124 1031 b 278 994 200 1031 210 994 l 828 994 b 947 1031 896 994 906 1031 b 1025 957 982 1031 1004 1010 l 1079 818 b 1111 711 1099 768 1111 743 b 1061 653 1111 674 1088 653 b 997 693 1036 653 1019 668 b 778 864 906 796 850 864 l 764 864 b 701 794 719 864 701 842 l 701 182 b 804 44 701 82 804 115 b 743 -4 804 19 786 -4 b 553 0 701 -4 658 0 b 363 -4 449 0 403 -4 "},"Ŧ":{"ha":1106,"x_min":0,"x_max":0,"o":"m 1079 818 b 1111 711 1099 768 1111 743 b 1061 653 1111 674 1088 653 b 997 693 1036 653 1019 668 b 778 864 906 796 850 864 l 764 864 b 701 794 719 864 701 842 l 701 528 l 844 528 b 907 463 893 528 907 506 b 844 397 907 418 893 397 l 701 397 l 701 182 b 804 44 701 82 804 115 b 743 -4 804 19 786 -4 b 553 0 701 -4 658 0 b 363 -4 449 0 403 -4 b 301 44 319 -4 301 19 b 404 182 301 115 404 82 l 404 397 l 261 397 b 199 463 213 397 199 418 b 261 528 199 506 213 528 l 404 528 l 404 794 b 342 864 404 842 386 864 l 328 864 b 108 693 256 864 200 796 b 44 653 86 668 69 653 b -6 711 18 653 -6 674 b 26 818 -6 743 7 768 l 81 957 b 158 1031 101 1010 124 1031 b 278 994 200 1031 210 994 l 828 994 b 947 1031 896 994 906 1031 b 1025 957 982 1031 1004 1010 l 1079 818 "},"Ť":{"ha":1106,"x_min":0,"x_max":0,"o":"m 446 1114 b 343 1240 407 1156 375 1196 b 324 1286 329 1260 324 1272 b 378 1328 324 1306 343 1328 b 444 1299 394 1328 415 1324 l 560 1201 l 675 1299 b 742 1328 704 1324 725 1328 b 796 1286 776 1328 796 1306 b 776 1240 796 1272 790 1260 b 674 1114 744 1196 713 1156 b 560 1069 642 1081 622 1069 b 446 1114 497 1069 478 1081 m 1079 818 b 1111 711 1099 768 1111 743 b 1061 653 1111 674 1088 653 b 997 693 1036 653 1019 668 b 778 864 906 796 850 864 l 764 864 b 701 794 719 864 701 842 l 701 182 b 804 44 701 82 804 115 b 743 -4 804 19 786 -4 b 553 0 701 -4 658 0 b 363 -4 449 0 403 -4 b 301 44 319 -4 301 19 b 404 182 301 115 404 82 l 404 794 b 342 864 404 842 386 864 l 328 864 b 108 693 256 864 200 796 b 44 653 86 668 69 653 b -6 711 18 653 -6 674 b 26 818 -6 743 7 768 l 81 957 b 158 1031 101 1010 124 1031 b 278 994 200 1031 210 994 l 828 994 b 947 1031 896 994 906 1031 b 1025 957 982 1031 1004 1010 l 1079 818 "},"Ţ":{"ha":1106,"x_min":0,"x_max":0,"o":"m 363 -4 b 301 44 319 -4 301 19 b 404 182 301 115 404 82 l 404 794 b 342 864 404 842 386 864 l 328 864 b 108 693 256 864 200 796 b 44 653 86 668 69 653 b -6 711 18 653 -6 674 b 26 818 -6 743 7 768 l 81 957 b 158 1031 101 1010 124 1031 b 278 994 200 1031 210 994 l 828 994 b 947 1031 896 994 906 1031 b 1025 957 982 1031 1004 1010 l 1079 818 b 1111 711 1099 768 1111 743 b 1061 653 1111 674 1088 653 b 997 693 1036 653 1019 668 b 778 864 906 796 850 864 l 764 864 b 701 794 719 864 701 842 l 701 182 b 804 44 701 82 804 115 b 743 -4 804 19 786 -4 b 553 0 701 -4 658 0 b 363 -4 449 0 403 -4 m 513 -385 b 479 -356 492 -385 479 -372 b 508 -317 479 -337 493 -329 b 546 -261 528 -301 546 -281 b 501 -224 546 -240 521 -233 b 449 -150 475 -211 449 -196 b 568 -51 449 -96 500 -51 b 678 -164 642 -51 678 -89 b 513 -385 678 -271 574 -385 "},"Ț":{"ha":1106,"x_min":0,"x_max":0,"o":"m 363 -4 b 301 44 319 -4 301 19 b 404 182 301 115 404 82 l 404 794 b 342 864 404 842 386 864 l 328 864 b 108 693 256 864 200 796 b 44 653 86 668 69 653 b -6 711 18 653 -6 674 b 26 818 -6 743 7 768 l 81 957 b 158 1031 101 1010 124 1031 b 278 994 200 1031 210 994 l 828 994 b 947 1031 896 994 906 1031 b 1025 957 982 1031 1004 1010 l 1079 818 b 1111 711 1099 768 1111 743 b 1061 653 1111 674 1088 653 b 997 693 1036 653 1019 668 b 778 864 906 796 850 864 l 764 864 b 701 794 719 864 701 842 l 701 182 b 804 44 701 82 804 115 b 743 -4 804 19 786 -4 b 553 0 701 -4 658 0 b 363 -4 449 0 403 -4 m 513 -385 b 479 -356 492 -385 479 -372 b 508 -317 479 -337 493 -329 b 546 -261 528 -301 546 -281 b 501 -224 546 -240 521 -233 b 449 -150 475 -211 449 -196 b 568 -51 449 -96 500 -51 b 678 -164 642 -51 678 -89 b 513 -385 678 -271 574 -385 "},"U":{"ha":1031,"x_min":0,"x_max":0,"o":"m 518 -31 b 81 307 263 -31 81 63 b 86 410 81 336 83 376 l 115 767 b 119 828 117 783 119 808 b 75 901 119 874 96 888 b 39 950 56 913 39 922 b 100 999 39 975 57 999 b 268 994 138 999 172 994 b 444 999 364 994 407 999 b 506 950 488 999 506 975 b 469 899 506 921 489 910 b 417 813 447 883 421 867 l 385 404 b 379 315 383 385 379 339 b 583 136 379 208 444 136 b 790 313 692 136 790 179 b 786 376 790 335 788 357 l 750 813 b 683 892 746 864 714 878 b 633 950 657 904 633 914 b 701 999 633 975 658 999 b 822 994 744 999 785 994 b 935 999 857 994 896 999 b 996 950 978 999 996 975 b 958 901 996 922 978 913 b 908 828 935 888 908 872 b 913 767 908 808 911 783 l 943 388 b 949 300 946 349 949 321 b 518 -31 949 64 776 -31 "},"Ú":{"ha":1031,"x_min":0,"x_max":0,"o":"m 474 1051 b 426 1081 443 1051 426 1065 b 440 1118 426 1092 433 1107 b 546 1274 481 1181 515 1231 b 661 1317 567 1304 589 1317 b 767 1275 751 1317 767 1301 b 707 1196 767 1247 749 1231 b 554 1078 658 1156 614 1122 b 474 1051 528 1058 499 1051 m 518 -31 b 81 307 263 -31 81 63 b 86 410 81 336 83 376 l 115 767 b 119 828 117 783 119 808 b 75 901 119 874 96 888 b 39 950 56 913 39 922 b 100 999 39 975 57 999 b 268 994 138 999 172 994 b 444 999 364 994 407 999 b 506 950 488 999 506 975 b 469 899 506 921 489 910 b 417 813 447 883 421 867 l 385 404 b 379 315 383 385 379 339 b 583 136 379 208 444 136 b 790 313 692 136 790 179 b 786 376 790 335 788 357 l 750 813 b 683 892 746 864 714 878 b 633 950 657 904 633 914 b 701 999 633 975 658 999 b 822 994 744 999 785 994 b 935 999 857 994 896 999 b 996 950 978 999 996 975 b 958 901 996 922 978 913 b 908 828 935 888 908 872 b 913 767 908 808 911 783 l 943 388 b 949 300 946 349 949 321 b 518 -31 949 64 776 -31 "},"Ŭ":{"ha":1031,"x_min":0,"x_max":0,"o":"m 533 1061 b 321 1199 432 1061 360 1115 b 301 1272 307 1228 301 1250 b 353 1318 301 1301 325 1318 b 429 1264 385 1318 404 1296 b 533 1197 460 1225 493 1197 b 638 1264 574 1197 607 1225 b 714 1318 663 1296 682 1318 b 765 1272 742 1318 765 1301 b 746 1199 765 1250 760 1228 b 533 1061 707 1115 635 1061 m 518 -31 b 81 307 263 -31 81 63 b 86 410 81 336 83 376 l 115 767 b 119 828 117 783 119 808 b 75 901 119 874 96 888 b 39 950 56 913 39 922 b 100 999 39 975 57 999 b 268 994 138 999 172 994 b 444 999 364 994 407 999 b 506 950 488 999 506 975 b 469 899 506 921 489 910 b 417 813 447 883 421 867 l 385 404 b 379 315 383 385 379 339 b 583 136 379 208 444 136 b 790 313 692 136 790 179 b 786 376 790 335 788 357 l 750 813 b 683 892 746 864 714 878 b 633 950 657 904 633 914 b 701 999 633 975 658 999 b 822 994 744 999 785 994 b 935 999 857 994 896 999 b 996 950 978 999 996 975 b 958 901 996 922 978 913 b 908 828 935 888 908 872 b 913 767 908 808 911 783 l 943 388 b 949 300 946 349 949 321 b 518 -31 949 64 776 -31 "},"Û":{"ha":1031,"x_min":0,"x_max":0,"o":"m 357 1061 b 303 1103 322 1061 303 1083 b 322 1149 303 1117 308 1129 b 425 1275 354 1193 386 1233 b 539 1319 457 1308 476 1319 b 653 1275 601 1319 621 1308 b 756 1149 692 1233 724 1193 b 775 1103 769 1129 775 1117 b 721 1061 775 1083 756 1061 b 654 1090 704 1061 683 1065 l 539 1188 l 424 1090 b 357 1061 394 1065 374 1061 m 935 999 b 996 950 978 999 996 975 b 958 901 996 922 978 913 b 908 828 935 888 908 872 b 913 767 908 808 911 783 l 943 388 b 949 300 946 349 949 321 b 518 -31 949 64 776 -31 b 81 307 263 -31 81 63 b 86 410 81 336 83 376 l 115 767 b 119 828 117 783 119 808 b 75 901 119 874 96 888 b 39 950 56 913 39 922 b 100 999 39 975 57 999 b 268 994 138 999 172 994 b 444 999 364 994 407 999 b 506 950 488 999 506 975 b 469 899 506 921 489 910 b 417 813 447 883 421 867 l 385 404 b 379 315 383 385 379 339 b 583 136 379 208 444 136 b 790 313 692 136 790 179 b 786 376 790 335 788 357 l 750 813 b 683 892 746 864 714 878 b 633 950 657 904 633 914 b 701 999 633 975 658 999 b 822 994 744 999 785 994 b 935 999 857 994 896 999 "},"Ü":{"ha":1031,"x_min":0,"x_max":0,"o":"m 371 1061 b 244 1175 299 1061 244 1111 b 374 1293 244 1244 299 1293 b 497 1178 446 1293 497 1244 b 371 1061 497 1111 446 1061 m 693 1063 b 569 1175 622 1063 569 1111 b 697 1292 569 1244 622 1292 b 819 1178 768 1292 819 1244 b 693 1063 819 1111 768 1063 m 518 -31 b 81 307 263 -31 81 63 b 86 410 81 336 83 376 l 115 767 b 119 828 117 783 119 808 b 75 901 119 874 96 888 b 39 950 56 913 39 922 b 100 999 39 975 57 999 b 268 994 138 999 172 994 b 444 999 364 994 407 999 b 506 950 488 999 506 975 b 469 899 506 921 489 910 b 417 813 447 883 421 867 l 385 404 b 379 315 383 385 379 339 b 583 136 379 208 444 136 b 790 313 692 136 790 179 b 786 376 790 335 788 357 l 750 813 b 683 892 746 864 714 878 b 633 950 657 904 633 914 b 701 999 633 975 658 999 b 822 994 744 999 785 994 b 935 999 857 994 896 999 b 996 950 978 999 996 975 b 958 901 996 922 978 913 b 908 828 935 888 908 872 b 913 767 908 808 911 783 l 943 388 b 949 300 946 349 949 321 b 518 -31 949 64 776 -31 "},"Ù":{"ha":1031,"x_min":0,"x_max":0,"o":"m 582 1051 b 501 1078 557 1051 528 1058 b 349 1196 442 1122 397 1156 b 289 1275 307 1231 289 1247 b 394 1317 289 1301 304 1317 b 510 1274 467 1317 489 1304 b 615 1118 539 1231 576 1181 b 629 1081 622 1107 629 1092 b 582 1051 629 1065 613 1051 m 518 -31 b 81 307 263 -31 81 63 b 86 410 81 336 83 376 l 115 767 b 119 828 117 783 119 808 b 75 901 119 874 96 888 b 39 950 56 913 39 922 b 100 999 39 975 57 999 b 268 994 138 999 172 994 b 444 999 364 994 407 999 b 506 950 488 999 506 975 b 469 899 506 921 489 910 b 417 813 447 883 421 867 l 385 404 b 379 315 383 385 379 339 b 583 136 379 208 444 136 b 790 313 692 136 790 179 b 786 376 790 335 788 357 l 750 813 b 683 892 746 864 714 878 b 633 950 657 904 633 914 b 701 999 633 975 658 999 b 822 994 744 999 785 994 b 935 999 857 994 896 999 b 996 950 978 999 996 975 b 958 901 996 922 978 913 b 908 828 935 888 908 872 b 913 767 908 808 911 783 l 943 388 b 949 300 946 349 949 321 b 518 -31 949 64 776 -31 "},"Ű":{"ha":1031,"x_min":0,"x_max":0,"o":"m 389 1046 b 354 1078 368 1046 354 1060 b 367 1118 354 1092 361 1106 b 444 1274 396 1183 419 1226 b 535 1317 461 1304 478 1317 b 621 1275 590 1317 621 1307 b 571 1193 621 1246 601 1229 b 460 1078 536 1151 499 1117 b 389 1046 439 1057 415 1046 m 621 1046 b 586 1078 600 1046 586 1060 b 599 1118 586 1092 593 1106 b 676 1274 628 1183 651 1226 b 767 1317 693 1304 710 1317 b 853 1275 822 1317 853 1307 b 803 1193 853 1246 833 1229 b 692 1078 768 1151 731 1117 b 621 1046 671 1057 647 1046 m 518 -31 b 81 307 263 -31 81 63 b 86 410 81 336 83 376 l 115 767 b 119 828 117 783 119 808 b 75 901 119 874 96 888 b 39 950 56 913 39 922 b 100 999 39 975 57 999 b 268 994 138 999 172 994 b 444 999 364 994 407 999 b 506 950 488 999 506 975 b 469 899 506 921 489 910 b 417 813 447 883 421 867 l 385 404 b 379 315 383 385 379 339 b 583 136 379 208 444 136 b 790 313 692 136 790 179 b 786 376 790 335 788 357 l 750 813 b 683 892 746 864 714 878 b 633 950 657 904 633 914 b 701 999 633 975 658 999 b 822 994 744 999 785 994 b 935 999 857 994 896 999 b 996 950 978 999 996 975 b 958 901 996 922 978 913 b 908 828 935 888 908 872 b 913 767 908 808 911 783 l 943 388 b 949 300 946 349 949 321 b 518 -31 949 64 776 -31 "},"Ū":{"ha":1031,"x_min":0,"x_max":0,"o":"m 349 1113 b 299 1179 313 1113 299 1136 b 349 1246 299 1222 313 1246 b 532 1243 404 1246 474 1243 b 715 1246 590 1243 660 1246 b 765 1179 751 1246 765 1222 b 715 1113 765 1136 751 1113 b 532 1115 660 1113 590 1115 b 349 1113 474 1115 404 1113 m 518 -31 b 81 307 263 -31 81 63 b 86 410 81 336 83 376 l 115 767 b 119 828 117 783 119 808 b 75 901 119 874 96 888 b 39 950 56 913 39 922 b 100 999 39 975 57 999 b 268 994 138 999 172 994 b 444 999 364 994 407 999 b 506 950 488 999 506 975 b 469 899 506 921 489 910 b 417 813 447 883 421 867 l 385 404 b 379 315 383 385 379 339 b 583 136 379 208 444 136 b 790 313 692 136 790 179 b 786 376 790 335 788 357 l 750 813 b 683 892 746 864 714 878 b 633 950 657 904 633 914 b 701 999 633 975 658 999 b 822 994 744 999 785 994 b 935 999 857 994 896 999 b 996 950 978 999 996 975 b 958 901 996 922 978 913 b 908 828 935 888 908 872 b 913 767 908 808 911 783 l 943 388 b 949 300 946 349 949 321 b 518 -31 949 64 776 -31 "},"Ų":{"ha":1031,"x_min":0,"x_max":0,"o":"m 935 999 b 996 950 978 999 996 975 b 958 901 996 922 978 913 b 908 828 935 888 908 872 b 913 767 908 808 911 783 l 943 388 b 949 300 946 349 949 321 b 600 -28 949 90 813 -8 b 558 -137 572 -62 558 -100 b 588 -179 558 -169 572 -179 b 617 -171 600 -179 610 -175 b 640 -162 625 -167 631 -162 b 672 -197 656 -162 672 -178 b 650 -240 672 -214 665 -228 b 536 -279 625 -261 586 -279 b 414 -161 467 -279 414 -235 b 481 -29 414 -115 438 -71 b 81 307 244 -21 81 75 b 86 410 81 336 83 376 l 115 767 b 119 828 117 783 119 808 b 75 901 119 874 96 888 b 39 950 56 913 39 922 b 100 999 39 975 57 999 b 268 994 138 999 172 994 b 444 999 364 994 407 999 b 506 950 488 999 506 975 b 469 899 506 921 489 910 b 417 813 447 883 421 867 l 385 404 b 379 315 383 385 379 339 b 583 136 379 208 444 136 b 790 313 692 136 790 179 b 786 376 790 335 788 357 l 750 813 b 683 892 746 864 714 878 b 633 950 657 904 633 914 b 701 999 633 975 658 999 b 822 994 744 999 785 994 b 935 999 857 994 896 999 "},"Ů":{"ha":1031,"x_min":0,"x_max":0,"o":"m 535 1039 b 349 1189 411 1039 349 1090 b 540 1336 349 1288 418 1336 b 725 1194 660 1336 725 1289 b 535 1039 725 1093 660 1039 m 536 1114 b 596 1193 578 1114 596 1136 b 539 1263 596 1240 574 1263 b 478 1183 499 1263 478 1240 b 536 1114 478 1138 500 1114 m 518 -31 b 81 307 263 -31 81 63 b 86 410 81 336 83 376 l 115 767 b 119 828 117 783 119 808 b 75 901 119 874 96 888 b 39 950 56 913 39 922 b 100 999 39 975 57 999 b 268 994 138 999 172 994 b 444 999 364 994 407 999 b 506 950 488 999 506 975 b 469 899 506 921 489 910 b 417 813 447 883 421 867 l 385 404 b 379 315 383 385 379 339 b 583 136 379 208 444 136 b 790 313 692 136 790 179 b 786 376 790 335 788 357 l 750 813 b 683 892 746 864 714 878 b 633 950 657 904 633 914 b 701 999 633 975 658 999 b 822 994 744 999 785 994 b 935 999 857 994 896 999 b 996 950 978 999 996 975 b 958 901 996 922 978 913 b 908 828 935 888 908 872 b 913 767 908 808 911 783 l 943 388 b 949 300 946 349 949 321 b 518 -31 949 64 776 -31 "},"Ũ":{"ha":1031,"x_min":0,"x_max":0,"o":"m 622 1071 b 446 1168 521 1071 482 1168 b 404 1129 429 1168 415 1147 b 347 1083 388 1101 375 1083 b 303 1132 318 1083 303 1101 b 314 1190 303 1144 306 1165 b 446 1301 338 1263 383 1301 b 624 1204 544 1301 583 1204 b 664 1243 638 1204 647 1217 b 721 1289 681 1271 693 1289 b 765 1240 750 1289 765 1271 b 754 1182 765 1228 763 1207 b 622 1071 731 1110 685 1071 m 518 -31 b 81 307 263 -31 81 63 b 86 410 81 336 83 376 l 115 767 b 119 828 117 783 119 808 b 75 901 119 874 96 888 b 39 950 56 913 39 922 b 100 999 39 975 57 999 b 268 994 138 999 172 994 b 444 999 364 994 407 999 b 506 950 488 999 506 975 b 469 899 506 921 489 910 b 417 813 447 883 421 867 l 385 404 b 379 315 383 385 379 339 b 583 136 379 208 444 136 b 790 313 692 136 790 179 b 786 376 790 335 788 357 l 750 813 b 683 892 746 864 714 878 b 633 950 657 904 633 914 b 701 999 633 975 658 999 b 822 994 744 999 785 994 b 935 999 857 994 896 999 b 996 950 978 999 996 975 b 958 901 996 922 978 913 b 908 828 935 888 908 872 b 913 767 908 808 911 783 l 943 388 b 949 300 946 349 949 321 b 518 -31 949 64 776 -31 "},"V":{"ha":1126,"x_min":0,"x_max":0,"o":"m 1083 999 b 1143 956 1125 999 1143 979 b 1011 789 1143 888 1058 911 l 729 67 b 558 -17 704 4 679 -17 b 392 67 444 -17 417 3 l 110 788 b -15 954 65 900 -15 888 b 39 999 -15 979 7 999 b 238 994 89 999 142 994 b 450 999 338 994 399 999 b 522 950 494 999 522 981 b 425 828 522 878 425 900 b 451 740 425 807 438 778 l 640 249 l 838 764 b 856 832 850 796 856 821 b 746 950 856 904 746 879 b 814 999 746 981 768 999 b 950 994 864 999 908 994 b 1083 999 993 994 1036 999 "},"W":{"ha":1613,"x_min":0,"x_max":0,"o":"m 1575 997 b 1632 956 1613 997 1632 979 b 1511 814 1632 888 1544 910 l 1253 58 b 1104 -17 1238 13 1211 -17 b 960 58 996 -17 976 13 l 808 488 l 653 58 b 501 -17 636 11 607 -17 b 360 58 397 -17 376 13 l 93 814 b -19 956 61 906 -19 890 b 36 997 -19 979 6 997 b 229 993 86 997 131 993 b 426 997 326 993 376 997 b 493 950 469 997 493 981 b 414 839 493 888 414 911 b 428 774 414 824 419 799 l 588 285 l 735 700 l 694 814 b 589 956 663 906 589 890 b 644 997 589 979 614 997 b 829 993 693 997 732 993 b 1031 997 928 993 981 997 b 1096 950 1074 997 1096 981 b 1008 839 1096 888 1008 911 b 1022 774 1008 819 1017 790 l 1186 288 l 1331 757 b 1349 839 1344 801 1349 828 b 1254 950 1349 911 1254 888 b 1319 997 1254 981 1275 997 b 1451 993 1368 997 1413 993 b 1575 997 1492 993 1533 997 "},"Ẃ":{"ha":1613,"x_min":0,"x_max":0,"o":"m 783 1053 b 736 1082 753 1053 736 1067 b 750 1119 736 1093 743 1108 b 856 1275 790 1182 825 1232 b 971 1318 876 1306 899 1318 b 1076 1276 1061 1318 1076 1303 b 1017 1197 1076 1249 1058 1232 b 864 1079 968 1157 924 1124 b 783 1053 838 1060 808 1053 m 1575 997 b 1632 956 1613 997 1632 979 b 1511 814 1632 888 1544 910 l 1253 58 b 1104 -17 1238 13 1211 -17 b 960 58 996 -17 976 13 l 808 488 l 653 58 b 501 -17 636 11 607 -17 b 360 58 397 -17 376 13 l 93 814 b -19 956 61 906 -19 890 b 36 997 -19 979 6 997 b 229 993 86 997 131 993 b 426 997 326 993 376 997 b 493 950 469 997 493 981 b 414 839 493 888 414 911 b 428 774 414 824 419 799 l 588 285 l 735 700 l 694 814 b 589 956 663 906 589 890 b 644 997 589 979 614 997 b 829 993 693 997 732 993 b 1031 997 928 993 981 997 b 1096 950 1074 997 1096 981 b 1008 839 1096 888 1008 911 b 1022 774 1008 819 1017 790 l 1186 288 l 1331 757 b 1349 839 1344 801 1349 828 b 1254 950 1349 911 1254 888 b 1319 997 1254 981 1275 997 b 1451 993 1368 997 1413 993 b 1575 997 1492 993 1533 997 "},"Ŵ":{"ha":1613,"x_min":0,"x_max":0,"o":"m 667 1063 b 613 1104 632 1063 613 1085 b 632 1150 613 1118 618 1131 b 735 1276 664 1194 696 1235 b 849 1321 767 1310 786 1321 b 963 1276 911 1321 931 1310 b 1065 1150 1001 1235 1033 1194 b 1085 1104 1079 1131 1085 1118 b 1031 1063 1085 1085 1065 1063 b 964 1092 1014 1063 993 1067 l 849 1189 l 733 1092 b 667 1063 704 1067 683 1063 m 1575 997 b 1632 956 1613 997 1632 979 b 1511 814 1632 888 1544 910 l 1253 58 b 1104 -17 1238 13 1211 -17 b 960 58 996 -17 976 13 l 808 488 l 653 58 b 501 -17 636 11 607 -17 b 360 58 397 -17 376 13 l 93 814 b -19 956 61 906 -19 890 b 36 997 -19 979 6 997 b 229 993 86 997 131 993 b 426 997 326 993 376 997 b 493 950 469 997 493 981 b 414 839 493 888 414 911 b 428 774 414 824 419 799 l 588 285 l 735 700 l 694 814 b 589 956 663 906 589 890 b 644 997 589 979 614 997 b 829 993 693 997 732 993 b 1031 997 928 993 981 997 b 1096 950 1074 997 1096 981 b 1008 839 1096 888 1008 911 b 1022 774 1008 819 1017 790 l 1186 288 l 1331 757 b 1349 839 1344 801 1349 828 b 1254 950 1349 911 1254 888 b 1319 997 1254 981 1275 997 b 1451 993 1368 997 1413 993 b 1575 997 1492 993 1533 997 "},"Ẅ":{"ha":1613,"x_min":0,"x_max":0,"o":"m 681 1063 b 554 1176 608 1063 554 1113 b 683 1294 554 1246 608 1294 b 807 1179 756 1294 807 1246 b 681 1063 807 1113 756 1063 m 1003 1064 b 879 1176 932 1064 879 1113 b 1007 1293 879 1246 932 1293 b 1129 1179 1078 1293 1129 1246 b 1003 1064 1129 1113 1078 1064 m 1575 997 b 1632 956 1613 997 1632 979 b 1511 814 1632 888 1544 910 l 1253 58 b 1104 -17 1238 13 1211 -17 b 960 58 996 -17 976 13 l 808 488 l 653 58 b 501 -17 636 11 607 -17 b 360 58 397 -17 376 13 l 93 814 b -19 956 61 906 -19 890 b 36 997 -19 979 6 997 b 229 993 86 997 131 993 b 426 997 326 993 376 997 b 493 950 469 997 493 981 b 414 839 493 888 414 911 b 428 774 414 824 419 799 l 588 285 l 735 700 l 694 814 b 589 956 663 906 589 890 b 644 997 589 979 614 997 b 829 993 693 997 732 993 b 1031 997 928 993 981 997 b 1096 950 1074 997 1096 981 b 1008 839 1096 888 1008 911 b 1022 774 1008 819 1017 790 l 1186 288 l 1331 757 b 1349 839 1344 801 1349 828 b 1254 950 1349 911 1254 888 b 1319 997 1254 981 1275 997 b 1451 993 1368 997 1413 993 b 1575 997 1492 993 1533 997 "},"Ẁ":{"ha":1613,"x_min":0,"x_max":0,"o":"m 658 1197 b 599 1276 617 1232 599 1249 b 704 1318 599 1303 614 1318 b 819 1275 776 1318 799 1306 b 925 1119 849 1232 886 1182 b 939 1082 932 1108 939 1093 b 892 1053 939 1067 922 1053 b 811 1079 867 1053 838 1060 b 658 1197 751 1124 707 1157 m 1575 997 b 1632 956 1613 997 1632 979 b 1511 814 1632 888 1544 910 l 1253 58 b 1104 -17 1238 13 1211 -17 b 960 58 996 -17 976 13 l 808 488 l 653 58 b 501 -17 636 11 607 -17 b 360 58 397 -17 376 13 l 93 814 b -19 956 61 906 -19 890 b 36 997 -19 979 6 997 b 229 993 86 997 131 993 b 426 997 326 993 376 997 b 493 950 469 997 493 981 b 414 839 493 888 414 911 b 428 774 414 824 419 799 l 588 285 l 735 700 l 694 814 b 589 956 663 906 589 890 b 644 997 589 979 614 997 b 829 993 693 997 732 993 b 1031 997 928 993 981 997 b 1096 950 1074 997 1096 981 b 1008 839 1096 888 1008 911 b 1022 774 1008 819 1017 790 l 1186 288 l 1331 757 b 1349 839 1344 801 1349 828 b 1254 950 1349 911 1254 888 b 1319 997 1254 981 1275 997 b 1451 993 1368 997 1413 993 b 1575 997 1492 993 1533 997 "},"X":{"ha":1082,"x_min":0,"x_max":0,"o":"m 964 171 b 1099 42 1031 79 1099 99 b 1044 -4 1099 13 1074 -4 b 836 0 1007 -4 926 0 b 624 -4 746 0 667 -4 b 556 40 578 -4 556 13 b 628 129 556 93 628 83 b 594 199 628 150 613 174 l 475 365 l 339 196 b 306 133 317 168 306 151 b 392 42 306 81 392 99 b 324 -4 392 14 369 -4 b 165 0 294 -4 207 0 b 39 -4 131 0 61 -4 b -17 40 6 -4 -17 13 b 161 207 -17 101 54 81 l 393 479 l 151 815 b 15 953 82 913 15 897 b 71 999 15 982 40 999 b 272 994 107 999 181 994 b 479 999 360 994 435 999 b 547 954 524 999 547 982 b 478 863 547 900 478 914 b 513 793 478 843 492 822 l 611 658 l 724 800 b 754 860 738 818 754 840 b 678 953 754 908 678 894 b 744 999 678 981 700 999 b 890 994 775 999 849 994 b 1011 999 925 994 988 999 b 1067 954 1044 999 1067 982 b 935 833 1067 897 1001 913 l 693 544 l 964 171 "},"Y":{"ha":1025,"x_min":0,"x_max":0,"o":"m 985 997 b 1035 956 1017 997 1035 979 b 933 839 1035 894 971 906 l 658 356 l 658 182 b 761 44 658 82 761 115 b 700 -4 761 19 743 -4 b 510 0 658 -4 615 0 b 319 -4 406 0 360 -4 b 258 44 276 -4 258 19 b 361 182 258 115 361 82 l 361 364 l 93 839 b -1 954 57 903 -1 897 b 49 997 -1 979 18 997 b 238 993 96 997 143 993 b 429 997 326 993 383 997 b 501 950 474 997 501 981 b 425 847 501 889 425 914 b 458 764 425 832 433 811 l 592 513 l 733 764 b 763 843 760 811 763 828 b 671 950 763 914 671 889 b 735 997 671 981 692 997 b 861 993 779 997 824 993 b 985 997 897 993 938 997 "},"Ý":{"ha":1025,"x_min":0,"x_max":0,"o":"m 496 1051 b 449 1081 465 1051 449 1065 b 463 1118 449 1092 456 1107 b 568 1274 503 1181 538 1231 b 683 1317 589 1304 611 1317 b 789 1275 774 1317 789 1301 b 729 1196 789 1247 771 1231 b 576 1078 681 1156 636 1122 b 496 1051 550 1058 521 1051 m 985 997 b 1035 956 1017 997 1035 979 b 933 839 1035 894 971 906 l 658 356 l 658 182 b 761 44 658 82 761 115 b 700 -4 761 19 743 -4 b 510 0 658 -4 615 0 b 319 -4 406 0 360 -4 b 258 44 276 -4 258 19 b 361 182 258 115 361 82 l 361 364 l 93 839 b -1 954 57 903 -1 897 b 49 997 -1 979 18 997 b 238 993 96 997 143 993 b 429 997 326 993 383 997 b 501 950 474 997 501 981 b 425 847 501 889 425 914 b 458 764 425 832 433 811 l 592 513 l 733 764 b 763 843 760 811 763 828 b 671 950 763 914 671 889 b 735 997 671 981 692 997 b 861 993 779 997 824 993 b 985 997 897 993 938 997 "},"Ŷ":{"ha":1025,"x_min":0,"x_max":0,"o":"m 379 1061 b 325 1103 344 1061 325 1083 b 344 1149 325 1117 331 1129 b 447 1275 376 1193 408 1233 b 561 1319 479 1308 499 1319 b 675 1275 624 1319 643 1308 b 778 1149 714 1233 746 1193 b 797 1103 792 1129 797 1117 b 743 1061 797 1083 778 1061 b 676 1090 726 1061 706 1065 l 561 1188 l 446 1090 b 379 1061 417 1065 396 1061 m 985 997 b 1035 956 1017 997 1035 979 b 933 839 1035 894 971 906 l 658 356 l 658 182 b 761 44 658 82 761 115 b 700 -4 761 19 743 -4 b 510 0 658 -4 615 0 b 319 -4 406 0 360 -4 b 258 44 276 -4 258 19 b 361 182 258 115 361 82 l 361 364 l 93 839 b -1 954 57 903 -1 897 b 49 997 -1 979 18 997 b 238 993 96 997 143 993 b 429 997 326 993 383 997 b 501 950 474 997 501 981 b 425 847 501 889 425 914 b 458 764 425 832 433 811 l 592 513 l 733 764 b 763 843 760 811 763 828 b 671 950 763 914 671 889 b 735 997 671 981 692 997 b 861 993 779 997 824 993 b 985 997 897 993 938 997 "},"Ÿ":{"ha":1025,"x_min":0,"x_max":0,"o":"m 393 1061 b 267 1175 321 1061 267 1111 b 396 1293 267 1244 321 1293 b 519 1178 468 1293 519 1244 b 393 1061 519 1111 468 1061 m 715 1063 b 592 1175 644 1063 592 1111 b 719 1292 592 1244 644 1292 b 842 1178 790 1292 842 1244 b 715 1063 842 1111 790 1063 m 985 997 b 1035 956 1017 997 1035 979 b 933 839 1035 894 971 906 l 658 356 l 658 182 b 761 44 658 82 761 115 b 700 -4 761 19 743 -4 b 510 0 658 -4 615 0 b 319 -4 406 0 360 -4 b 258 44 276 -4 258 19 b 361 182 258 115 361 82 l 361 364 l 93 839 b -1 954 57 903 -1 897 b 49 997 -1 979 18 997 b 238 993 96 997 143 993 b 429 997 326 993 383 997 b 501 950 474 997 501 981 b 425 847 501 889 425 914 b 458 764 425 832 433 811 l 592 513 l 733 764 b 763 843 760 811 763 828 b 671 950 763 914 671 889 b 735 997 671 981 692 997 b 861 993 779 997 824 993 b 985 997 897 993 938 997 "},"Ỳ":{"ha":1025,"x_min":0,"x_max":0,"o":"m 371 1196 b 311 1275 329 1231 311 1247 b 417 1317 311 1301 326 1317 b 532 1274 489 1317 511 1304 b 638 1118 561 1231 599 1181 b 651 1081 644 1107 651 1092 b 604 1051 651 1065 635 1051 b 524 1078 579 1051 550 1058 b 371 1196 464 1122 419 1156 m 985 997 b 1035 956 1017 997 1035 979 b 933 839 1035 894 971 906 l 658 356 l 658 182 b 761 44 658 82 761 115 b 700 -4 761 19 743 -4 b 510 0 658 -4 615 0 b 319 -4 406 0 360 -4 b 258 44 276 -4 258 19 b 361 182 258 115 361 82 l 361 364 l 93 839 b -1 954 57 903 -1 897 b 49 997 -1 979 18 997 b 238 993 96 997 143 993 b 429 997 326 993 383 997 b 501 950 474 997 501 981 b 425 847 501 889 425 914 b 458 764 425 832 433 811 l 592 513 l 733 764 b 763 843 760 811 763 828 b 671 950 763 914 671 889 b 735 997 671 981 692 997 b 861 993 779 997 824 993 b 985 997 897 993 938 997 "},"Z":{"ha":1013,"x_min":0,"x_max":0,"o":"m 957 376 b 1007 321 982 376 1007 356 b 964 186 1007 286 997 260 l 896 38 b 814 -36 871 -15 849 -36 b 696 0 772 -36 764 0 l 239 0 b 79 -4 143 0 117 -4 b 14 51 36 -4 14 29 b 28 94 14 67 18 81 l 569 864 l 436 864 b 164 690 321 864 261 793 b 100 650 140 665 125 650 b 50 706 75 650 50 671 b 88 818 50 740 64 765 l 149 957 b 231 1031 172 1010 196 1031 b 349 994 272 1031 281 994 l 735 994 b 897 999 831 994 860 999 b 964 943 940 999 964 968 b 949 897 964 929 961 914 l 408 131 l 596 131 b 892 336 715 131 789 214 b 957 376 914 363 932 376 "},"Ź":{"ha":1013,"x_min":0,"x_max":0,"o":"m 508 1051 b 461 1081 478 1051 461 1065 b 475 1118 461 1092 468 1107 b 581 1274 515 1181 550 1231 b 696 1317 601 1304 624 1317 b 801 1275 786 1317 801 1301 b 742 1196 801 1247 783 1231 b 589 1078 693 1156 649 1122 b 508 1051 563 1058 533 1051 m 957 376 b 1007 321 982 376 1007 356 b 964 186 1007 286 997 260 l 896 38 b 814 -36 871 -15 849 -36 b 696 0 772 -36 764 0 l 239 0 b 79 -4 143 0 117 -4 b 14 51 36 -4 14 29 b 28 94 14 67 18 81 l 569 864 l 436 864 b 164 690 321 864 261 793 b 100 650 140 665 125 650 b 50 706 75 650 50 671 b 88 818 50 740 64 765 l 149 957 b 231 1031 172 1010 196 1031 b 349 994 272 1031 281 994 l 735 994 b 897 999 831 994 860 999 b 964 943 940 999 964 968 b 949 897 964 929 961 914 l 408 131 l 596 131 b 892 336 715 131 789 214 b 957 376 914 363 932 376 "},"Ž":{"ha":1013,"x_min":0,"x_max":0,"o":"m 460 1114 b 357 1240 421 1156 389 1196 b 338 1286 343 1260 338 1272 b 392 1328 338 1306 357 1328 b 458 1299 408 1328 429 1324 l 574 1201 l 689 1299 b 756 1328 718 1324 739 1328 b 810 1286 790 1328 810 1306 b 790 1240 810 1272 804 1260 b 688 1114 758 1196 726 1156 b 574 1069 656 1081 636 1069 b 460 1114 511 1069 492 1081 m 957 376 b 1007 321 982 376 1007 356 b 964 186 1007 286 997 260 l 896 38 b 814 -36 871 -15 849 -36 b 696 0 772 -36 764 0 l 239 0 b 79 -4 143 0 117 -4 b 14 51 36 -4 14 29 b 28 94 14 67 18 81 l 569 864 l 436 864 b 164 690 321 864 261 793 b 100 650 140 665 125 650 b 50 706 75 650 50 671 b 88 818 50 740 64 765 l 149 957 b 231 1031 172 1010 196 1031 b 349 994 272 1031 281 994 l 735 994 b 897 999 831 994 860 999 b 964 943 940 999 964 968 b 949 897 964 929 961 914 l 408 131 l 596 131 b 892 336 715 131 789 214 b 957 376 914 363 932 376 "},"Ż":{"ha":1013,"x_min":0,"x_max":0,"o":"m 569 1061 b 443 1175 497 1061 443 1111 b 571 1293 443 1244 496 1293 b 696 1178 643 1293 696 1244 b 569 1061 696 1111 644 1061 m 957 376 b 1007 321 982 376 1007 356 b 964 186 1007 286 997 260 l 896 38 b 814 -36 871 -15 849 -36 b 696 0 772 -36 764 0 l 239 0 b 79 -4 143 0 117 -4 b 14 51 36 -4 14 29 b 28 94 14 67 18 81 l 569 864 l 436 864 b 164 690 321 864 261 793 b 100 650 140 665 125 650 b 50 706 75 650 50 671 b 88 818 50 740 64 765 l 149 957 b 231 1031 172 1010 196 1031 b 349 994 272 1031 281 994 l 735 994 b 897 999 831 994 860 999 b 964 943 940 999 964 968 b 949 897 964 929 961 914 l 408 131 l 596 131 b 892 336 715 131 789 214 b 957 376 914 363 932 376 "},"a":{"ha":894,"x_min":0,"x_max":0,"o":"m 889 153 b 918 119 904 150 918 139 b 703 -11 918 72 846 -11 b 540 76 638 -11 578 19 b 279 -17 490 35 400 -17 b 24 203 119 -17 24 74 b 322 433 24 331 128 433 b 474 415 388 433 439 425 l 472 429 b 336 565 460 519 406 565 b 190 531 275 565 229 547 b 124 507 165 519 142 507 b 82 553 104 507 82 524 b 142 642 82 588 117 622 b 422 724 204 690 296 724 b 735 493 592 724 713 658 l 765 269 b 889 153 776 188 808 168 m 401 132 b 508 167 443 132 485 150 l 488 315 b 418 322 471 319 447 322 b 299 233 351 322 299 297 b 401 132 299 168 344 132 "},"á":{"ha":894,"x_min":0,"x_max":0,"o":"m 374 796 b 326 825 343 796 326 810 b 340 863 326 836 333 851 b 446 1018 381 925 415 975 b 561 1061 467 1049 489 1061 b 667 1019 651 1061 667 1046 b 607 940 667 992 649 975 b 454 822 558 900 514 867 b 374 796 428 803 399 796 m 889 153 b 918 119 904 150 918 139 b 703 -11 918 72 846 -11 b 540 76 638 -11 578 19 b 279 -17 490 35 400 -17 b 24 203 119 -17 24 74 b 322 433 24 331 128 433 b 474 415 388 433 439 425 l 472 429 b 336 565 460 519 406 565 b 190 531 275 565 229 547 b 124 507 165 519 142 507 b 82 553 104 507 82 524 b 142 642 82 588 117 622 b 422 724 204 690 296 724 b 735 493 592 724 713 658 l 765 269 b 889 153 776 188 808 168 m 401 132 b 508 167 443 132 485 150 l 488 315 b 418 322 471 319 447 322 b 299 233 351 322 299 297 b 401 132 299 168 344 132 "},"ă":{"ha":894,"x_min":0,"x_max":0,"o":"m 433 806 b 221 943 332 806 260 860 b 201 1017 207 972 201 994 b 253 1063 201 1046 225 1063 b 329 1008 285 1063 304 1040 b 433 942 360 969 393 942 b 538 1008 474 942 507 969 b 614 1063 563 1040 582 1063 b 665 1017 642 1063 665 1046 b 646 943 665 994 660 972 b 433 806 607 860 535 806 m 889 153 b 918 119 904 150 918 139 b 703 -11 918 72 846 -11 b 540 76 638 -11 578 19 b 279 -17 490 35 400 -17 b 24 203 119 -17 24 74 b 322 433 24 331 128 433 b 474 415 388 433 439 425 l 472 429 b 336 565 460 519 406 565 b 190 531 275 565 229 547 b 124 507 165 519 142 507 b 82 553 104 507 82 524 b 142 642 82 588 117 622 b 422 724 204 690 296 724 b 735 493 592 724 713 658 l 765 269 b 889 153 776 188 808 168 m 401 132 b 508 167 443 132 485 150 l 488 315 b 418 322 471 319 447 322 b 299 233 351 322 299 297 b 401 132 299 168 344 132 "},"â":{"ha":894,"x_min":0,"x_max":0,"o":"m 257 806 b 203 847 222 806 203 828 b 222 893 203 861 208 874 b 325 1019 254 938 286 978 b 439 1064 357 1053 376 1064 b 553 1019 501 1064 521 1053 b 656 893 592 978 624 938 b 675 847 669 874 675 861 b 621 806 675 828 656 806 b 554 835 604 806 583 810 l 439 932 l 324 835 b 257 806 294 810 274 806 m 889 153 b 918 119 904 150 918 139 b 703 -11 918 72 846 -11 b 540 76 638 -11 578 19 b 279 -17 490 35 400 -17 b 24 203 119 -17 24 74 b 322 433 24 331 128 433 b 474 415 388 433 439 425 l 472 429 b 336 565 460 519 406 565 b 190 531 275 565 229 547 b 124 507 165 519 142 507 b 82 553 104 507 82 524 b 142 642 82 588 117 622 b 422 724 204 690 296 724 b 735 493 592 724 713 658 l 765 269 b 889 153 776 188 808 168 m 401 132 b 508 167 443 132 485 150 l 488 315 b 418 322 471 319 447 322 b 299 233 351 322 299 297 b 401 132 299 168 344 132 "},"ä":{"ha":894,"x_min":0,"x_max":0,"o":"m 271 806 b 144 919 199 806 144 856 b 274 1038 144 989 199 1038 b 397 922 346 1038 397 989 b 271 806 397 856 346 806 m 593 807 b 469 919 522 807 469 856 b 597 1036 469 989 522 1036 b 719 922 668 1036 719 989 b 593 807 719 856 668 807 m 889 153 b 918 119 904 150 918 139 b 703 -11 918 72 846 -11 b 540 76 638 -11 578 19 b 279 -17 490 35 400 -17 b 24 203 119 -17 24 74 b 322 433 24 331 128 433 b 474 415 388 433 439 425 l 472 429 b 336 565 460 519 406 565 b 190 531 275 565 229 547 b 124 507 165 519 142 507 b 82 553 104 507 82 524 b 142 642 82 588 117 622 b 422 724 204 690 296 724 b 735 493 592 724 713 658 l 765 269 b 889 153 776 188 808 168 m 401 132 b 508 167 443 132 485 150 l 488 315 b 418 322 471 319 447 322 b 299 233 351 322 299 297 b 401 132 299 168 344 132 "},"à":{"ha":894,"x_min":0,"x_max":0,"o":"m 249 940 b 189 1019 207 975 189 992 b 294 1061 189 1046 204 1061 b 410 1018 367 1061 389 1049 b 515 863 439 975 476 925 b 529 825 522 851 529 836 b 482 796 529 810 513 796 b 401 822 457 796 428 803 b 249 940 342 867 297 900 m 889 153 b 918 119 904 150 918 139 b 703 -11 918 72 846 -11 b 540 76 638 -11 578 19 b 279 -17 490 35 400 -17 b 24 203 119 -17 24 74 b 322 433 24 331 128 433 b 474 415 388 433 439 425 l 472 429 b 336 565 460 519 406 565 b 190 531 275 565 229 547 b 124 507 165 519 142 507 b 82 553 104 507 82 524 b 142 642 82 588 117 622 b 422 724 204 690 296 724 b 735 493 592 724 713 658 l 765 269 b 889 153 776 188 808 168 m 401 132 b 508 167 443 132 485 150 l 488 315 b 418 322 471 319 447 322 b 299 233 351 322 299 297 b 401 132 299 168 344 132 "},"ā":{"ha":894,"x_min":0,"x_max":0,"o":"m 249 857 b 199 924 213 857 199 881 b 249 990 199 967 213 990 b 432 988 304 990 374 988 b 615 990 490 988 560 990 b 665 924 651 990 665 967 b 615 857 665 881 651 857 b 432 860 560 857 490 860 b 249 857 374 860 304 857 m 889 153 b 918 119 904 150 918 139 b 703 -11 918 72 846 -11 b 540 76 638 -11 578 19 b 279 -17 490 35 400 -17 b 24 203 119 -17 24 74 b 322 433 24 331 128 433 b 474 415 388 433 439 425 l 472 429 b 336 565 460 519 406 565 b 190 531 275 565 229 547 b 124 507 165 519 142 507 b 82 553 104 507 82 524 b 142 642 82 588 117 622 b 422 724 204 690 296 724 b 735 493 592 724 713 658 l 765 269 b 889 153 776 188 808 168 m 401 132 b 508 167 443 132 485 150 l 488 315 b 418 322 471 319 447 322 b 299 233 351 322 299 297 b 401 132 299 168 344 132 "},"ą":{"ha":894,"x_min":0,"x_max":0,"o":"m 918 119 b 772 -4 918 81 869 17 b 711 -137 732 -47 711 -92 b 740 -179 711 -169 725 -179 b 769 -171 753 -179 763 -175 b 793 -162 778 -167 783 -162 b 825 -197 808 -162 825 -178 b 803 -240 825 -214 818 -228 b 689 -279 778 -261 739 -279 b 567 -161 619 -279 567 -235 b 660 -7 567 -107 600 -54 b 540 76 611 4 569 32 b 279 -17 490 35 400 -17 b 24 203 119 -17 24 74 b 322 433 24 331 128 433 b 474 415 388 433 439 425 l 472 429 b 336 565 460 519 406 565 b 190 531 275 565 229 547 b 124 507 165 519 142 507 b 82 553 104 507 82 524 b 142 642 82 588 117 622 b 422 724 204 690 296 724 b 735 493 592 724 713 658 l 765 269 b 889 153 776 188 808 168 b 918 119 904 150 918 139 m 401 132 b 508 167 443 132 485 150 l 488 315 b 418 322 471 319 447 322 b 299 233 351 322 299 297 b 401 132 299 168 344 132 "},"å":{"ha":894,"x_min":0,"x_max":0,"o":"m 435 783 b 249 933 311 783 249 835 b 440 1081 249 1032 318 1081 b 625 939 560 1081 625 1033 b 435 783 625 838 560 783 m 439 1007 b 378 928 399 1007 378 985 b 436 858 378 882 400 858 b 496 938 478 858 496 881 b 439 1007 496 985 474 1007 m 889 153 b 918 119 904 150 918 139 b 703 -11 918 72 846 -11 b 540 76 638 -11 578 19 b 279 -17 490 35 400 -17 b 24 203 119 -17 24 74 b 322 433 24 331 128 433 b 474 415 388 433 439 425 l 472 429 b 336 565 460 519 406 565 b 190 531 275 565 229 547 b 124 507 165 519 142 507 b 82 553 104 507 82 524 b 142 642 82 588 117 622 b 422 724 204 690 296 724 b 735 493 592 724 713 658 l 765 269 b 889 153 776 188 808 168 m 401 132 b 508 167 443 132 485 150 l 488 315 b 418 322 471 319 447 322 b 299 233 351 322 299 297 b 401 132 299 168 344 132 "},"ã":{"ha":894,"x_min":0,"x_max":0,"o":"m 247 828 b 203 876 218 828 203 846 b 214 935 203 889 206 910 b 346 1046 238 1007 283 1046 b 524 949 444 1046 483 949 b 564 988 538 949 547 961 b 621 1033 581 1015 593 1033 b 665 985 650 1033 665 1015 b 654 926 665 972 663 951 b 522 815 631 854 585 815 b 346 913 421 815 382 913 b 304 874 329 913 315 892 b 247 828 288 846 275 828 m 889 153 b 918 119 904 150 918 139 b 703 -11 918 72 846 -11 b 540 76 638 -11 578 19 b 279 -17 490 35 400 -17 b 24 203 119 -17 24 74 b 322 433 24 331 128 433 b 474 415 388 433 439 425 l 472 429 b 336 565 460 519 406 565 b 190 531 275 565 229 547 b 124 507 165 519 142 507 b 82 553 104 507 82 524 b 142 642 82 588 117 622 b 422 724 204 690 296 724 b 735 493 592 724 713 658 l 765 269 b 889 153 776 188 808 168 m 401 132 b 508 167 443 132 485 150 l 488 315 b 418 322 471 319 447 322 b 299 233 351 322 299 297 b 401 132 299 168 344 132 "},"æ":{"ha":1281,"x_min":0,"x_max":0,"o":"m 1218 224 b 1256 183 1244 224 1256 196 b 1243 143 1256 174 1251 157 b 878 -31 1203 76 1072 -31 b 582 90 754 -31 651 14 b 279 -17 535 49 433 -17 b 24 203 119 -17 24 74 b 322 433 24 331 128 433 b 486 415 397 433 450 425 l 483 438 b 335 574 471 528 415 574 b 189 539 274 574 228 556 b 122 515 164 528 140 515 b 81 561 103 515 81 532 b 140 650 81 596 115 631 b 433 732 203 699 294 732 b 661 667 528 732 607 711 b 907 733 731 710 815 733 b 1238 450 1110 733 1238 582 b 1193 383 1238 401 1222 393 l 811 258 b 1004 139 853 190 919 139 b 1165 197 1064 139 1108 158 b 1218 224 1194 217 1204 224 m 861 608 b 760 440 800 608 760 546 b 767 371 760 417 763 393 l 935 431 b 971 476 957 439 971 449 b 861 608 971 538 922 608 m 407 132 b 531 165 458 132 506 150 b 492 317 508 210 494 261 b 424 322 474 319 451 322 b 299 232 351 322 299 296 b 407 132 299 167 344 132 "},"b":{"ha":969,"x_min":0,"x_max":0,"o":"m 622 726 b 938 363 799 726 938 597 b 542 -25 938 142 765 -25 b 278 38 364 -25 326 38 b 135 -12 233 38 178 -12 b 81 53 99 -12 81 13 l 81 785 b -19 910 81 875 -19 842 b 144 1017 -19 946 25 967 b 296 1067 242 1057 279 1067 b 350 988 342 1067 350 1025 l 350 583 b 622 726 406 663 494 726 m 519 103 b 651 290 593 103 651 163 b 488 544 651 443 574 544 b 350 363 407 544 350 465 l 350 343 b 519 103 350 219 413 103 "},"":{"ha":969,"x_min":0,"x_max":0,"o":"m 622 726 b 350 583 494 726 406 663 l 350 988 b 296 1067 350 1025 342 1067 b 144 1017 279 1067 242 1057 b -19 910 25 967 -19 946 b 81 785 -19 842 81 875 l 81 53 b 135 -12 81 13 99 -12 b 278 38 178 -12 233 38 b 542 -25 326 38 364 -25 b 938 363 765 -25 938 142 b 622 726 938 597 799 726 m 519 103 b 350 343 413 103 350 219 l 350 363 b 488 544 350 465 407 544 b 651 290 574 544 651 443 b 519 103 651 163 593 103 "},"c":{"ha":807,"x_min":0,"x_max":0,"o":"m 425 -31 b 31 336 200 -31 31 111 b 440 732 31 582 231 732 b 757 538 621 732 757 619 b 643 393 757 500 729 450 b 589 372 617 375 601 372 b 535 422 558 372 540 396 b 411 626 519 499 500 626 b 308 450 346 626 308 558 b 547 147 308 254 432 147 b 726 219 632 147 686 190 b 761 235 742 231 750 235 b 796 197 783 235 796 214 b 785 154 796 185 792 171 b 425 -31 751 78 635 -31 "},"ć":{"ha":807,"x_min":0,"x_max":0,"o":"m 374 796 b 326 825 343 796 326 810 b 340 863 326 836 333 851 b 446 1018 381 925 415 975 b 561 1061 467 1049 489 1061 b 667 1019 651 1061 667 1046 b 607 940 667 992 649 975 b 454 822 558 900 514 867 b 374 796 428 803 399 796 m 425 -31 b 31 336 200 -31 31 111 b 440 732 31 582 231 732 b 757 538 621 732 757 619 b 643 393 757 500 729 450 b 589 372 617 375 601 372 b 535 422 558 372 540 396 b 411 626 519 499 500 626 b 308 450 346 626 308 558 b 547 147 308 254 432 147 b 726 219 632 147 686 190 b 761 235 742 231 750 235 b 796 197 783 235 796 214 b 785 154 796 185 792 171 b 425 -31 751 78 635 -31 "},"č":{"ha":807,"x_min":0,"x_max":0,"o":"m 325 858 b 222 985 286 900 254 940 b 203 1031 208 1004 203 1017 b 257 1072 203 1050 222 1072 b 324 1043 274 1072 294 1068 l 439 946 l 554 1043 b 621 1072 583 1068 604 1072 b 675 1031 656 1072 675 1050 b 656 985 675 1017 669 1004 b 553 858 624 940 592 900 b 439 814 521 825 501 814 b 325 858 376 814 357 825 m 761 235 b 796 197 783 235 796 214 b 785 154 796 185 792 171 b 425 -31 751 78 635 -31 b 31 336 200 -31 31 111 b 440 732 31 582 231 732 b 757 538 621 732 757 619 b 643 393 757 500 729 450 b 589 372 617 375 601 372 b 535 422 558 372 540 396 b 411 626 519 499 500 626 b 308 450 346 626 308 558 b 547 147 308 254 432 147 b 726 219 632 147 686 190 b 761 235 742 231 750 235 "},"ç":{"ha":807,"x_min":0,"x_max":0,"o":"m 761 235 b 796 197 783 235 796 214 b 785 154 796 185 792 171 b 443 -31 753 81 642 -24 l 436 -56 b 482 -51 451 -53 467 -51 b 631 -161 569 -51 631 -97 b 458 -279 631 -232 561 -279 b 314 -247 399 -279 351 -268 b 289 -208 294 -236 289 -224 b 319 -175 289 -190 301 -175 b 353 -183 328 -175 339 -179 b 446 -203 383 -193 413 -203 b 503 -172 481 -203 503 -190 b 451 -143 503 -154 486 -143 b 388 -158 432 -143 408 -150 b 331 -111 369 -154 339 -128 l 356 -26 b 31 336 167 0 31 135 b 440 732 31 582 231 732 b 757 538 621 732 757 619 b 643 393 757 500 729 450 b 589 372 617 375 601 372 b 535 422 558 372 540 396 b 411 626 519 499 500 626 b 308 450 346 626 308 558 b 547 147 308 254 432 147 b 726 219 632 147 686 190 b 761 235 742 231 750 235 "},"ĉ":{"ha":807,"x_min":0,"x_max":0,"o":"m 257 806 b 203 847 222 806 203 828 b 222 893 203 861 208 874 b 325 1019 254 938 286 978 b 439 1064 357 1053 376 1064 b 553 1019 501 1064 521 1053 b 656 893 592 978 624 938 b 675 847 669 874 675 861 b 621 806 675 828 656 806 b 554 835 604 806 583 810 l 439 932 l 324 835 b 257 806 294 810 274 806 m 761 235 b 796 197 783 235 796 214 b 785 154 796 185 792 171 b 425 -31 751 78 635 -31 b 31 336 200 -31 31 111 b 440 732 31 582 231 732 b 757 538 621 732 757 619 b 643 393 757 500 729 450 b 589 372 617 375 601 372 b 535 422 558 372 540 396 b 411 626 519 499 500 626 b 308 450 346 626 308 558 b 547 147 308 254 432 147 b 726 219 632 147 686 190 b 761 235 742 231 750 235 "},"ċ":{"ha":807,"x_min":0,"x_max":0,"o":"m 435 806 b 308 919 363 806 308 856 b 436 1038 308 989 361 1038 b 561 922 508 1038 561 989 b 435 806 561 856 510 806 m 425 -31 b 31 336 200 -31 31 111 b 440 732 31 582 231 732 b 757 538 621 732 757 619 b 643 393 757 500 729 450 b 589 372 617 375 601 372 b 535 422 558 372 540 396 b 411 626 519 499 500 626 b 308 450 346 626 308 558 b 547 147 308 254 432 147 b 726 219 632 147 686 190 b 761 235 742 231 750 235 b 796 197 783 235 796 214 b 785 154 796 185 792 171 b 425 -31 751 78 635 -31 "},"d":{"ha":983,"x_min":0,"x_max":0,"o":"m 878 247 b 968 118 878 157 968 179 b 801 18 968 76 926 60 b 661 -21 701 -15 676 -21 b 608 61 614 -21 608 25 l 608 115 b 347 -25 556 38 471 -25 b 32 336 171 -25 32 108 b 419 726 32 564 200 726 b 608 669 499 726 561 706 l 608 792 b 504 917 608 882 504 844 b 678 1024 504 953 547 972 b 825 1067 788 1067 807 1067 b 878 988 868 1067 878 1029 l 878 247 m 478 157 b 608 339 557 157 608 236 l 608 358 b 444 599 608 486 543 599 b 318 411 374 599 318 539 b 478 157 318 258 394 157 "},"ð":{"ha":908,"x_min":0,"x_max":0,"o":"m 644 911 b 881 422 775 797 881 619 b 428 -25 881 118 657 -25 b 32 347 200 -25 32 121 b 394 726 32 576 181 726 b 492 713 431 726 463 722 b 422 804 471 747 447 778 l 331 760 b 290 749 315 753 303 749 b 238 818 267 749 238 774 b 276 868 238 839 249 854 l 322 890 l 314 896 b 208 1003 242 946 208 967 b 288 1058 208 1036 239 1058 b 493 1010 354 1058 428 1039 b 531 990 506 1004 518 997 l 642 1044 b 681 1056 657 1051 668 1056 b 736 985 704 1056 736 1029 b 696 936 736 965 724 950 l 644 911 m 475 125 b 596 322 547 125 596 197 b 432 588 596 451 526 588 b 318 399 367 588 318 526 b 475 125 318 236 399 125 "},"ď":{"ha":983,"x_min":0,"x_max":0,"o":"m 1008 1078 b 1103 1024 1076 1078 1103 1064 b 1047 729 1103 939 1072 806 b 992 686 1036 697 1017 686 b 947 732 964 686 947 697 l 949 1022 b 1008 1078 949 1064 960 1078 m 878 247 b 968 118 878 157 968 179 b 801 18 968 76 926 60 b 661 -21 701 -15 676 -21 b 608 61 614 -21 608 25 l 608 115 b 347 -25 556 38 471 -25 b 32 336 171 -25 32 108 b 419 726 32 564 200 726 b 608 669 499 726 561 706 l 608 792 b 504 917 608 882 504 844 b 678 1024 504 953 547 972 b 825 1067 788 1067 807 1067 b 878 988 868 1067 878 1029 l 878 247 m 478 157 b 608 339 557 157 608 236 l 608 358 b 444 599 608 486 543 599 b 318 411 374 599 318 539 b 478 157 318 258 394 157 "},"đ":{"ha":983,"x_min":0,"x_max":0,"o":"m 878 247 b 968 118 878 157 968 179 b 801 18 968 76 926 60 b 661 -21 701 -15 676 -21 b 608 61 614 -21 608 25 l 608 108 b 347 -25 556 33 471 -25 b 32 318 171 -25 32 101 b 419 689 32 535 200 689 b 608 635 499 689 561 668 l 608 714 l 425 714 b 363 775 376 714 363 735 b 425 836 363 814 376 836 l 601 836 b 504 922 578 876 504 869 b 678 1029 504 967 547 986 b 825 1067 788 1065 807 1067 b 878 988 868 1067 878 1029 l 878 836 l 911 836 b 974 775 960 836 974 814 b 911 714 974 735 960 714 l 878 714 l 878 247 m 478 147 b 608 321 557 147 608 222 l 608 339 b 444 567 608 460 543 567 b 318 389 374 567 318 510 b 478 147 318 244 394 147 "},"e":{"ha":835,"x_min":0,"x_max":0,"o":"m 776 224 b 814 183 803 224 814 196 b 801 144 814 171 810 160 b 424 -31 760 74 626 -31 b 31 343 190 -31 31 125 b 443 733 31 585 225 733 b 788 447 664 733 788 582 b 743 383 788 399 772 393 l 353 258 b 557 139 397 190 467 139 b 721 196 617 139 665 158 b 776 224 751 217 761 224 m 407 608 b 300 440 343 608 300 547 b 308 369 300 417 303 393 l 485 431 b 521 476 507 438 521 450 b 407 608 521 538 471 608 "},"é":{"ha":835,"x_min":0,"x_max":0,"o":"m 374 796 b 326 825 343 796 326 810 b 340 863 326 836 333 851 b 446 1018 381 925 415 975 b 561 1061 467 1049 489 1061 b 667 1019 651 1061 667 1046 b 607 940 667 992 649 975 b 454 822 558 900 514 867 b 374 796 428 803 399 796 m 776 224 b 814 183 803 224 814 196 b 801 144 814 171 810 160 b 424 -31 760 74 626 -31 b 31 343 190 -31 31 125 b 443 733 31 585 225 733 b 788 447 664 733 788 582 b 743 383 788 399 772 393 l 353 258 b 557 139 397 190 467 139 b 721 196 617 139 665 158 b 776 224 751 217 761 224 m 407 608 b 300 440 343 608 300 547 b 308 369 300 417 303 393 l 485 431 b 521 476 507 438 521 450 b 407 608 521 538 471 608 "},"ĕ":{"ha":835,"x_min":0,"x_max":0,"o":"m 433 806 b 221 943 332 806 260 860 b 201 1017 207 972 201 994 b 253 1063 201 1046 225 1063 b 329 1008 285 1063 304 1040 b 433 942 360 969 393 942 b 538 1008 474 942 507 969 b 614 1063 563 1040 582 1063 b 665 1017 642 1063 665 1046 b 646 943 665 994 660 972 b 433 806 607 860 535 806 m 776 224 b 814 183 803 224 814 196 b 801 144 814 171 810 160 b 424 -31 760 74 626 -31 b 31 343 190 -31 31 125 b 443 733 31 585 225 733 b 788 447 664 733 788 582 b 743 383 788 399 772 393 l 353 258 b 557 139 397 190 467 139 b 721 196 617 139 665 158 b 776 224 751 217 761 224 m 407 608 b 300 440 343 608 300 547 b 308 369 300 417 303 393 l 485 431 b 521 476 507 438 521 450 b 407 608 521 538 471 608 "},"ě":{"ha":835,"x_min":0,"x_max":0,"o":"m 325 858 b 222 985 286 900 254 940 b 203 1031 208 1004 203 1017 b 257 1072 203 1050 222 1072 b 324 1043 274 1072 294 1068 l 439 946 l 554 1043 b 621 1072 583 1068 604 1072 b 675 1031 656 1072 675 1050 b 656 985 675 1017 669 1004 b 553 858 624 940 592 900 b 439 814 521 825 501 814 b 325 858 376 814 357 825 m 776 224 b 814 183 803 224 814 196 b 801 144 814 171 810 160 b 424 -31 760 74 626 -31 b 31 343 190 -31 31 125 b 443 733 31 585 225 733 b 788 447 664 733 788 582 b 743 383 788 399 772 393 l 353 258 b 557 139 397 190 467 139 b 721 196 617 139 665 158 b 776 224 751 217 761 224 m 407 608 b 300 440 343 608 300 547 b 308 369 300 417 303 393 l 485 431 b 521 476 507 438 521 450 b 407 608 521 538 471 608 "},"ê":{"ha":835,"x_min":0,"x_max":0,"o":"m 257 806 b 203 847 222 806 203 828 b 222 893 203 861 208 874 b 325 1019 254 938 286 978 b 439 1064 357 1053 376 1064 b 553 1019 501 1064 521 1053 b 656 893 592 978 624 938 b 675 847 669 874 675 861 b 621 806 675 828 656 806 b 554 835 604 806 583 810 l 439 932 l 324 835 b 257 806 294 810 274 806 m 776 224 b 814 183 803 224 814 196 b 801 144 814 171 810 160 b 424 -31 760 74 626 -31 b 31 343 190 -31 31 125 b 443 733 31 585 225 733 b 788 447 664 733 788 582 b 743 383 788 399 772 393 l 353 258 b 557 139 397 190 467 139 b 721 196 617 139 665 158 b 776 224 751 217 761 224 m 407 608 b 300 440 343 608 300 547 b 308 369 300 417 303 393 l 485 431 b 521 476 507 438 521 450 b 407 608 521 538 471 608 "},"ë":{"ha":835,"x_min":0,"x_max":0,"o":"m 271 806 b 144 919 199 806 144 856 b 274 1038 144 989 199 1038 b 397 922 346 1038 397 989 b 271 806 397 856 346 806 m 593 807 b 469 919 522 807 469 856 b 597 1036 469 989 522 1036 b 719 922 668 1036 719 989 b 593 807 719 856 668 807 m 776 224 b 814 183 803 224 814 196 b 801 144 814 171 810 160 b 424 -31 760 74 626 -31 b 31 343 190 -31 31 125 b 443 733 31 585 225 733 b 788 447 664 733 788 582 b 743 383 788 399 772 393 l 353 258 b 557 139 397 190 467 139 b 721 196 617 139 665 158 b 776 224 751 217 761 224 m 407 608 b 300 440 343 608 300 547 b 308 369 300 417 303 393 l 485 431 b 521 476 507 438 521 450 b 407 608 521 538 471 608 "},"ė":{"ha":835,"x_min":0,"x_max":0,"o":"m 435 806 b 308 919 363 806 308 856 b 436 1038 308 989 361 1038 b 561 922 508 1038 561 989 b 435 806 561 856 510 806 m 776 224 b 814 183 803 224 814 196 b 801 144 814 171 810 160 b 424 -31 760 74 626 -31 b 31 343 190 -31 31 125 b 443 733 31 585 225 733 b 788 447 664 733 788 582 b 743 383 788 399 772 393 l 353 258 b 557 139 397 190 467 139 b 721 196 617 139 665 158 b 776 224 751 217 761 224 m 407 608 b 300 440 343 608 300 547 b 308 369 300 417 303 393 l 485 431 b 521 476 507 438 521 450 b 407 608 521 538 471 608 "},"è":{"ha":835,"x_min":0,"x_max":0,"o":"m 249 940 b 189 1019 207 975 189 992 b 294 1061 189 1046 204 1061 b 410 1018 367 1061 389 1049 b 515 863 439 975 476 925 b 529 825 522 851 529 836 b 482 796 529 810 513 796 b 401 822 457 796 428 803 b 249 940 342 867 297 900 m 776 224 b 814 183 803 224 814 196 b 801 144 814 171 810 160 b 424 -31 760 74 626 -31 b 31 343 190 -31 31 125 b 443 733 31 585 225 733 b 788 447 664 733 788 582 b 743 383 788 399 772 393 l 353 258 b 557 139 397 190 467 139 b 721 196 617 139 665 158 b 776 224 751 217 761 224 m 407 608 b 300 440 343 608 300 547 b 308 369 300 417 303 393 l 485 431 b 521 476 507 438 521 450 b 407 608 521 538 471 608 "},"ē":{"ha":835,"x_min":0,"x_max":0,"o":"m 249 857 b 199 924 213 857 199 881 b 249 990 199 967 213 990 b 432 988 304 990 374 988 b 615 990 490 988 560 990 b 665 924 651 990 665 967 b 615 857 665 881 651 857 b 432 860 560 857 490 860 b 249 857 374 860 304 857 m 776 224 b 814 183 803 224 814 196 b 801 144 814 171 810 160 b 424 -31 760 74 626 -31 b 31 343 190 -31 31 125 b 443 733 31 585 225 733 b 788 447 664 733 788 582 b 743 383 788 399 772 393 l 353 258 b 557 139 397 190 467 139 b 721 196 617 139 665 158 b 776 224 751 217 761 224 m 407 608 b 300 440 343 608 300 547 b 308 369 300 417 303 393 l 485 431 b 521 476 507 438 521 450 b 407 608 521 538 471 608 "},"ę":{"ha":835,"x_min":0,"x_max":0,"o":"m 776 224 b 814 183 803 224 814 196 b 801 144 814 171 810 160 b 622 7 775 100 714 43 b 551 -137 576 -40 551 -87 b 581 -179 551 -169 565 -179 b 610 -171 593 -179 603 -175 b 633 -162 618 -167 624 -162 b 665 -197 649 -162 665 -178 b 643 -240 665 -214 658 -228 b 529 -279 618 -261 579 -279 b 407 -161 460 -279 407 -235 b 475 -28 407 -115 432 -69 b 424 -31 458 -29 442 -31 b 31 343 190 -31 31 125 b 443 733 31 585 225 733 b 788 447 664 733 788 582 b 743 383 788 399 772 393 l 353 258 b 557 139 397 190 467 139 b 721 196 617 139 665 158 b 776 224 751 217 761 224 m 407 608 b 300 440 343 608 300 547 b 308 369 300 417 303 393 l 485 431 b 521 476 507 438 521 450 b 407 608 521 538 471 608 "},"f":{"ha":581,"x_min":0,"x_max":0,"o":"m 547 703 b 589 667 574 703 589 690 b 585 619 589 649 586 629 b 540 578 581 592 568 578 l 410 578 l 410 174 b 508 42 410 78 508 110 b 450 -4 508 19 492 -4 b 275 0 411 -4 371 0 b 122 -4 190 0 157 -4 b 64 42 81 -4 64 18 b 140 174 64 101 140 78 l 140 578 l 51 578 b 7 619 24 578 11 592 b 3 667 6 629 3 649 b 44 703 3 690 18 703 l 117 703 b 78 853 99 742 78 783 b 375 1075 78 979 186 1075 b 647 950 525 1075 647 1003 b 578 822 647 919 626 882 b 519 785 560 800 540 785 b 474 825 496 785 479 800 b 389 974 454 911 450 974 b 319 881 342 974 319 931 b 381 703 319 794 354 751 l 547 703 "},"g":{"ha":894,"x_min":0,"x_max":0,"o":"m 674 190 b 908 -15 796 182 908 121 b 460 -272 908 -168 742 -272 b 18 -101 169 -272 18 -200 b 125 15 18 -50 56 -11 b 50 139 81 40 50 81 b 161 310 50 197 93 267 b 38 481 81 349 38 407 b 456 733 38 613 179 733 b 504 732 472 733 489 733 b 685 976 515 872 615 976 b 825 901 721 976 761 957 b 865 835 849 881 865 857 b 815 785 865 808 850 786 b 604 718 711 782 622 772 b 824 511 749 686 824 607 b 408 265 824 382 689 265 b 267 278 356 265 308 269 b 249 246 256 264 249 251 b 347 210 249 224 279 214 b 674 190 476 203 565 197 m 425 631 b 297 507 349 631 297 578 b 435 367 297 414 367 367 b 563 490 511 367 563 419 b 425 631 563 583 493 631 m 460 -171 b 656 -111 604 -171 656 -143 b 579 -61 656 -86 633 -68 b 243 -22 485 -49 363 -36 l 242 -22 b 215 -83 224 -42 215 -67 b 460 -171 215 -150 322 -171 "},"ğ":{"ha":894,"x_min":0,"x_max":0,"o":"m 411 806 b 199 943 310 806 238 860 b 179 1017 185 972 179 994 b 231 1063 179 1046 203 1063 b 307 1008 263 1063 282 1040 b 411 942 338 969 371 942 b 515 1008 451 942 485 969 b 592 1063 540 1040 560 1063 b 643 1017 619 1063 643 1046 b 624 943 643 994 638 972 b 411 806 585 860 513 806 m 674 190 b 908 -15 796 182 908 121 b 460 -272 908 -168 742 -272 b 18 -101 169 -272 18 -200 b 125 15 18 -50 56 -11 b 50 139 81 40 50 81 b 161 310 50 197 93 267 b 38 481 81 349 38 407 b 456 733 38 613 179 733 b 547 728 488 733 518 732 b 749 950 572 869 688 950 b 881 857 788 950 829 918 b 910 796 897 838 910 819 b 858 749 910 769 893 749 b 643 708 807 749 667 786 b 824 511 761 672 824 599 b 408 265 824 382 689 265 b 267 278 356 265 308 269 b 249 246 256 264 249 251 b 347 210 249 224 279 214 b 674 190 469 203 568 197 m 425 631 b 297 507 349 631 297 578 b 435 367 297 414 367 367 b 563 490 511 367 563 419 b 425 631 563 583 493 631 m 460 -171 b 656 -111 604 -171 656 -143 b 579 -61 656 -86 633 -68 b 243 -22 481 -49 367 -36 l 242 -22 b 215 -83 224 -42 215 -67 b 460 -171 215 -150 322 -171 "},"ĝ":{"ha":894,"x_min":0,"x_max":0,"o":"m 674 190 b 908 -15 796 182 908 121 b 460 -272 908 -168 742 -272 b 18 -101 169 -272 18 -200 b 125 15 18 -50 56 -11 b 50 139 81 40 50 81 b 161 310 50 197 93 267 b 38 481 81 349 38 407 b 456 733 38 613 179 733 b 547 728 488 733 518 732 b 574 810 553 758 561 785 b 532 835 563 814 549 821 l 417 932 l 301 835 b 235 806 272 810 251 806 b 181 847 200 806 181 828 b 200 893 181 861 186 874 b 303 1019 232 938 264 978 b 417 1064 335 1053 354 1064 b 531 1019 479 1064 499 1053 b 633 893 569 978 601 938 b 635 892 633 893 633 892 b 749 950 674 929 718 950 b 881 857 788 950 829 918 b 910 796 897 838 910 819 b 858 749 910 769 893 749 b 643 708 807 749 667 786 b 824 511 761 672 824 599 b 408 265 824 382 689 265 b 267 278 356 265 308 269 b 249 246 256 264 249 251 b 347 210 249 224 279 214 b 674 190 469 203 568 197 m 425 631 b 297 507 349 631 297 578 b 435 367 297 414 367 367 b 563 490 511 367 563 419 b 425 631 563 583 493 631 m 460 -171 b 656 -111 604 -171 656 -143 b 579 -61 656 -86 633 -68 b 243 -22 481 -49 367 -36 l 242 -22 b 215 -83 224 -42 215 -67 b 460 -171 215 -150 322 -171 "},"ģ":{"ha":894,"x_min":0,"x_max":0,"o":"m 407 751 b 304 857 338 751 304 786 b 460 1064 304 957 401 1064 b 490 1038 479 1064 490 1053 b 463 1000 490 1019 478 1013 b 428 949 444 986 428 967 b 469 913 428 929 451 922 b 519 844 494 901 519 888 b 407 751 519 793 471 751 m 674 190 b 908 -15 796 182 908 121 b 460 -272 908 -168 742 -272 b 18 -101 169 -272 18 -200 b 125 15 18 -50 56 -11 b 50 139 81 40 50 81 b 161 310 50 197 93 267 b 38 481 81 349 38 407 b 456 733 38 613 179 733 b 547 728 488 733 518 732 b 749 950 572 869 688 950 b 881 857 788 950 829 918 b 910 796 897 838 910 819 b 858 749 910 769 893 749 b 643 708 807 749 667 786 b 824 511 761 672 824 599 b 408 265 824 382 689 265 b 267 278 356 265 308 269 b 249 246 256 264 249 251 b 347 210 249 224 279 214 b 674 190 469 203 568 197 m 425 631 b 297 507 349 631 297 578 b 435 367 297 414 367 367 b 563 490 511 367 563 419 b 425 631 563 583 493 631 m 460 -171 b 656 -111 604 -171 656 -143 b 579 -61 656 -86 633 -68 b 243 -22 481 -49 367 -36 l 242 -22 b 215 -83 224 -42 215 -67 b 460 -171 215 -150 322 -171 "},"ġ":{"ha":894,"x_min":0,"x_max":0,"o":"m 413 806 b 286 919 340 806 286 856 b 414 1038 286 989 339 1038 b 539 922 486 1038 539 989 b 413 806 539 856 488 806 m 674 190 b 908 -15 796 182 908 121 b 460 -272 908 -168 742 -272 b 18 -101 169 -272 18 -200 b 125 15 18 -50 56 -11 b 50 139 81 40 50 81 b 161 310 50 197 93 267 b 38 481 81 349 38 407 b 456 733 38 613 179 733 b 547 728 488 733 518 732 b 749 950 572 869 688 950 b 881 857 788 950 829 918 b 910 796 897 838 910 819 b 858 749 910 769 893 749 b 643 708 807 749 667 786 b 824 511 761 672 824 599 b 408 265 824 382 689 265 b 267 278 356 265 308 269 b 249 246 256 264 249 251 b 347 210 249 224 279 214 b 674 190 469 203 568 197 m 425 631 b 297 507 349 631 297 578 b 435 367 297 414 367 367 b 563 490 511 367 563 419 b 425 631 563 583 493 631 m 460 -171 b 656 -111 604 -171 656 -143 b 579 -61 656 -86 633 -68 b 243 -22 481 -49 367 -36 l 242 -22 b 215 -83 224 -42 215 -67 b 460 -171 215 -150 322 -171 "},"h":{"ha":963,"x_min":0,"x_max":0,"o":"m 878 192 b 964 40 893 72 964 103 b 904 -3 964 15 942 -3 b 754 1 869 -3 839 1 b 601 -3 668 1 636 -3 b 539 43 557 -3 539 19 b 611 142 539 96 611 88 b 607 193 611 168 608 181 l 582 372 b 474 522 567 485 529 522 b 375 353 429 522 375 489 l 375 174 b 453 42 375 78 453 101 b 394 -4 453 19 436 -4 b 240 0 360 -4 325 0 b 88 -4 156 0 122 -4 b 29 42 46 -4 29 18 b 106 174 29 101 106 78 l 106 785 b 19 910 106 875 19 842 b 179 1017 19 946 63 967 b 322 1067 286 1063 306 1067 b 375 988 364 1067 375 1033 l 375 581 l 376 581 b 613 719 418 654 503 719 b 844 450 739 719 822 626 l 878 192 "},"ħ":{"ha":960,"x_min":0,"x_max":0,"o":"m 878 192 b 964 40 896 72 964 103 b 904 -3 964 15 942 -3 b 754 1 869 -3 839 1 b 601 -3 668 1 636 -3 b 539 43 557 -3 539 19 b 611 142 539 96 611 88 b 607 193 611 168 610 181 l 582 342 b 474 492 563 454 529 492 b 375 322 429 492 375 458 l 375 174 b 453 42 375 78 453 101 b 394 -4 453 19 436 -4 b 240 0 360 -4 325 0 b 88 -4 156 0 122 -4 b 29 42 46 -4 29 18 b 106 174 29 101 106 78 l 106 714 l 43 714 b -19 775 -6 714 -19 735 b 43 836 -19 814 -6 836 l 99 836 b 19 922 76 881 19 871 b 171 1024 19 957 54 976 b 322 1067 278 1067 306 1067 b 375 988 364 1067 375 1033 l 375 836 l 508 836 b 571 775 557 836 571 814 b 508 714 571 735 557 714 l 375 714 l 375 550 l 376 550 b 613 689 418 624 503 689 b 844 419 739 689 818 596 l 878 192 "},"ĥ":{"ha":963,"x_min":0,"x_max":0,"o":"m 64 1086 b 10 1128 29 1086 10 1108 b 29 1174 10 1142 15 1154 b 132 1300 61 1218 93 1258 b 246 1344 164 1333 183 1344 b 360 1300 308 1344 328 1333 b 463 1174 399 1258 431 1218 b 482 1128 476 1154 482 1142 b 428 1086 482 1108 463 1086 b 361 1115 411 1086 390 1090 l 246 1213 l 131 1115 b 64 1086 101 1090 81 1086 m 878 192 b 964 40 893 72 964 103 b 904 -3 964 15 942 -3 b 754 1 869 -3 839 1 b 601 -3 668 1 636 -3 b 539 43 557 -3 539 19 b 611 142 539 96 611 88 b 607 193 611 168 608 181 l 582 372 b 474 522 567 485 529 522 b 375 353 429 522 375 489 l 375 174 b 453 42 375 78 453 101 b 394 -4 453 19 436 -4 b 240 0 360 -4 325 0 b 88 -4 156 0 122 -4 b 29 42 46 -4 29 18 b 106 174 29 101 106 78 l 106 785 b 19 910 106 875 19 842 b 179 1017 19 946 63 967 b 322 1067 286 1063 306 1067 b 375 988 364 1067 375 1033 l 375 581 l 376 581 b 613 719 418 654 503 719 b 844 450 739 719 822 626 l 878 192 "},"i":{"ha":496,"x_min":0,"x_max":0,"o":"m 201 774 b 79 874 124 774 79 817 b 283 1042 79 956 168 1042 b 413 935 354 1042 413 997 b 201 774 413 854 315 774 m 104 -4 b 46 42 63 -4 46 18 b 122 174 46 101 122 78 l 122 432 b 36 557 122 522 36 489 b 196 664 36 593 79 614 b 339 714 303 710 322 714 b 392 635 381 714 392 681 l 392 174 b 469 42 392 78 469 101 b 411 -4 469 19 453 -4 b 257 0 376 -4 342 0 b 104 -4 172 0 139 -4 "},"ı":{"ha":496,"x_min":0,"x_max":0,"o":"m 104 -4 b 46 42 63 -4 46 18 b 122 174 46 101 122 78 l 122 432 b 36 557 122 522 36 489 b 196 664 36 593 79 614 b 339 714 303 710 322 714 b 392 635 381 714 392 681 l 392 174 b 469 42 392 78 469 101 b 411 -4 469 19 453 -4 b 257 0 376 -4 342 0 b 104 -4 172 0 139 -4 "},"í":{"ha":496,"x_min":0,"x_max":0,"o":"m 188 796 b 140 825 157 796 140 810 b 154 863 140 836 147 851 b 260 1018 194 925 229 975 b 375 1061 281 1049 303 1061 b 481 1019 465 1061 481 1046 b 421 940 481 992 463 975 b 268 822 372 900 328 867 b 188 796 242 803 213 796 m 104 -4 b 46 42 63 -4 46 18 b 122 174 46 101 122 78 l 122 432 b 36 557 122 522 36 489 b 196 664 36 593 79 614 b 339 714 303 710 322 714 b 392 635 381 714 392 681 l 392 174 b 469 42 392 78 469 101 b 411 -4 469 19 453 -4 b 257 0 376 -4 342 0 b 104 -4 172 0 139 -4 "},"ĭ":{"ha":496,"x_min":0,"x_max":0,"o":"m 247 806 b 35 943 146 806 74 860 b 15 1017 21 972 15 994 b 67 1063 15 1046 39 1063 b 143 1008 99 1063 118 1040 b 247 942 174 969 207 942 b 351 1008 288 942 321 969 b 428 1063 376 1040 396 1063 b 479 1017 456 1063 479 1046 b 460 943 479 994 474 972 b 247 806 421 860 349 806 m 104 -4 b 46 42 63 -4 46 18 b 122 174 46 101 122 78 l 122 432 b 36 557 122 522 36 489 b 196 664 36 593 79 614 b 339 714 303 710 322 714 b 392 635 381 714 392 681 l 392 174 b 469 42 392 78 469 101 b 411 -4 469 19 453 -4 b 257 0 376 -4 342 0 b 104 -4 172 0 139 -4 "},"î":{"ha":496,"x_min":0,"x_max":0,"o":"m 469 893 b 489 847 483 874 489 861 b 435 806 489 828 469 806 b 368 835 418 806 397 810 l 253 932 l 138 835 b 71 806 108 810 88 806 b 17 847 36 806 17 828 b 36 893 17 861 22 874 b 139 1019 68 938 100 978 b 253 1064 171 1053 190 1064 b 367 1019 315 1064 335 1053 b 469 893 406 978 438 938 m 392 174 b 469 42 392 78 469 101 b 411 -4 469 19 453 -4 b 257 0 376 -4 342 0 b 104 -4 172 0 139 -4 b 46 42 63 -4 46 18 b 122 174 46 101 122 78 l 122 432 b 36 557 122 522 36 489 b 196 664 36 593 79 614 b 339 714 303 710 322 714 b 392 635 381 714 392 681 l 392 174 "},"ï":{"ha":496,"x_min":0,"x_max":0,"o":"m 85 806 b -42 919 13 806 -42 856 b 88 1038 -42 989 13 1038 b 211 922 160 1038 211 989 b 85 806 211 856 160 806 m 407 807 b 283 919 336 807 283 856 b 411 1036 283 989 336 1036 b 533 922 482 1036 533 989 b 407 807 533 856 482 807 m 104 -4 b 46 42 63 -4 46 18 b 122 174 46 101 122 78 l 122 432 b 36 557 122 522 36 489 b 196 664 36 593 79 614 b 339 714 303 710 322 714 b 392 635 381 714 392 681 l 392 174 b 469 42 392 78 469 101 b 411 -4 469 19 453 -4 b 257 0 376 -4 342 0 b 104 -4 172 0 139 -4 "},"ì":{"ha":496,"x_min":0,"x_max":0,"o":"m 296 796 b 215 822 271 796 242 803 b 63 940 156 867 111 900 b 3 1019 21 975 3 992 b 108 1061 3 1046 18 1061 b 224 1018 181 1061 203 1049 b 329 863 253 975 290 925 b 343 825 336 851 343 836 b 296 796 343 810 326 796 m 104 -4 b 46 42 63 -4 46 18 b 122 174 46 101 122 78 l 122 432 b 36 557 122 522 36 489 b 196 664 36 593 79 614 b 339 714 303 710 322 714 b 392 635 381 714 392 681 l 392 174 b 469 42 392 78 469 101 b 411 -4 469 19 453 -4 b 257 0 376 -4 342 0 b 104 -4 172 0 139 -4 "},"ĳ":{"ha":954,"x_min":0,"x_max":0,"o":"m 201 774 b 79 874 124 774 79 817 b 283 1042 79 956 168 1042 b 413 935 354 1042 413 997 b 201 774 413 854 315 774 m 683 774 b 561 874 606 774 561 817 b 765 1042 561 956 650 1042 b 894 935 836 1042 894 997 b 683 774 894 854 797 774 m 104 -4 b 46 42 63 -4 46 18 b 122 174 46 101 122 78 l 122 432 b 36 557 122 522 36 489 b 196 664 36 593 79 614 b 339 714 303 710 322 714 b 392 635 381 714 392 681 l 392 174 b 469 42 392 78 469 101 b 411 -4 469 19 453 -4 b 257 0 376 -4 342 0 b 104 -4 172 0 139 -4 m 615 -114 b 604 14 615 -85 604 -49 l 604 432 b 518 557 604 522 518 489 b 679 664 518 593 563 614 b 821 714 786 710 804 714 b 874 635 863 714 874 681 l 874 60 b 514 -272 874 -128 694 -272 b 403 -179 433 -272 403 -243 b 467 -40 403 -122 414 -40 b 508 -69 483 -40 497 -51 b 588 -151 536 -115 560 -151 b 615 -114 604 -151 615 -139 "},"ī":{"ha":496,"x_min":0,"x_max":0,"o":"m 63 857 b 13 924 26 857 13 881 b 63 990 13 967 26 990 b 246 988 118 990 188 988 b 429 990 304 988 374 990 b 479 924 465 990 479 967 b 429 857 479 881 465 857 b 246 860 374 857 304 860 b 63 857 188 860 118 857 m 104 -4 b 46 42 63 -4 46 18 b 122 174 46 101 122 78 l 122 432 b 36 557 122 522 36 489 b 196 664 36 593 79 614 b 339 714 303 710 322 714 b 392 635 381 714 392 681 l 392 174 b 469 42 392 78 469 101 b 411 -4 469 19 453 -4 b 257 0 376 -4 342 0 b 104 -4 172 0 139 -4 "},"į":{"ha":496,"x_min":0,"x_max":0,"o":"m 201 774 b 79 874 124 774 79 817 b 283 1042 79 956 168 1042 b 413 935 354 1042 413 997 b 201 774 413 854 315 774 m 392 174 b 469 42 392 78 469 101 b 411 -4 469 19 453 -4 b 336 -1 390 -4 369 -3 b 274 -137 296 -46 274 -90 b 303 -179 274 -169 288 -179 b 332 -171 315 -179 325 -175 b 356 -162 340 -167 346 -162 b 388 -197 371 -162 388 -178 b 365 -240 388 -214 381 -228 b 251 -279 340 -261 301 -279 b 129 -161 182 -279 129 -235 b 231 0 129 -104 167 -50 b 104 -4 165 -1 135 -4 b 46 42 63 -4 46 18 b 122 174 46 101 122 78 l 122 432 b 36 557 122 522 36 489 b 196 664 36 593 79 614 b 339 714 303 710 322 714 b 392 635 381 714 392 681 l 392 174 "},"ĩ":{"ha":496,"x_min":0,"x_max":0,"o":"m 336 815 b 160 913 235 815 196 913 b 118 874 143 913 129 892 b 61 828 101 846 89 828 b 17 876 32 828 17 846 b 28 935 17 889 19 910 b 160 1046 51 1007 97 1046 b 338 949 258 1046 297 949 b 378 988 351 949 361 961 b 435 1033 394 1015 407 1033 b 479 985 464 1033 479 1015 b 468 926 479 972 476 951 b 336 815 444 854 399 815 m 104 -4 b 46 42 63 -4 46 18 b 122 174 46 101 122 78 l 122 432 b 36 557 122 522 36 489 b 196 664 36 593 79 614 b 339 714 303 710 322 714 b 392 635 381 714 392 681 l 392 174 b 469 42 392 78 469 101 b 411 -4 469 19 453 -4 b 257 0 376 -4 342 0 b 104 -4 172 0 139 -4 "},"j":{"ha":458,"x_min":0,"x_max":0,"o":"m 188 774 b 65 874 110 774 65 817 b 269 1042 65 956 154 1042 b 399 935 340 1042 399 997 b 188 774 399 854 301 774 m 119 -114 b 108 14 119 -85 108 -49 l 108 432 b 22 557 108 522 22 489 b 183 664 22 593 67 614 b 325 714 290 710 308 714 b 378 635 367 714 378 681 l 378 60 b 18 -272 378 -128 199 -272 b -93 -179 -62 -272 -93 -243 b -29 -40 -93 -122 -82 -40 b 13 -69 -12 -40 1 -51 b 92 -151 40 -115 64 -151 b 119 -114 108 -151 119 -139 "},"ȷ":{"ha":458,"x_min":0,"x_max":0,"o":"m 119 -114 b 108 14 119 -85 108 -49 l 108 432 b 22 557 108 522 22 489 b 183 664 22 593 67 614 b 325 714 290 710 308 714 b 378 635 367 714 378 681 l 378 60 b 18 -272 378 -128 199 -272 b -93 -179 -62 -272 -93 -243 b -29 -40 -93 -122 -82 -40 b 13 -69 -12 -40 1 -51 b 92 -151 40 -115 64 -151 b 119 -114 108 -151 119 -139 "},"ĵ":{"ha":458,"x_min":0,"x_max":0,"o":"m 457 893 b 476 847 471 874 476 861 b 422 806 476 828 457 806 b 356 835 406 806 385 810 l 240 932 l 125 835 b 58 806 96 810 75 806 b 4 847 24 806 4 828 b 24 893 4 861 10 874 b 126 1019 56 938 88 978 b 240 1064 158 1053 178 1064 b 354 1019 303 1064 322 1053 b 457 893 393 978 425 938 m 325 714 b 378 635 367 714 378 681 l 378 60 b 18 -272 378 -128 199 -272 b -93 -179 -62 -272 -93 -243 b -29 -40 -93 -122 -82 -40 b 13 -69 -12 -40 1 -51 b 92 -151 40 -115 64 -151 b 119 -114 108 -151 119 -139 b 108 14 119 -85 108 -49 l 108 432 b 22 557 108 522 22 489 b 183 664 22 593 67 614 b 325 714 290 710 308 714 "},"k":{"ha":956,"x_min":0,"x_max":0,"o":"m 876 150 b 976 40 921 78 976 96 b 924 -4 976 13 953 -4 b 756 0 888 -4 838 0 b 596 -4 678 0 638 -4 b 531 40 551 -4 531 14 b 583 131 531 92 583 78 b 558 193 583 144 576 163 l 482 326 l 375 239 l 375 174 b 453 42 375 78 453 101 b 394 -4 453 19 436 -4 b 240 0 360 -4 325 0 b 88 -4 156 0 122 -4 b 29 42 46 -4 29 18 b 106 174 29 101 106 78 l 106 785 b 19 910 106 875 19 842 b 179 1017 19 946 63 967 b 322 1067 286 1063 306 1067 b 375 988 364 1067 375 1033 l 375 388 l 553 546 b 581 588 574 565 581 574 b 522 663 581 619 522 608 b 588 707 522 690 543 707 b 713 703 617 707 675 703 b 867 707 747 703 842 707 b 919 664 897 707 919 690 b 756 556 919 600 828 617 l 672 486 l 876 150 "},"ķ":{"ha":956,"x_min":0,"x_max":0,"o":"m 876 150 b 976 40 921 78 976 96 b 924 -4 976 13 953 -4 b 756 0 888 -4 838 0 b 596 -4 678 0 638 -4 b 531 40 551 -4 531 14 b 583 131 531 92 583 78 b 558 193 583 144 576 163 l 482 326 l 375 239 l 375 174 b 453 42 375 78 453 101 b 394 -4 453 19 436 -4 b 240 0 360 -4 325 0 b 88 -4 156 0 122 -4 b 29 42 46 -4 29 18 b 106 174 29 101 106 78 l 106 785 b 19 910 106 875 19 842 b 179 1017 19 946 63 967 b 322 1067 286 1063 306 1067 b 375 988 364 1067 375 1033 l 375 388 l 553 546 b 581 588 574 565 581 574 b 522 663 581 619 522 608 b 588 707 522 690 543 707 b 713 703 617 707 675 703 b 867 707 747 703 842 707 b 919 664 897 707 919 690 b 756 556 919 600 828 617 l 672 486 l 876 150 m 497 -51 b 607 -164 571 -51 607 -89 b 442 -385 607 -271 503 -385 b 408 -356 421 -385 408 -372 b 438 -317 408 -337 422 -329 b 475 -261 457 -301 475 -281 b 431 -224 475 -240 450 -233 b 378 -150 404 -211 378 -196 b 497 -51 378 -96 429 -51 "},"ĸ":{"ha":972,"x_min":0,"x_max":0,"o":"m 893 150 b 993 40 938 78 993 96 b 940 -4 993 13 969 -4 b 772 0 904 -4 854 0 b 613 -4 694 0 654 -4 b 547 40 568 -4 547 14 b 600 131 547 92 600 78 b 582 181 600 147 593 163 l 499 326 l 392 239 l 392 174 b 469 42 392 78 469 101 b 411 -4 469 19 453 -4 b 257 0 376 -4 342 0 b 104 -4 172 0 139 -4 b 46 42 63 -4 46 18 b 122 174 46 101 122 78 l 122 432 b 36 557 122 522 36 489 b 196 664 36 593 79 614 b 339 714 303 710 322 714 b 392 635 381 714 392 681 l 392 388 l 569 546 b 597 588 590 565 597 574 b 539 663 597 619 539 608 b 604 707 539 690 560 707 b 729 703 633 707 692 703 b 883 707 764 703 858 707 b 936 664 914 707 936 690 b 772 556 936 600 844 617 l 689 486 l 893 150 "},"l":{"ha":481,"x_min":0,"x_max":0,"o":"m 88 -4 b 29 42 46 -4 29 18 b 106 174 29 101 106 78 l 106 785 b 19 910 106 875 19 842 b 179 1017 19 946 63 967 b 322 1067 286 1063 306 1067 b 375 988 364 1067 375 1033 l 375 174 b 453 42 375 78 453 101 b 394 -4 453 19 436 -4 b 240 0 360 -4 325 0 b 88 -4 156 0 122 -4 "},"ĺ":{"ha":481,"x_min":0,"x_max":0,"o":"m 161 1090 b 114 1119 131 1090 114 1104 b 128 1157 114 1131 121 1146 b 233 1313 168 1219 203 1269 b 349 1356 254 1343 276 1356 b 454 1314 439 1356 454 1340 b 394 1235 454 1286 436 1269 b 242 1117 346 1194 301 1161 b 161 1090 215 1097 186 1090 m 88 -4 b 29 42 46 -4 29 18 b 106 174 29 101 106 78 l 106 785 b 19 910 106 875 19 842 b 179 1017 19 946 63 967 b 322 1067 286 1063 306 1067 b 375 988 364 1067 375 1033 l 375 174 b 453 42 375 78 453 101 b 394 -4 453 19 436 -4 b 240 0 360 -4 325 0 b 88 -4 156 0 122 -4 "},"ľ":{"ha":481,"x_min":0,"x_max":0,"o":"m 488 686 b 443 732 460 686 443 697 l 444 1022 b 504 1078 444 1064 456 1078 b 599 1024 572 1078 599 1064 b 543 729 599 939 568 806 b 488 686 532 697 513 686 m 88 -4 b 29 42 46 -4 29 18 b 106 174 29 101 106 78 l 106 785 b 19 910 106 875 19 842 b 179 1017 19 946 63 967 b 322 1067 286 1063 306 1067 b 375 988 364 1067 375 1033 l 375 174 b 453 42 375 78 453 101 b 394 -4 453 19 436 -4 b 240 0 360 -4 325 0 b 88 -4 156 0 122 -4 "},"ļ":{"ha":481,"x_min":0,"x_max":0,"o":"m 88 -4 b 29 42 46 -4 29 18 b 106 174 29 101 106 78 l 106 785 b 19 910 106 875 19 842 b 179 1017 19 946 63 967 b 322 1067 286 1063 306 1067 b 375 988 364 1067 375 1033 l 375 174 b 453 42 375 78 453 101 b 394 -4 453 19 436 -4 b 240 0 360 -4 325 0 b 88 -4 156 0 122 -4 m 197 -385 b 164 -356 176 -385 164 -372 b 193 -317 164 -337 178 -329 b 231 -261 213 -301 231 -281 b 186 -224 231 -240 206 -233 b 133 -150 160 -211 133 -196 b 253 -51 133 -96 185 -51 b 363 -164 326 -51 363 -89 b 197 -385 363 -271 258 -385 "},"ŀ":{"ha":633,"x_min":0,"x_max":0,"o":"m 88 -4 b 29 42 46 -4 29 18 b 106 174 29 101 106 78 l 106 785 b 19 910 106 875 19 842 b 179 1017 19 946 63 967 b 322 1067 286 1063 306 1067 b 375 988 364 1067 375 1033 l 375 174 b 453 42 375 78 453 101 b 394 -4 453 19 436 -4 b 240 0 360 -4 325 0 b 88 -4 156 0 122 -4 m 565 619 b 424 499 481 619 424 564 b 546 394 424 435 471 394 b 689 514 631 394 689 449 b 565 619 689 578 640 619 "},"ł":{"ha":588,"x_min":0,"x_max":0,"o":"m 550 700 b 606 629 574 700 606 665 b 565 581 606 610 593 594 l 431 513 l 431 174 b 508 42 431 78 508 101 b 450 -4 508 19 492 -4 b 296 0 415 -4 381 0 b 143 -4 211 0 178 -4 b 85 42 101 -4 85 18 b 161 174 85 101 161 78 l 161 375 l 113 350 b 72 339 97 342 85 339 b 19 408 49 339 19 372 b 58 458 19 429 31 444 l 161 511 l 161 785 b 75 910 161 875 75 842 b 235 1017 75 946 118 967 b 378 1067 342 1063 361 1067 b 431 988 419 1067 431 1033 l 431 647 l 511 689 b 550 700 526 696 538 700 "},"m":{"ha":1436,"x_min":0,"x_max":0,"o":"m 1353 192 b 1443 40 1369 72 1443 103 b 1382 -3 1443 15 1419 -3 b 1231 1 1346 -3 1313 1 b 1075 -3 1143 1 1111 -3 b 1011 43 1031 -3 1011 19 b 1086 153 1011 96 1086 86 b 1078 233 1086 171 1082 203 l 1058 378 b 961 522 1053 422 1039 522 b 868 353 914 522 868 485 l 868 174 b 954 42 868 78 954 101 b 896 -4 954 19 936 -4 b 733 0 858 -4 822 0 b 581 -4 650 0 615 -4 b 522 42 540 -4 522 18 b 599 174 522 101 599 78 l 599 378 b 500 522 599 476 568 522 b 392 353 451 522 392 489 l 392 174 b 469 42 392 78 469 101 b 411 -4 469 19 453 -4 b 257 0 376 -4 342 0 b 104 -4 172 0 139 -4 b 46 42 63 -4 46 18 b 122 174 46 101 122 78 l 122 432 b 36 557 122 522 36 489 b 196 664 36 593 79 614 b 339 714 303 710 322 714 b 392 635 381 714 392 681 l 392 581 l 393 581 b 638 719 436 654 525 719 b 846 581 733 719 810 671 b 1076 719 888 653 963 719 b 1318 450 1213 719 1294 626 l 1353 192 "},"n":{"ha":979,"x_min":0,"x_max":0,"o":"m 894 192 b 981 40 910 72 981 103 b 921 -3 981 15 958 -3 b 771 1 886 -3 856 1 b 618 -3 685 1 653 -3 b 556 43 574 -3 556 19 b 626 153 556 96 626 86 b 618 233 626 171 624 196 l 599 372 b 490 522 583 485 546 522 b 392 353 446 522 392 489 l 392 174 b 469 42 392 78 469 101 b 411 -4 469 19 453 -4 b 257 0 376 -4 342 0 b 104 -4 172 0 139 -4 b 46 42 63 -4 46 18 b 122 174 46 101 122 78 l 122 432 b 36 557 122 522 36 489 b 196 664 36 593 79 614 b 339 714 303 710 322 714 b 392 635 381 714 392 681 l 392 581 l 393 581 b 629 719 435 654 519 719 b 861 450 756 719 839 626 l 894 192 "},"ń":{"ha":979,"x_min":0,"x_max":0,"o":"m 426 796 b 379 825 396 796 379 810 b 393 863 379 836 386 851 b 499 1018 433 925 468 975 b 614 1061 519 1049 542 1061 b 719 1019 704 1061 719 1046 b 660 940 719 992 701 975 b 507 822 611 900 567 867 b 426 796 481 803 451 796 m 894 192 b 981 40 910 72 981 103 b 921 -3 981 15 958 -3 b 771 1 886 -3 856 1 b 618 -3 685 1 653 -3 b 556 43 574 -3 556 19 b 626 153 556 96 626 86 b 618 233 626 171 624 196 l 599 372 b 490 522 583 485 546 522 b 392 353 446 522 392 489 l 392 174 b 469 42 392 78 469 101 b 411 -4 469 19 453 -4 b 257 0 376 -4 342 0 b 104 -4 172 0 139 -4 b 46 42 63 -4 46 18 b 122 174 46 101 122 78 l 122 432 b 36 557 122 522 36 489 b 196 664 36 593 79 614 b 339 714 303 710 322 714 b 392 635 381 714 392 681 l 392 581 l 393 581 b 629 719 435 654 519 719 b 861 450 756 719 839 626 l 894 192 "},"ň":{"ha":979,"x_min":0,"x_max":0,"o":"m 378 858 b 275 985 339 900 307 940 b 256 1031 261 1004 256 1017 b 310 1072 256 1050 275 1072 b 376 1043 326 1072 347 1068 l 492 946 l 607 1043 b 674 1072 636 1068 657 1072 b 728 1031 708 1072 728 1050 b 708 985 728 1017 722 1004 b 606 858 676 940 644 900 b 492 814 574 825 554 814 b 378 858 429 814 410 825 m 894 192 b 981 40 910 72 981 103 b 921 -3 981 15 958 -3 b 771 1 886 -3 856 1 b 618 -3 685 1 653 -3 b 556 43 574 -3 556 19 b 626 153 556 96 626 86 b 618 233 626 171 624 196 l 599 372 b 490 522 583 485 546 522 b 392 353 446 522 392 489 l 392 174 b 469 42 392 78 469 101 b 411 -4 469 19 453 -4 b 257 0 376 -4 342 0 b 104 -4 172 0 139 -4 b 46 42 63 -4 46 18 b 122 174 46 101 122 78 l 122 432 b 36 557 122 522 36 489 b 196 664 36 593 79 614 b 339 714 303 710 322 714 b 392 635 381 714 392 681 l 392 581 l 393 581 b 629 719 435 654 519 719 b 861 450 756 719 839 626 l 894 192 "},"ņ":{"ha":979,"x_min":0,"x_max":0,"o":"m 894 192 b 981 40 910 72 981 103 b 921 -3 981 15 958 -3 b 771 1 886 -3 856 1 b 618 -3 685 1 653 -3 b 556 43 574 -3 556 19 b 626 153 556 96 626 86 b 618 233 626 171 624 196 l 599 372 b 490 522 583 485 546 522 b 392 353 446 522 392 489 l 392 174 b 469 42 392 78 469 101 b 411 -4 469 19 453 -4 b 257 0 376 -4 342 0 b 104 -4 172 0 139 -4 b 46 42 63 -4 46 18 b 122 174 46 101 122 78 l 122 432 b 36 557 122 522 36 489 b 196 664 36 593 79 614 b 339 714 303 710 322 714 b 392 635 381 714 392 681 l 392 581 l 393 581 b 629 719 435 654 519 719 b 861 450 756 719 839 626 l 894 192 m 517 -51 b 626 -164 590 -51 626 -89 b 461 -385 626 -271 522 -385 b 428 -356 440 -385 428 -372 b 457 -317 428 -337 442 -329 b 494 -261 476 -301 494 -281 b 450 -224 494 -240 469 -233 b 397 -150 424 -211 397 -196 b 517 -51 397 -96 449 -51 "},"ŋ":{"ha":935,"x_min":0,"x_max":0,"o":"m 636 719 b 865 436 757 719 865 619 l 865 44 b 506 -287 865 -143 686 -287 b 397 -199 426 -287 397 -260 b 458 -51 397 -133 408 -51 b 500 -78 475 -51 489 -60 b 579 -167 531 -126 551 -167 b 607 -129 596 -167 607 -154 b 596 -1 607 -100 596 -64 l 596 369 b 504 522 596 485 557 522 b 392 353 456 522 392 489 l 392 174 b 469 42 392 78 469 101 b 411 -4 469 19 453 -4 b 257 0 376 -4 342 0 b 104 -4 172 0 139 -4 b 46 42 63 -4 46 18 b 122 174 46 101 122 78 l 122 432 b 36 557 122 522 36 489 b 196 664 36 593 79 614 b 339 714 303 710 322 714 b 392 635 381 714 392 681 l 392 581 l 393 581 b 636 719 435 654 524 719 "},"ñ":{"ha":979,"x_min":0,"x_max":0,"o":"m 300 828 b 256 876 271 828 256 846 b 267 935 256 889 258 910 b 399 1046 290 1007 336 1046 b 576 949 497 1046 536 949 b 617 988 590 949 600 961 b 674 1033 633 1015 646 1033 b 718 985 703 1033 718 1015 b 707 926 718 972 715 951 b 575 815 683 854 638 815 b 399 913 474 815 435 913 b 357 874 382 913 368 892 b 300 828 340 846 328 828 m 894 192 b 981 40 910 72 981 103 b 921 -3 981 15 958 -3 b 771 1 886 -3 856 1 b 618 -3 685 1 653 -3 b 556 43 574 -3 556 19 b 626 153 556 96 626 86 b 618 233 626 171 624 196 l 599 372 b 490 522 583 485 546 522 b 392 353 446 522 392 489 l 392 174 b 469 42 392 78 469 101 b 411 -4 469 19 453 -4 b 257 0 376 -4 342 0 b 104 -4 172 0 139 -4 b 46 42 63 -4 46 18 b 122 174 46 101 122 78 l 122 432 b 36 557 122 522 36 489 b 196 664 36 593 79 614 b 339 714 303 710 322 714 b 392 635 381 714 392 681 l 392 581 l 393 581 b 629 719 435 654 519 719 b 861 450 756 719 839 626 l 894 192 "},"o":{"ha":942,"x_min":0,"x_max":0,"o":"m 454 -31 b 31 339 182 -31 31 136 b 489 733 31 565 218 733 b 911 363 760 733 911 567 b 454 -31 911 131 715 -31 m 499 97 b 619 300 581 97 619 163 b 443 606 619 417 558 606 b 322 401 363 606 322 540 b 499 97 322 288 382 97 "},"ó":{"ha":942,"x_min":0,"x_max":0,"o":"m 410 796 b 363 825 379 796 363 810 b 376 863 363 836 369 851 b 482 1018 417 925 451 975 b 597 1061 503 1049 525 1061 b 703 1019 688 1061 703 1046 b 643 940 703 992 685 975 b 490 822 594 900 550 867 b 410 796 464 803 435 796 m 454 -31 b 31 339 182 -31 31 136 b 489 733 31 565 218 733 b 911 363 760 733 911 567 b 454 -31 911 131 715 -31 m 499 97 b 619 300 581 97 619 163 b 443 606 619 417 558 606 b 322 401 363 606 322 540 b 499 97 322 288 382 97 "},"ŏ":{"ha":942,"x_min":0,"x_max":0,"o":"m 469 806 b 257 943 368 806 296 860 b 238 1017 243 972 238 994 b 289 1063 238 1046 261 1063 b 365 1008 321 1063 340 1040 b 469 942 396 969 429 942 b 574 1008 510 942 543 969 b 650 1063 599 1040 618 1063 b 701 1017 678 1063 701 1046 b 682 943 701 994 696 972 b 469 806 643 860 571 806 m 454 -31 b 31 339 182 -31 31 136 b 489 733 31 565 218 733 b 911 363 760 733 911 567 b 454 -31 911 131 715 -31 m 499 97 b 619 300 581 97 619 163 b 443 606 619 417 558 606 b 322 401 363 606 322 540 b 499 97 322 288 382 97 "},"ô":{"ha":942,"x_min":0,"x_max":0,"o":"m 293 806 b 239 847 258 806 239 828 b 258 893 239 861 244 874 b 361 1019 290 938 322 978 b 475 1064 393 1053 413 1064 b 589 1019 538 1064 557 1053 b 692 893 628 978 660 938 b 711 847 706 874 711 861 b 657 806 711 828 692 806 b 590 835 640 806 619 810 l 475 932 l 360 835 b 293 806 331 810 310 806 m 489 733 b 911 363 760 733 911 567 b 454 -31 911 131 715 -31 b 31 339 182 -31 31 136 b 489 733 31 565 218 733 m 499 97 b 619 300 581 97 619 163 b 443 606 619 417 558 606 b 322 401 363 606 322 540 b 499 97 322 288 382 97 "},"ö":{"ha":942,"x_min":0,"x_max":0,"o":"m 307 806 b 181 919 235 806 181 856 b 310 1038 181 989 235 1038 b 433 922 382 1038 433 989 b 307 806 433 856 382 806 m 629 807 b 506 919 558 807 506 856 b 633 1036 506 989 558 1036 b 756 922 704 1036 756 989 b 629 807 756 856 704 807 m 454 -31 b 31 339 182 -31 31 136 b 489 733 31 565 218 733 b 911 363 760 733 911 567 b 454 -31 911 131 715 -31 m 499 97 b 619 300 581 97 619 163 b 443 606 619 417 558 606 b 322 401 363 606 322 540 b 499 97 322 288 382 97 "},"ò":{"ha":942,"x_min":0,"x_max":0,"o":"m 518 796 b 438 822 493 796 464 803 b 285 940 378 867 333 900 b 225 1019 243 975 225 992 b 331 1061 225 1046 240 1061 b 446 1018 403 1061 425 1049 b 551 863 475 975 513 925 b 565 825 558 851 565 836 b 518 796 565 810 549 796 m 454 -31 b 31 339 182 -31 31 136 b 489 733 31 565 218 733 b 911 363 760 733 911 567 b 454 -31 911 131 715 -31 m 499 97 b 619 300 581 97 619 163 b 443 606 619 417 558 606 b 322 401 363 606 322 540 b 499 97 322 288 382 97 "},"ő":{"ha":942,"x_min":0,"x_max":0,"o":"m 325 790 b 290 822 304 790 290 804 b 303 863 290 836 297 850 b 381 1018 332 928 356 971 b 471 1061 397 1049 414 1061 b 557 1019 526 1061 557 1051 b 507 938 557 990 538 974 b 396 822 472 896 435 861 b 325 790 375 801 351 790 m 557 790 b 522 822 536 790 522 804 b 535 863 522 836 529 850 b 613 1018 564 928 588 971 b 703 1061 629 1049 646 1061 b 789 1019 758 1061 789 1051 b 739 938 789 990 769 974 b 628 822 704 896 667 861 b 557 790 607 801 583 790 m 454 -31 b 31 339 182 -31 31 136 b 489 733 31 565 218 733 b 911 363 760 733 911 567 b 454 -31 911 131 715 -31 m 499 97 b 619 300 581 97 619 163 b 443 606 619 417 558 606 b 322 401 363 606 322 540 b 499 97 322 288 382 97 "},"ō":{"ha":942,"x_min":0,"x_max":0,"o":"m 285 857 b 235 924 249 857 235 881 b 285 990 235 967 249 990 b 468 988 340 990 410 988 b 651 990 526 988 596 990 b 701 924 688 990 701 967 b 651 857 701 881 688 857 b 468 860 596 857 526 860 b 285 857 410 860 340 857 m 454 -31 b 31 339 182 -31 31 136 b 489 733 31 565 218 733 b 911 363 760 733 911 567 b 454 -31 911 131 715 -31 m 499 97 b 619 300 581 97 619 163 b 443 606 619 417 558 606 b 322 401 363 606 322 540 b 499 97 322 288 382 97 "},"ø":{"ha":972,"x_min":0,"x_max":0,"o":"m 854 583 b 926 363 901 522 926 446 b 469 -31 926 131 731 -31 b 208 38 364 -31 276 -6 l 160 -4 b 114 -26 143 -18 129 -26 b 53 43 90 -26 53 13 b 79 89 53 58 60 72 l 117 121 b 46 339 71 182 46 257 b 504 733 46 565 233 733 b 763 667 608 733 696 708 l 813 708 b 858 729 829 722 843 729 b 919 661 883 729 919 692 b 893 617 919 647 911 632 l 854 583 m 458 606 b 338 401 378 606 338 540 b 349 308 338 374 342 342 l 585 508 b 458 606 554 564 513 606 m 514 97 b 635 300 596 97 635 163 b 624 397 635 329 631 363 l 388 196 b 514 97 417 139 458 97 "},"õ":{"ha":942,"x_min":0,"x_max":0,"o":"m 558 815 b 382 913 457 815 418 913 b 340 874 365 913 351 892 b 283 828 324 846 311 828 b 239 876 254 828 239 846 b 250 935 239 889 242 910 b 382 1046 274 1007 319 1046 b 560 949 481 1046 519 949 b 600 988 574 949 583 961 b 657 1033 617 1015 629 1033 b 701 985 686 1033 701 1015 b 690 926 701 972 699 951 b 558 815 667 854 621 815 m 454 -31 b 31 339 182 -31 31 136 b 489 733 31 565 218 733 b 911 363 760 733 911 567 b 454 -31 911 131 715 -31 m 499 97 b 619 300 581 97 619 163 b 443 606 619 417 558 606 b 322 401 363 606 322 540 b 499 97 322 288 382 97 "},"œ":{"ha":1414,"x_min":0,"x_max":0,"o":"m 1356 224 b 1393 183 1382 224 1393 196 b 1381 144 1393 172 1389 160 b 1003 -31 1342 72 1206 -31 b 740 64 903 -31 815 -1 b 454 -31 664 -1 565 -31 b 31 339 182 -31 31 136 b 489 733 31 565 218 733 b 765 639 601 733 697 699 b 1032 733 838 706 931 733 b 1367 450 1238 733 1367 582 b 1322 383 1367 400 1351 393 l 932 258 b 1136 139 976 190 1046 139 b 1300 196 1196 139 1244 158 b 1356 224 1331 217 1340 224 m 986 608 b 879 440 922 608 879 547 b 888 369 879 417 882 393 l 1064 431 b 1100 476 1086 438 1100 450 b 986 608 1100 538 1050 608 m 499 97 b 619 300 581 97 619 163 b 443 606 619 417 558 606 b 322 401 363 606 322 540 b 499 97 322 288 382 97 "},"p":{"ha":990,"x_min":0,"x_max":0,"o":"m 643 726 b 958 354 818 726 958 589 b 590 -25 958 133 803 -25 b 378 40 475 -25 419 6 l 378 -76 b 471 -208 378 -169 471 -143 b 413 -254 471 -231 453 -254 b 243 -250 375 -254 335 -250 b 92 -254 158 -250 126 -254 b 33 -208 50 -254 33 -232 b 108 -76 33 -149 108 -172 l 108 432 b 24 557 108 522 24 489 b 183 664 24 593 67 614 b 325 714 290 710 306 714 b 378 635 378 714 378 654 l 378 586 b 643 726 431 664 517 726 m 543 103 b 672 290 615 103 672 163 b 513 544 672 443 597 544 b 378 363 433 544 378 465 l 378 343 b 543 103 378 215 440 103 "},"þ":{"ha":964,"x_min":0,"x_max":0,"o":"m 617 726 b 932 354 792 726 932 589 b 564 -25 932 133 776 -25 b 351 40 449 -25 393 6 l 351 -76 b 444 -208 351 -169 444 -143 b 386 -254 444 -231 426 -254 b 217 -250 349 -254 308 -250 b 65 -254 132 -250 100 -254 b 7 -208 24 -254 7 -232 b 82 -76 7 -149 82 -172 l 82 785 b -4 910 82 875 -4 842 b 156 1017 -4 946 39 967 b 299 1067 263 1063 282 1067 b 351 988 340 1067 351 1033 l 351 586 b 617 726 404 664 490 726 m 519 103 b 646 296 592 103 646 169 b 482 544 646 453 567 544 b 351 363 406 544 351 464 l 351 329 b 519 103 351 226 414 103 "},"q":{"ha":949,"x_min":0,"x_max":0,"o":"m 868 -76 b 943 -208 868 -172 943 -149 b 885 -254 943 -232 926 -254 b 733 -250 850 -254 818 -250 b 564 -254 642 -250 601 -254 b 506 -208 522 -254 506 -231 b 599 -76 506 -143 599 -171 l 599 113 b 342 -25 546 36 463 -25 b 32 339 169 -25 32 111 b 414 726 32 567 199 726 b 672 661 564 726 624 661 b 814 711 715 661 771 711 b 868 646 850 711 868 685 l 868 -76 m 472 157 b 599 339 550 157 599 236 l 599 358 b 440 599 599 486 536 599 b 318 411 372 599 318 539 b 472 157 318 258 392 157 "},"r":{"ha":782,"x_min":0,"x_max":0,"o":"m 631 719 b 781 603 721 719 781 665 b 718 411 781 553 754 489 b 658 363 704 381 685 363 b 603 406 633 363 615 383 b 501 494 572 460 544 494 b 392 299 456 494 392 446 l 392 174 b 486 42 392 78 486 107 b 428 -4 486 19 469 -4 b 257 0 389 -4 351 0 b 104 -4 172 0 139 -4 b 46 42 63 -4 46 18 b 122 174 46 101 122 78 l 122 432 b 36 557 122 522 36 489 b 196 664 36 593 79 614 b 339 714 303 710 322 714 b 392 635 381 714 392 681 l 392 538 b 631 719 428 636 525 719 "},"ŕ":{"ha":782,"x_min":0,"x_max":0,"o":"m 381 796 b 333 825 350 796 333 810 b 347 863 333 836 340 851 b 453 1018 388 925 422 975 b 568 1061 474 1049 496 1061 b 674 1019 658 1061 674 1046 b 614 940 674 992 656 975 b 461 822 565 900 521 867 b 381 796 435 803 406 796 m 631 719 b 781 603 721 719 781 665 b 718 411 781 553 754 489 b 658 363 704 381 685 363 b 603 406 633 363 615 383 b 501 494 572 460 544 494 b 392 299 456 494 392 446 l 392 174 b 486 42 392 78 486 107 b 428 -4 486 19 469 -4 b 257 0 389 -4 351 0 b 104 -4 172 0 139 -4 b 46 42 63 -4 46 18 b 122 174 46 101 122 78 l 122 432 b 36 557 122 522 36 489 b 196 664 36 593 79 614 b 339 714 303 710 322 714 b 392 635 381 714 392 681 l 392 538 b 631 719 428 636 525 719 "},"ř":{"ha":782,"x_min":0,"x_max":0,"o":"m 332 858 b 229 985 293 900 261 940 b 210 1031 215 1004 210 1017 b 264 1072 210 1050 229 1072 b 331 1043 281 1072 301 1068 l 446 946 l 561 1043 b 628 1072 590 1068 611 1072 b 682 1031 663 1072 682 1050 b 663 985 682 1017 676 1004 b 560 858 631 940 599 900 b 446 814 528 825 508 814 b 332 858 383 814 364 825 m 631 719 b 781 603 721 719 781 665 b 718 411 781 553 754 489 b 658 363 704 381 685 363 b 603 406 633 363 615 383 b 501 494 572 460 544 494 b 392 299 456 494 392 446 l 392 174 b 486 42 392 78 486 107 b 428 -4 486 19 469 -4 b 257 0 389 -4 351 0 b 104 -4 172 0 139 -4 b 46 42 63 -4 46 18 b 122 174 46 101 122 78 l 122 432 b 36 557 122 522 36 489 b 196 664 36 593 79 614 b 339 714 303 710 322 714 b 392 635 381 714 392 681 l 392 538 b 631 719 428 636 525 719 "},"ŗ":{"ha":782,"x_min":0,"x_max":0,"o":"m 631 719 b 781 603 721 719 781 665 b 718 411 781 553 754 489 b 658 363 704 381 685 363 b 603 406 633 363 615 383 b 501 494 572 460 544 494 b 392 299 456 494 392 446 l 392 174 b 486 42 392 78 486 107 b 428 -4 486 19 469 -4 b 257 0 389 -4 351 0 b 104 -4 172 0 139 -4 b 46 42 63 -4 46 18 b 122 174 46 101 122 78 l 122 432 b 36 557 122 522 36 489 b 196 664 36 593 79 614 b 339 714 303 710 322 714 b 392 635 381 714 392 681 l 392 538 b 631 719 428 636 525 719 m 276 -51 b 386 -164 350 -51 386 -89 b 221 -385 386 -271 282 -385 b 188 -356 200 -385 188 -372 b 217 -317 188 -337 201 -329 b 254 -261 236 -301 254 -281 b 210 -224 254 -240 229 -233 b 157 -150 183 -211 157 -196 b 276 -51 157 -96 208 -51 "},"s":{"ha":824,"x_min":0,"x_max":0,"o":"m 183 -31 b 115 43 149 -31 131 8 l 68 147 b 32 246 50 186 32 215 b 75 293 32 278 54 293 b 135 260 96 293 111 282 b 446 101 213 185 322 101 b 542 160 507 101 542 129 b 356 239 542 208 454 217 b 44 490 194 274 44 339 b 333 719 44 628 174 719 b 506 697 414 719 478 697 b 572 725 536 697 536 725 b 644 668 607 725 625 697 l 701 582 b 740 494 722 550 740 519 b 703 453 740 469 722 453 b 642 488 679 453 664 469 b 375 606 560 553 458 606 b 300 558 332 606 300 588 b 475 479 300 513 378 503 b 796 231 639 442 796 390 b 447 -15 796 68 636 -15 b 264 7 349 -15 294 7 b 183 -31 224 7 221 -31 "},"":{"ha":824,"x_min":0,"x_max":0,"o":"m 183 -31 b 264 7 221 -31 224 7 b 447 -15 294 7 349 -15 b 796 231 636 -15 796 68 b 475 479 796 390 639 442 b 300 558 378 503 300 513 b 375 606 300 588 332 606 b 642 488 458 606 560 553 b 703 453 664 469 679 453 b 740 494 722 453 740 469 b 701 582 740 519 722 550 l 644 668 b 572 725 625 697 607 725 b 506 697 536 725 536 697 b 333 719 478 697 414 719 b 44 490 174 719 44 628 b 356 239 44 339 194 274 b 542 160 454 217 542 208 b 446 101 542 129 507 101 b 135 260 322 101 213 185 b 75 293 111 282 96 293 b 32 246 54 293 32 278 b 68 147 32 215 50 186 l 115 43 b 183 -31 131 8 149 -31 "},"ś":{"ha":824,"x_min":0,"x_max":0,"o":"m 326 796 b 279 825 296 796 279 810 b 293 863 279 836 286 851 b 399 1018 333 925 368 975 b 514 1061 419 1049 442 1061 b 619 1019 604 1061 619 1046 b 560 940 619 992 601 975 b 407 822 511 900 467 867 b 326 796 381 803 351 796 m 183 -31 b 115 43 149 -31 131 8 l 68 147 b 32 246 50 186 32 215 b 75 293 32 278 54 293 b 135 260 96 293 111 282 b 446 101 213 185 322 101 b 542 160 507 101 542 129 b 356 239 542 208 454 217 b 44 490 194 274 44 339 b 333 719 44 628 174 719 b 506 697 414 719 478 697 b 572 725 536 697 536 725 b 644 668 607 725 625 697 l 701 582 b 740 494 722 550 740 519 b 703 453 740 469 722 453 b 642 488 679 453 664 469 b 375 606 560 553 458 606 b 300 558 332 606 300 588 b 475 479 300 513 378 503 b 796 231 639 442 796 390 b 447 -15 796 68 636 -15 b 264 7 349 -15 294 7 b 183 -31 224 7 221 -31 "},"š":{"ha":824,"x_min":0,"x_max":0,"o":"m 278 858 b 175 985 239 900 207 940 b 156 1031 161 1004 156 1017 b 210 1072 156 1050 175 1072 b 276 1043 226 1072 247 1068 l 392 946 l 507 1043 b 574 1072 536 1068 557 1072 b 628 1031 608 1072 628 1050 b 608 985 628 1017 622 1004 b 506 858 576 940 544 900 b 392 814 474 825 454 814 b 278 858 329 814 310 825 m 475 479 b 796 231 639 442 796 390 b 447 -15 796 68 636 -15 b 264 7 349 -15 294 7 b 183 -31 224 7 221 -31 b 115 43 149 -31 131 8 l 68 147 b 32 246 50 186 32 215 b 75 293 32 278 54 293 b 135 260 96 293 111 282 b 446 101 213 185 322 101 b 542 160 507 101 542 129 b 356 239 542 208 454 217 b 44 490 194 274 44 339 b 333 719 44 628 174 719 b 506 697 414 719 478 697 b 572 725 536 697 536 725 b 644 668 607 725 625 697 l 701 582 b 740 494 722 550 740 519 b 703 453 740 469 722 453 b 642 488 679 453 664 469 b 375 606 560 553 458 606 b 300 558 332 606 300 588 b 475 479 300 513 378 503 "},"ş":{"ha":824,"x_min":0,"x_max":0,"o":"m 443 -15 l 432 -56 b 478 -51 447 -53 463 -51 b 626 -161 565 -51 626 -97 b 454 -279 626 -232 557 -279 b 310 -247 394 -279 347 -268 b 285 -208 290 -236 285 -224 b 315 -175 285 -190 297 -175 b 349 -183 324 -175 335 -179 b 442 -203 379 -193 408 -203 b 499 -172 476 -203 499 -190 b 447 -143 499 -154 482 -143 b 383 -158 428 -143 404 -150 b 326 -111 365 -154 335 -128 l 357 -8 b 264 7 313 -1 283 7 b 183 -31 224 7 221 -31 b 115 43 149 -31 131 8 l 68 147 b 32 246 50 186 32 215 b 75 293 32 278 54 293 b 135 260 96 293 111 282 b 446 101 213 185 322 101 b 542 160 507 101 542 129 b 356 239 542 208 454 217 b 44 490 194 274 44 339 b 333 719 44 628 174 719 b 506 697 414 719 478 697 b 572 725 536 697 536 725 b 644 668 607 725 625 697 l 701 582 b 740 494 722 550 740 519 b 703 453 740 469 722 453 b 642 488 679 453 664 469 b 375 606 560 553 458 606 b 300 558 332 606 300 588 b 475 479 300 513 378 503 b 796 231 639 442 796 390 b 447 -15 796 68 636 -15 "},"ŝ":{"ha":824,"x_min":0,"x_max":0,"o":"m 210 806 b 156 847 175 806 156 828 b 175 893 156 861 161 874 b 278 1019 207 938 239 978 b 392 1064 310 1053 329 1064 b 506 1019 454 1064 474 1053 b 608 893 544 978 576 938 b 628 847 622 874 628 861 b 574 806 628 828 608 806 b 507 835 557 806 536 810 l 392 932 l 276 835 b 210 806 247 810 226 806 m 475 479 b 796 231 639 442 796 390 b 447 -15 796 68 636 -15 b 264 7 349 -15 294 7 b 183 -31 224 7 221 -31 b 115 43 149 -31 131 8 l 68 147 b 32 246 50 186 32 215 b 75 293 32 278 54 293 b 135 260 96 293 111 282 b 446 101 213 185 322 101 b 542 160 507 101 542 129 b 356 239 542 208 454 217 b 44 490 194 274 44 339 b 333 719 44 628 174 719 b 506 697 414 719 478 697 b 572 725 536 697 536 725 b 644 668 607 725 625 697 l 701 582 b 740 494 722 550 740 519 b 703 453 740 469 722 453 b 642 488 679 453 664 469 b 375 606 560 553 458 606 b 300 558 332 606 300 588 b 475 479 300 513 378 503 "},"ș":{"ha":824,"x_min":0,"x_max":0,"o":"m 183 -31 b 115 43 149 -31 131 8 l 68 147 b 32 246 50 186 32 215 b 75 293 32 278 54 293 b 135 260 96 293 111 282 b 446 101 213 185 322 101 b 542 160 507 101 542 129 b 356 239 542 208 454 217 b 44 490 194 274 44 339 b 333 719 44 628 174 719 b 506 697 414 719 478 697 b 572 725 536 697 536 725 b 644 668 607 725 625 697 l 701 582 b 740 494 722 550 740 519 b 703 453 740 469 722 453 b 642 488 679 453 664 469 b 375 606 560 553 458 606 b 300 558 332 606 300 588 b 475 479 300 513 378 503 b 796 231 639 442 796 390 b 447 -15 796 68 636 -15 b 264 7 349 -15 294 7 b 183 -31 224 7 221 -31 m 401 -385 b 368 -356 381 -385 368 -372 b 397 -317 368 -337 382 -329 b 435 -261 417 -301 435 -281 b 390 -224 435 -240 410 -233 b 338 -150 364 -211 338 -196 b 457 -51 338 -96 389 -51 b 567 -164 531 -51 567 -89 b 401 -385 567 -271 463 -385 "},"ß":{"ha":1078,"x_min":0,"x_max":0,"o":"m 567 -36 b 506 39 535 -36 518 4 l 468 143 b 440 239 453 185 440 208 b 479 286 440 271 463 286 b 531 253 497 286 513 276 b 760 94 588 179 657 94 b 822 146 797 94 822 115 b 681 250 822 190 756 214 b 457 472 554 311 457 349 b 607 797 457 629 599 674 b 504 901 611 865 557 901 b 375 704 406 901 375 814 l 375 174 b 446 42 375 78 446 101 b 388 -4 446 19 429 -4 b 240 0 351 -4 329 0 b 88 -4 156 0 122 -4 b 29 42 46 -4 29 18 b 106 174 29 101 106 78 l 104 663 b 496 1050 104 890 214 1050 b 863 818 685 1050 871 969 b 718 576 854 669 718 646 b 832 494 718 538 761 526 b 1061 229 960 436 1061 372 b 763 -21 1061 63 918 -21 b 638 1 685 -21 665 1 b 567 -36 601 1 599 -36 "},"t":{"ha":631,"x_min":0,"x_max":0,"o":"m 571 189 b 613 146 599 189 613 168 b 574 69 613 119 593 89 b 340 -19 525 21 456 -19 b 114 146 215 -19 114 56 b 119 378 114 175 119 282 l 119 578 l 60 578 b 0 629 25 578 0 599 b 56 700 0 663 21 679 b 254 869 149 756 199 796 b 347 958 300 931 317 958 b 389 899 374 958 389 942 l 389 703 l 556 703 b 597 660 582 703 597 690 b 593 619 597 649 594 629 b 549 578 589 592 576 578 l 389 578 l 389 272 b 463 138 389 163 422 138 b 528 168 479 138 496 142 b 571 189 538 176 551 189 "},"ŧ":{"ha":636,"x_min":0,"x_max":0,"o":"m 575 189 b 617 146 603 189 617 168 b 578 69 617 119 597 89 b 344 -19 529 21 460 -19 b 118 146 219 -19 118 56 b 124 325 118 169 122 246 l 69 325 b 7 386 21 325 7 346 b 69 447 7 425 21 447 l 124 447 l 124 578 l 64 578 b 4 629 29 578 4 599 b 60 700 4 663 25 679 b 258 869 153 756 203 796 b 351 958 304 931 321 958 b 393 899 378 958 393 942 l 393 703 l 560 703 b 601 660 586 703 601 690 b 597 619 601 649 599 629 b 553 578 593 592 581 578 l 393 578 l 393 447 l 518 447 b 581 386 567 447 581 425 b 518 325 581 346 567 325 l 393 325 l 393 272 b 467 138 393 163 426 138 b 532 168 483 138 500 142 b 575 189 542 176 556 189 "},"ť":{"ha":631,"x_min":0,"x_max":0,"o":"m 489 783 b 444 829 461 783 444 794 l 446 1119 b 506 1175 446 1161 457 1175 b 600 1121 574 1175 600 1161 b 544 826 600 1036 569 903 b 489 783 533 794 514 783 m 571 189 b 613 146 599 189 613 168 b 574 69 613 119 593 89 b 340 -19 525 21 456 -19 b 114 146 215 -19 114 56 b 119 378 114 175 119 282 l 119 578 l 60 578 b 0 629 25 578 0 599 b 56 700 0 663 21 679 b 254 869 149 756 199 796 b 347 958 300 931 317 958 b 389 899 374 958 389 942 l 389 703 l 556 703 b 597 660 582 703 597 690 b 593 619 597 649 594 629 b 549 578 589 592 576 578 l 389 578 l 389 272 b 463 138 389 163 422 138 b 528 168 479 138 496 142 b 571 189 538 176 551 189 "},"ţ":{"ha":631,"x_min":0,"x_max":0,"o":"m 571 189 b 613 146 599 189 613 168 b 574 69 613 119 593 89 b 340 -19 525 21 456 -19 b 114 146 215 -19 114 56 b 119 378 114 175 119 282 l 119 578 l 60 578 b 0 629 25 578 0 599 b 56 700 0 663 21 679 b 254 869 149 756 199 796 b 347 958 300 931 317 958 b 389 899 374 958 389 942 l 389 703 l 556 703 b 597 660 582 703 597 690 b 593 619 597 649 594 629 b 549 578 589 592 576 578 l 389 578 l 389 272 b 463 138 389 163 422 138 b 528 168 479 138 496 142 b 571 189 538 176 551 189 m 346 -51 b 456 -164 419 -51 456 -89 b 290 -385 456 -271 351 -385 b 257 -356 269 -385 257 -372 b 286 -317 257 -337 271 -329 b 324 -261 306 -301 324 -281 b 279 -224 324 -240 299 -233 b 226 -150 253 -211 226 -196 b 346 -51 226 -96 278 -51 "},"ț":{"ha":631,"x_min":0,"x_max":0,"o":"m 571 189 b 613 146 599 189 613 168 b 574 69 613 119 593 89 b 340 -19 525 21 456 -19 b 114 146 215 -19 114 56 b 119 378 114 175 119 282 l 119 578 l 60 578 b 0 629 25 578 0 599 b 56 700 0 663 21 679 b 254 869 149 756 199 796 b 347 958 300 931 317 958 b 389 899 374 958 389 942 l 389 703 l 556 703 b 597 660 582 703 597 690 b 593 619 597 649 594 629 b 549 578 589 592 576 578 l 389 578 l 389 272 b 463 138 389 163 422 138 b 528 168 479 138 496 142 b 571 189 538 176 551 189 m 346 -51 b 456 -164 419 -51 456 -89 b 290 -385 456 -271 351 -385 b 257 -356 269 -385 257 -372 b 286 -317 257 -337 271 -329 b 324 -261 306 -301 324 -281 b 279 -224 324 -240 299 -233 b 226 -150 253 -211 226 -196 b 346 -51 226 -96 278 -51 "},"u":{"ha":988,"x_min":0,"x_max":0,"o":"m 871 242 b 975 100 871 149 975 156 b 796 13 975 54 935 42 b 656 -11 704 -7 674 -11 b 601 54 619 -11 601 17 l 601 122 l 600 122 b 356 -17 556 47 471 -17 b 111 249 219 -17 111 71 l 111 446 b 13 575 111 536 13 514 b 182 675 13 617 53 633 b 326 714 289 710 311 714 b 381 632 371 714 381 675 l 381 333 b 488 181 381 222 425 181 b 601 350 540 181 601 215 l 601 446 b 488 575 601 536 488 511 b 672 676 488 617 531 632 b 818 714 775 708 804 714 b 871 632 865 714 871 668 l 871 242 "},"ú":{"ha":988,"x_min":0,"x_max":0,"o":"m 422 796 b 375 825 392 796 375 810 b 389 863 375 836 382 851 b 494 1018 429 925 464 975 b 610 1061 515 1049 538 1061 b 715 1019 700 1061 715 1046 b 656 940 715 992 697 975 b 503 822 607 900 563 867 b 422 796 476 803 447 796 m 871 242 b 975 100 871 149 975 156 b 796 13 975 54 935 42 b 656 -11 704 -7 674 -11 b 601 54 619 -11 601 17 l 601 122 l 600 122 b 356 -17 556 47 471 -17 b 111 249 219 -17 111 71 l 111 446 b 13 575 111 536 13 514 b 182 675 13 617 53 633 b 326 714 289 710 311 714 b 381 632 371 714 381 675 l 381 333 b 488 181 381 222 425 181 b 601 350 540 181 601 215 l 601 446 b 488 575 601 536 488 511 b 672 676 488 617 531 632 b 818 714 775 708 804 714 b 871 632 865 714 871 668 l 871 242 "},"ŭ":{"ha":988,"x_min":0,"x_max":0,"o":"m 482 806 b 269 943 381 806 308 860 b 250 1017 256 972 250 994 b 301 1063 250 1046 274 1063 b 378 1008 333 1063 353 1040 b 482 942 408 969 442 942 b 586 1008 522 942 556 969 b 663 1063 611 1040 631 1063 b 714 1017 690 1063 714 1046 b 694 943 714 994 708 972 b 482 806 656 860 583 806 m 871 242 b 975 100 871 149 975 156 b 796 13 975 54 935 42 b 656 -11 704 -7 674 -11 b 601 54 619 -11 601 17 l 601 122 l 600 122 b 356 -17 556 47 471 -17 b 111 249 219 -17 111 71 l 111 446 b 13 575 111 536 13 514 b 182 675 13 617 53 633 b 326 714 289 710 311 714 b 381 632 371 714 381 675 l 381 333 b 488 181 381 222 425 181 b 601 350 540 181 601 215 l 601 446 b 488 575 601 536 488 511 b 672 676 488 617 531 632 b 818 714 775 708 804 714 b 871 632 865 714 871 668 l 871 242 "},"û":{"ha":988,"x_min":0,"x_max":0,"o":"m 306 806 b 251 847 271 806 251 828 b 271 893 251 861 257 874 b 374 1019 303 938 335 978 b 488 1064 406 1053 425 1064 b 601 1019 550 1064 569 1053 b 704 893 640 978 672 938 b 724 847 718 874 724 861 b 669 806 724 828 704 806 b 603 835 653 806 632 810 l 488 932 l 372 835 b 306 806 343 810 322 806 m 871 242 b 975 100 871 149 975 156 b 796 13 975 54 935 42 b 656 -11 704 -7 674 -11 b 601 54 619 -11 601 17 l 601 122 l 600 122 b 356 -17 556 47 471 -17 b 111 249 219 -17 111 71 l 111 446 b 13 575 111 536 13 514 b 182 675 13 617 53 633 b 326 714 289 710 311 714 b 381 632 371 714 381 675 l 381 333 b 488 181 381 222 425 181 b 601 350 540 181 601 215 l 601 446 b 488 575 601 536 488 511 b 672 676 488 617 531 632 b 818 714 775 708 804 714 b 871 632 865 714 871 668 l 871 242 "},"ü":{"ha":988,"x_min":0,"x_max":0,"o":"m 319 806 b 193 919 247 806 193 856 b 322 1038 193 989 247 1038 b 446 922 394 1038 446 989 b 319 806 446 856 394 806 m 642 807 b 518 919 571 807 518 856 b 646 1036 518 989 571 1036 b 768 922 717 1036 768 989 b 642 807 768 856 717 807 m 871 242 b 975 100 871 149 975 156 b 796 13 975 54 935 42 b 656 -11 704 -7 674 -11 b 601 54 619 -11 601 17 l 601 122 l 600 122 b 356 -17 556 47 471 -17 b 111 249 219 -17 111 71 l 111 446 b 13 575 111 536 13 514 b 182 675 13 617 53 633 b 326 714 289 710 311 714 b 381 632 371 714 381 675 l 381 333 b 488 181 381 222 425 181 b 601 350 540 181 601 215 l 601 446 b 488 575 601 536 488 511 b 672 676 488 617 531 632 b 818 714 775 708 804 714 b 871 632 865 714 871 668 l 871 242 "},"ù":{"ha":988,"x_min":0,"x_max":0,"o":"m 297 940 b 238 1019 256 975 238 992 b 343 1061 238 1046 253 1061 b 458 1018 415 1061 438 1049 b 564 863 488 975 525 925 b 578 825 571 851 578 836 b 531 796 578 810 561 796 b 450 822 506 796 476 803 b 297 940 390 867 346 900 m 871 242 b 975 100 871 149 975 156 b 796 13 975 54 935 42 b 656 -11 704 -7 674 -11 b 601 54 619 -11 601 17 l 601 122 l 600 122 b 356 -17 556 47 471 -17 b 111 249 219 -17 111 71 l 111 446 b 13 575 111 536 13 514 b 182 675 13 617 53 633 b 326 714 289 710 311 714 b 381 632 371 714 381 675 l 381 333 b 488 181 381 222 425 181 b 601 350 540 181 601 215 l 601 446 b 488 575 601 536 488 511 b 672 676 488 617 531 632 b 818 714 775 708 804 714 b 871 632 865 714 871 668 l 871 242 "},"ű":{"ha":988,"x_min":0,"x_max":0,"o":"m 338 790 b 303 822 317 790 303 804 b 315 863 303 836 310 850 b 393 1018 344 928 368 971 b 483 1061 410 1049 426 1061 b 569 1019 539 1061 569 1051 b 519 938 569 990 550 974 b 408 822 485 896 447 861 b 338 790 388 801 364 790 m 535 822 b 547 863 535 836 542 850 b 625 1018 576 928 600 971 b 715 1061 642 1049 658 1061 b 801 1019 771 1061 801 1051 b 751 938 801 990 782 974 b 640 822 717 896 679 861 b 569 790 619 801 596 790 b 535 822 549 790 535 804 m 871 242 b 975 100 871 149 975 156 b 796 13 975 54 935 42 b 656 -11 704 -7 674 -11 b 601 54 619 -11 601 17 l 601 122 l 600 122 b 356 -17 556 47 471 -17 b 111 249 219 -17 111 71 l 111 446 b 13 575 111 536 13 514 b 182 675 13 617 53 633 b 326 714 289 710 311 714 b 381 632 371 714 381 675 l 381 333 b 488 181 381 222 425 181 b 601 350 540 181 601 215 l 601 446 b 488 575 601 536 488 511 b 672 676 488 617 531 632 b 818 714 775 708 804 714 b 871 632 865 714 871 668 l 871 242 "},"ū":{"ha":988,"x_min":0,"x_max":0,"o":"m 297 857 b 247 924 261 857 247 881 b 297 990 247 967 261 990 b 481 988 353 990 422 988 b 664 990 539 988 608 990 b 714 924 700 990 714 967 b 664 857 714 881 700 857 b 481 860 608 857 539 860 b 297 857 422 860 353 857 m 871 242 b 975 100 871 149 975 156 b 796 13 975 54 935 42 b 656 -11 704 -7 674 -11 b 601 54 619 -11 601 17 l 601 122 l 600 122 b 356 -17 556 47 471 -17 b 111 249 219 -17 111 71 l 111 446 b 13 575 111 536 13 514 b 182 675 13 617 53 633 b 326 714 289 710 311 714 b 381 632 371 714 381 675 l 381 333 b 488 181 381 222 425 181 b 601 350 540 181 601 215 l 601 446 b 488 575 601 536 488 511 b 672 676 488 617 531 632 b 818 714 775 708 804 714 b 871 632 865 714 871 668 l 871 242 "},"ų":{"ha":988,"x_min":0,"x_max":0,"o":"m 871 242 b 975 100 871 149 975 156 b 796 13 975 54 935 42 b 711 -4 758 4 732 0 b 651 -137 672 -47 651 -92 b 681 -179 651 -169 665 -179 b 710 -171 693 -179 703 -175 b 733 -162 718 -167 724 -162 b 765 -197 749 -162 765 -178 b 743 -240 765 -214 758 -228 b 629 -279 718 -261 679 -279 b 507 -161 560 -279 507 -235 b 617 6 507 -101 547 -44 b 601 54 607 18 601 35 l 601 122 l 600 122 b 356 -17 556 47 471 -17 b 111 249 219 -17 111 71 l 111 446 b 13 575 111 536 13 514 b 182 675 13 617 53 633 b 326 714 289 710 311 714 b 381 632 371 714 381 675 l 381 333 b 488 181 381 222 425 181 b 601 350 540 181 601 215 l 601 446 b 488 575 601 536 488 511 b 672 676 488 617 531 632 b 818 714 775 708 804 714 b 871 632 865 714 871 668 l 871 242 "},"ů":{"ha":988,"x_min":0,"x_max":0,"o":"m 483 783 b 297 933 360 783 297 835 b 489 1081 297 1032 367 1081 b 674 939 608 1081 674 1033 b 483 783 674 838 608 783 m 488 1007 b 426 928 447 1007 426 985 b 485 858 426 882 449 858 b 544 938 526 858 544 881 b 488 1007 544 985 522 1007 m 871 242 b 975 100 871 149 975 156 b 796 13 975 54 935 42 b 656 -11 704 -7 674 -11 b 601 54 619 -11 601 17 l 601 122 l 600 122 b 356 -17 556 47 471 -17 b 111 249 219 -17 111 71 l 111 446 b 13 575 111 536 13 514 b 182 675 13 617 53 633 b 326 714 289 710 311 714 b 381 632 371 714 381 675 l 381 333 b 488 181 381 222 425 181 b 601 350 540 181 601 215 l 601 446 b 488 575 601 536 488 511 b 672 676 488 617 531 632 b 818 714 775 708 804 714 b 871 632 865 714 871 668 l 871 242 "},"ũ":{"ha":988,"x_min":0,"x_max":0,"o":"m 296 828 b 251 876 267 828 251 846 b 263 935 251 889 254 910 b 394 1046 286 1007 332 1046 b 572 949 493 1046 532 949 b 613 988 586 949 596 961 b 669 1033 629 1015 642 1033 b 714 985 699 1033 714 1015 b 703 926 714 972 711 951 b 571 815 679 854 633 815 b 394 913 469 815 431 913 b 353 874 378 913 364 892 b 296 828 336 846 324 828 m 871 242 b 975 100 871 149 975 156 b 796 13 975 54 935 42 b 656 -11 704 -7 674 -11 b 601 54 619 -11 601 17 l 601 122 l 600 122 b 356 -17 556 47 471 -17 b 111 249 219 -17 111 71 l 111 446 b 13 575 111 536 13 514 b 182 675 13 617 53 633 b 326 714 289 710 311 714 b 381 632 371 714 381 675 l 381 333 b 488 181 381 222 425 181 b 601 350 540 181 601 215 l 601 446 b 488 575 601 536 488 511 b 672 676 488 617 531 632 b 818 714 775 708 804 714 b 871 632 865 714 871 668 l 871 242 "},"v":{"ha":885,"x_min":0,"x_max":0,"o":"m 838 707 b 890 663 868 707 890 689 b 782 522 890 604 825 625 l 588 63 b 444 -14 569 21 557 -14 b 299 63 336 -14 319 15 l 101 522 b -6 663 56 629 -6 604 b 47 707 -6 690 18 707 b 219 703 83 707 132 703 b 389 707 304 703 347 707 b 454 663 433 707 454 689 b 394 554 454 607 394 618 b 418 463 394 526 403 501 l 513 213 l 608 463 b 633 557 625 507 633 532 b 571 663 633 611 571 607 b 635 707 571 689 590 707 b 735 703 664 707 697 703 b 838 707 769 703 813 707 "},"w":{"ha":1379,"x_min":0,"x_max":0,"o":"m 1335 708 b 1390 663 1363 708 1390 690 b 1279 522 1390 603 1322 625 l 1088 64 b 946 -14 1069 19 1053 -14 b 801 64 829 -14 818 24 l 690 343 l 585 64 b 439 -14 569 25 557 -14 b 293 64 332 -14 314 15 l 96 522 b -11 663 50 629 -11 601 b 43 708 -11 692 15 708 b 215 704 79 708 131 704 b 383 708 300 704 344 708 b 453 663 429 708 453 690 b 399 553 453 611 399 617 b 418 475 399 532 407 506 l 513 215 l 622 515 l 619 524 b 519 663 578 631 519 601 b 574 708 519 692 546 708 b 751 704 610 708 661 704 b 910 708 824 704 868 708 b 979 663 954 708 979 690 b 914 553 979 611 914 618 b 929 475 914 526 918 511 l 1011 214 l 1110 476 b 1131 564 1122 510 1131 540 b 1065 663 1131 617 1065 611 b 1132 708 1065 690 1090 708 b 1235 704 1164 708 1194 704 b 1335 708 1269 704 1310 708 "},"":{"ha":1379,"x_min":0,"x_max":0,"o":"m 1335 708 b 1235 704 1310 708 1269 704 b 1132 708 1194 704 1164 708 b 1065 663 1090 708 1065 690 b 1131 564 1065 611 1131 617 b 1110 476 1131 540 1122 510 l 1011 214 l 929 475 b 914 553 918 511 914 526 b 979 663 914 618 979 611 b 910 708 979 690 954 708 b 751 704 868 708 824 704 b 574 708 661 704 610 708 b 519 663 546 708 519 692 b 619 524 519 601 578 631 l 622 515 l 513 215 l 418 475 b 399 553 407 506 399 532 b 453 663 399 617 453 611 b 383 708 453 690 429 708 b 215 704 344 708 300 704 b 43 708 131 704 79 708 b -11 663 15 708 -11 692 b 96 522 -11 601 50 629 l 293 64 b 439 -14 314 15 332 -14 b 585 64 557 -14 569 25 l 690 343 l 801 64 b 946 -14 818 24 829 -14 b 1088 64 1053 -14 1069 19 l 1279 522 b 1390 663 1322 625 1390 603 b 1335 708 1390 690 1363 708 "},"ẃ":{"ha":1379,"x_min":0,"x_max":0,"o":"m 689 797 b 642 826 658 797 642 811 b 656 864 642 838 649 853 b 761 1019 696 926 731 976 b 876 1063 782 1050 804 1063 b 982 1021 967 1063 982 1047 b 922 942 982 993 964 976 b 769 824 874 901 829 868 b 689 797 743 804 714 797 m 1335 708 b 1390 663 1363 708 1390 690 b 1279 522 1390 603 1322 625 l 1088 64 b 946 -14 1069 19 1053 -14 b 801 64 829 -14 818 24 l 690 343 l 585 64 b 439 -14 569 25 557 -14 b 293 64 332 -14 314 15 l 96 522 b -11 663 50 629 -11 601 b 43 708 -11 692 15 708 b 215 704 79 708 131 704 b 383 708 300 704 344 708 b 453 663 429 708 453 690 b 399 553 453 611 399 617 b 418 475 399 532 407 506 l 513 215 l 622 515 l 619 524 b 519 663 578 631 519 601 b 574 708 519 692 546 708 b 751 704 610 708 661 704 b 910 708 824 704 868 708 b 979 663 954 708 979 690 b 914 553 979 611 914 618 b 929 475 914 526 918 511 l 1011 214 l 1110 476 b 1131 564 1122 510 1131 540 b 1065 663 1131 617 1065 611 b 1132 708 1065 690 1090 708 b 1235 704 1164 708 1194 704 b 1335 708 1269 704 1310 708 "},"ŵ":{"ha":1379,"x_min":0,"x_max":0,"o":"m 572 807 b 518 849 538 807 518 829 b 538 894 518 863 524 875 b 640 1021 569 939 601 979 b 754 1065 672 1054 692 1065 b 868 1021 817 1065 836 1054 b 971 894 907 979 939 939 b 990 849 985 875 990 863 b 936 807 990 829 971 807 b 869 836 919 807 899 811 l 754 933 l 639 836 b 572 807 610 811 589 807 m 1335 708 b 1390 663 1363 708 1390 690 b 1279 522 1390 603 1322 625 l 1088 64 b 946 -14 1069 19 1053 -14 b 801 64 829 -14 818 24 l 690 343 l 585 64 b 439 -14 569 25 557 -14 b 293 64 332 -14 314 15 l 96 522 b -11 663 50 629 -11 601 b 43 708 -11 692 15 708 b 215 704 79 708 131 704 b 383 708 300 704 344 708 b 453 663 429 708 453 690 b 399 553 453 611 399 617 b 418 475 399 532 407 506 l 513 215 l 622 515 l 619 524 b 519 663 578 631 519 601 b 574 708 519 692 546 708 b 751 704 610 708 661 704 b 910 708 824 704 868 708 b 979 663 954 708 979 690 b 914 553 979 611 914 618 b 929 475 914 526 918 511 l 1011 214 l 1110 476 b 1131 564 1122 510 1131 540 b 1065 663 1131 617 1065 611 b 1132 708 1065 690 1090 708 b 1235 704 1164 708 1194 704 b 1335 708 1269 704 1310 708 "},"ẅ":{"ha":1379,"x_min":0,"x_max":0,"o":"m 586 807 b 460 921 514 807 460 857 b 589 1039 460 990 514 1039 b 713 924 661 1039 713 990 b 586 807 713 857 661 807 m 908 808 b 785 921 838 808 785 857 b 913 1038 785 990 838 1038 b 1035 924 983 1038 1035 990 b 908 808 1035 857 983 808 m 1335 708 b 1390 663 1363 708 1390 690 b 1279 522 1390 603 1322 625 l 1088 64 b 946 -14 1069 19 1053 -14 b 801 64 829 -14 818 24 l 690 343 l 585 64 b 439 -14 569 25 557 -14 b 293 64 332 -14 314 15 l 96 522 b -11 663 50 629 -11 601 b 43 708 -11 692 15 708 b 215 704 79 708 131 704 b 383 708 300 704 344 708 b 453 663 429 708 453 690 b 399 553 453 611 399 617 b 418 475 399 532 407 506 l 513 215 l 622 515 l 619 524 b 519 663 578 631 519 601 b 574 708 519 692 546 708 b 751 704 610 708 661 704 b 910 708 824 704 868 708 b 979 663 954 708 979 690 b 914 553 979 611 914 618 b 929 475 914 526 918 511 l 1011 214 l 1110 476 b 1131 564 1122 510 1131 540 b 1065 663 1131 617 1065 611 b 1132 708 1065 690 1090 708 b 1235 704 1164 708 1194 704 b 1335 708 1269 704 1310 708 "},"ẁ":{"ha":1379,"x_min":0,"x_max":0,"o":"m 564 942 b 504 1021 522 976 504 993 b 610 1063 504 1047 519 1063 b 725 1019 682 1063 704 1050 b 831 864 754 976 792 926 b 844 826 838 853 844 838 b 797 797 844 811 828 797 b 717 824 772 797 743 804 b 564 942 657 868 613 901 m 1335 708 b 1390 663 1363 708 1390 690 b 1279 522 1390 603 1322 625 l 1088 64 b 946 -14 1069 19 1053 -14 b 801 64 829 -14 818 24 l 690 343 l 585 64 b 439 -14 569 25 557 -14 b 293 64 332 -14 314 15 l 96 522 b -11 663 50 629 -11 601 b 43 708 -11 692 15 708 b 215 704 79 708 131 704 b 383 708 300 704 344 708 b 453 663 429 708 453 690 b 399 553 453 611 399 617 b 418 475 399 532 407 506 l 513 215 l 622 515 l 619 524 b 519 663 578 631 519 601 b 574 708 519 692 546 708 b 751 704 610 708 661 704 b 910 708 824 704 868 708 b 979 663 954 708 979 690 b 914 553 979 611 914 618 b 929 475 914 526 918 511 l 1011 214 l 1110 476 b 1131 564 1122 510 1131 540 b 1065 663 1131 617 1065 611 b 1132 708 1065 690 1090 708 b 1235 704 1164 708 1194 704 b 1335 708 1269 704 1310 708 "},"x":{"ha":874,"x_min":0,"x_max":0,"o":"m 756 171 b 886 42 829 86 886 94 b 833 -3 886 14 863 -3 b 660 1 797 -3 747 1 b 488 -3 575 1 529 -3 b 422 40 443 -3 422 14 b 474 124 422 86 474 75 b 440 186 474 146 456 169 l 382 253 l 314 178 b 281 118 293 154 281 135 b 329 42 281 85 329 85 b 264 -3 329 15 308 -3 b 151 1 235 -3 189 1 b 46 -3 114 1 71 -3 b -7 42 15 -3 -7 15 b 133 172 -7 96 54 88 l 297 350 l 138 533 b 7 663 64 618 7 610 b 60 707 7 690 31 707 b 233 703 96 707 146 703 b 400 707 318 703 358 707 b 465 664 444 707 465 690 b 419 585 465 618 419 625 b 453 518 419 561 439 535 l 492 472 l 543 526 b 581 589 568 553 581 574 b 536 663 581 621 536 622 b 594 707 536 689 557 707 b 697 703 631 707 657 703 b 807 707 732 703 782 707 b 860 663 838 707 860 689 b 739 551 860 608 804 619 l 575 378 l 756 171 "},"y":{"ha":892,"x_min":0,"x_max":0,"o":"m 838 707 b 890 663 868 707 890 689 b 767 488 890 608 826 625 l 550 -19 b 249 -272 482 -181 382 -272 b 121 -235 189 -272 139 -257 b 57 -21 92 -199 57 -86 b 103 39 57 14 78 39 b 146 15 118 39 132 33 b 296 -94 208 -65 243 -94 b 378 -19 332 -94 357 -62 l 118 488 b -8 663 49 624 -8 608 b 44 707 -8 690 15 707 b 219 703 81 707 132 703 b 389 707 304 703 347 707 b 454 663 433 707 454 689 b 394 554 454 607 394 618 b 419 463 394 526 404 501 l 522 242 l 613 463 b 638 557 629 507 638 532 b 575 663 638 611 575 607 b 639 707 575 689 594 707 b 739 703 668 707 701 703 b 838 707 774 703 813 707 "},"":{"ha":892,"x_min":0,"x_max":0,"o":"m 838 707 b 739 703 813 707 774 703 b 639 707 701 703 668 707 b 575 663 594 707 575 689 b 638 557 575 607 638 611 b 613 463 638 532 629 507 l 522 242 l 419 463 b 394 554 404 501 394 526 b 454 663 394 618 454 607 b 389 707 454 689 433 707 b 219 703 347 707 304 703 b 44 707 132 703 81 707 b -8 663 15 707 -8 690 b 118 488 -8 608 49 624 l 378 -19 b 296 -94 357 -62 332 -94 b 146 15 243 -94 208 -65 b 103 39 132 33 118 39 b 57 -21 78 39 57 14 b 121 -235 57 -86 92 -199 b 249 -272 139 -257 189 -272 b 550 -19 382 -272 482 -181 l 767 488 b 890 663 826 625 890 608 b 838 707 890 689 868 707 "},"ý":{"ha":892,"x_min":0,"x_max":0,"o":"m 424 796 b 376 825 393 796 376 810 b 390 863 376 836 383 851 b 496 1018 431 925 465 975 b 611 1061 517 1049 539 1061 b 717 1019 701 1061 717 1046 b 657 940 717 992 699 975 b 504 822 608 900 564 867 b 424 796 478 803 449 796 m 838 707 b 890 663 868 707 890 689 b 767 488 890 608 826 625 l 550 -19 b 249 -272 482 -181 382 -272 b 121 -235 189 -272 139 -257 b 57 -21 92 -199 57 -86 b 103 39 57 14 78 39 b 146 15 118 39 132 33 b 296 -94 208 -65 243 -94 b 378 -19 332 -94 357 -62 l 118 488 b -8 663 49 624 -8 608 b 44 707 -8 690 15 707 b 219 703 81 707 132 703 b 389 707 304 703 347 707 b 454 663 433 707 454 689 b 394 554 454 607 394 618 b 419 463 394 526 404 501 l 522 242 l 613 463 b 638 557 629 507 638 532 b 575 663 638 611 575 607 b 639 707 575 689 594 707 b 739 703 668 707 701 703 b 838 707 774 703 813 707 "},"ŷ":{"ha":892,"x_min":0,"x_max":0,"o":"m 307 806 b 253 847 272 806 253 828 b 272 893 253 861 258 874 b 375 1019 304 938 336 978 b 489 1064 407 1053 426 1064 b 603 1019 551 1064 571 1053 b 706 893 642 978 674 938 b 725 847 719 874 725 861 b 671 806 725 828 706 806 b 604 835 654 806 633 810 l 489 932 l 374 835 b 307 806 344 810 324 806 m 838 707 b 890 663 868 707 890 689 b 767 488 890 608 826 625 l 550 -19 b 249 -272 482 -181 382 -272 b 121 -235 189 -272 139 -257 b 57 -21 92 -199 57 -86 b 103 39 57 14 78 39 b 146 15 118 39 132 33 b 296 -94 208 -65 243 -94 b 378 -19 332 -94 357 -62 l 118 488 b -8 663 49 624 -8 608 b 44 707 -8 690 15 707 b 219 703 81 707 132 703 b 389 707 304 703 347 707 b 454 663 433 707 454 689 b 394 554 454 607 394 618 b 419 463 394 526 404 501 l 522 242 l 613 463 b 638 557 629 507 638 532 b 575 663 638 611 575 607 b 639 707 575 689 594 707 b 739 703 668 707 701 703 b 838 707 774 703 813 707 "},"ÿ":{"ha":892,"x_min":0,"x_max":0,"o":"m 321 806 b 194 919 249 806 194 856 b 324 1038 194 989 249 1038 b 447 922 396 1038 447 989 b 321 806 447 856 396 806 m 643 807 b 519 919 572 807 519 856 b 647 1036 519 989 572 1036 b 769 922 718 1036 769 989 b 643 807 769 856 718 807 m 838 707 b 890 663 868 707 890 689 b 767 488 890 608 826 625 l 550 -19 b 249 -272 482 -181 382 -272 b 121 -235 189 -272 139 -257 b 57 -21 92 -199 57 -86 b 103 39 57 14 78 39 b 146 15 118 39 132 33 b 296 -94 208 -65 243 -94 b 378 -19 332 -94 357 -62 l 118 488 b -8 663 49 624 -8 608 b 44 707 -8 690 15 707 b 219 703 81 707 132 703 b 389 707 304 703 347 707 b 454 663 433 707 454 689 b 394 554 454 607 394 618 b 419 463 394 526 404 501 l 522 242 l 613 463 b 638 557 629 507 638 532 b 575 663 638 611 575 607 b 639 707 575 689 594 707 b 739 703 668 707 701 703 b 838 707 774 703 813 707 "},"ỳ":{"ha":892,"x_min":0,"x_max":0,"o":"m 299 940 b 239 1019 257 975 239 992 b 344 1061 239 1046 254 1061 b 460 1018 417 1061 439 1049 b 565 863 489 975 526 925 b 579 825 572 851 579 836 b 532 796 579 810 563 796 b 451 822 507 796 478 803 b 299 940 392 867 347 900 m 838 707 b 890 663 868 707 890 689 b 767 488 890 608 826 625 l 550 -19 b 249 -272 482 -181 382 -272 b 121 -235 189 -272 139 -257 b 57 -21 92 -199 57 -86 b 103 39 57 14 78 39 b 146 15 118 39 132 33 b 296 -94 208 -65 243 -94 b 378 -19 332 -94 357 -62 l 118 488 b -8 663 49 624 -8 608 b 44 707 -8 690 15 707 b 219 703 81 707 132 703 b 389 707 304 703 347 707 b 454 663 433 707 454 689 b 394 554 454 607 394 618 b 419 463 394 526 404 501 l 522 242 l 613 463 b 638 557 629 507 638 532 b 575 663 638 611 575 607 b 639 707 575 689 594 707 b 739 703 668 707 701 703 b 838 707 774 703 813 707 "}}}
